<svg id="Livello_1" data-name="Livello 1" xmlns="http://www.w3.org/2000/svg" viewBox="0 0 990.94 955.93"><defs><style>.cls-1{fill:#fbae17;}.cls-1,.cls-2,.cls-3,.cls-5,.cls-6{stroke:#603813;stroke-miterlimit:10;}.cls-1,.cls-2,.cls-5{stroke-width:25px;}.cls-2,.cls-3,.cls-4{fill:#603813;}.cls-3{stroke-width:18px;}.cls-5{fill:#fff;}.cls-6{fill:none;stroke-width:10px;}.cls-7{fill:#754c24;}</style></defs><rect class="cls-1" x="280.51" y="437.49" width="429.93" height="144.42"/><rect class="cls-1" x="280.51" y="293.63" width="429.93" height="144.42"/><path class="cls-1" d="M393.23,797.6H686.77A213.53,213.53,0,0,0,755,642.07H325A213.53,213.53,0,0,0,393.23,797.6Z" transform="translate(-44.53 -59.61)"/><path class="cls-2" d="M540,138.83c-119,0-215.52,96-215.52,214.41h431C755.52,234.82,659,138.83,540,138.83Z" transform="translate(-44.53 -59.61)"/><path class="cls-3" d="M427.75,66.08h0A30.93,30.93,0,0,1,458.69,97v86.48a18.22,18.22,0,0,1-18.22,18.22H415a18.22,18.22,0,0,1-18.22-18.22V97a30.93,30.93,0,0,1,30.93-30.93Z" transform="translate(-63.9 105.55) rotate(-21.38)"/><path class="cls-3" d="M629.9,66.08h44.69a8.59,8.59,0,0,1,8.59,8.59v96.11a30.93,30.93,0,0,1-30.93,30.93h0a30.93,30.93,0,0,1-30.93-30.93V74.67a8.59,8.59,0,0,1,8.59-8.59Z" transform="translate(1166.26 436.76) rotate(-158.62)"/><rect class="cls-4" x="279.68" y="413.74" width="431.59" height="58.88"/><rect class="cls-4" x="279.68" y="552.61" width="431.59" height="58.88"/><path class="cls-5" d="M539.72,473.87S285,607.77,203.89,607.77a146.86,146.86,0,0,1,0-293.72C285,314.05,539.72,473.87,539.72,473.87Z" transform="translate(-44.53 -59.61)"/><path class="cls-5" d="M540.28,473.87S795,607.77,876.11,607.77a146.86,146.86,0,1,0,0-293.72C795,314.05,540.28,473.87,540.28,473.87Z" transform="translate(-44.53 -59.61)"/><rect class="cls-4" x="361.12" y="770.55" width="268.71" height="39.13" rx="19.57"/><rect class="cls-4" x="361.12" y="822.72" width="268.71" height="39.13" rx="19.57"/><path class="cls-4" d="M540,1015.54c49,0,88.63-33.45,88.63-74.71H451.37C451.37,982.09,491.05,1015.54,540,1015.54Z" transform="translate(-44.53 -59.61)"/><path class="cls-6" d="M565.25,476.59h69.81a5.51,5.51,0,0,0,3.32-1.1L731,406.05a5.52,5.52,0,0,1,3.32-1.11H849.58a5.54,5.54,0,0,1,3.92,1.62l46.15,46.15" transform="translate(-44.53 -59.61)"/><polyline class="cls-6" points="645.58 372.47 684.66 411.56 743.29 411.56 782.38 431.1"/><polyline class="cls-6" points="723.75 411.56 723.75 450.64 704.2 470.19"/><polyline class="cls-6" points="756.94 345.33 781.85 307.98 856.55 307.98 869 295.53"/><polyline class="cls-6" points="831.65 370.23 869 357.78 918.81 370.23"/><path class="cls-6" d="M515.1,476.59H445.29a5.54,5.54,0,0,1-3.33-1.1l-92.58-69.44a5.55,5.55,0,0,0-3.33-1.11H230.76a5.53,5.53,0,0,0-3.91,1.62L180.7,452.71" transform="translate(-44.53 -59.61)"/><polyline class="cls-6" points="345.71 372.47 306.63 411.56 248 411.56 208.91 431.1"/><polyline class="cls-6" points="267.54 411.56 267.54 450.64 287.08 470.19"/><polyline class="cls-6" points="234.34 345.33 209.44 307.98 134.74 307.98 122.29 295.53"/><polyline class="cls-6" points="159.64 370.23 122.29 357.78 72.48 370.23"/><ellipse class="cls-7" cx="434.86" cy="230.8" rx="62.26" ry="37.35" transform="translate(-80.36 315.48) rotate(-45)"/><circle class="cls-4" cx="854.11" cy="391.54" r="11.62"/><circle class="cls-4" cx="782.97" cy="430.74" r="11.62"/><circle class="cls-4" cx="704.56" cy="469.94" r="11.62"/><circle class="cls-4" cx="286.38" cy="469.94" r="11.62"/><circle class="cls-4" cx="209.43" cy="430.74" r="11.62"/><circle class="cls-4" cx="136.83" cy="395.89" r="11.62"/><circle class="cls-4" cx="72.94" cy="369.76" r="11.62"/><circle class="cls-4" cx="122.31" cy="295.7" r="11.62"/><circle class="cls-4" cx="919.45" cy="369.76" r="11.62"/><circle class="cls-4" cx="868.63" cy="295.7" r="11.62"/></svg>