<svg id="Livello_1" data-name="Livello 1" xmlns="http://www.w3.org/2000/svg" viewBox="0 0 690.25 883.99"><title>Logo BEM</title><rect x="197.08" y="304.11" width="296.09" height="99.46" style="fill:#fbae17;stroke:#603813;stroke-miterlimit:10;stroke-width:25px"/><rect x="197.08" y="205.03" width="296.09" height="99.46" style="fill:#fbae17;stroke:#603813;stroke-miterlimit:10;stroke-width:25px"/><path d="M438.92,605.61H641.08a147.09,147.09,0,0,0,47-107.11H392A147.09,147.09,0,0,0,438.92,605.61Z" transform="translate(-194.87 -94.54)" style="fill:#fbae17;stroke:#603813;stroke-miterlimit:10;stroke-width:25px"/><path d="M540,151.91c-82,0-148.43,66.11-148.43,147.66H688.43C688.43,218,622,151.91,540,151.91Z" transform="translate(-194.87 -94.54)" style="fill:#603813;stroke:#603813;stroke-miterlimit:10;stroke-width:25px"/><path d="M462.7,101.8h0a21.3,21.3,0,0,1,21.3,21.3v63.52a8.59,8.59,0,0,1-8.59,8.59H450a8.59,8.59,0,0,1-8.59-8.59V123.11a21.3,21.3,0,0,1,21.3-21.3Z" transform="translate(-217.17 84.36) rotate(-21.38)" style="fill:#603813;stroke:#603813;stroke-miterlimit:10;stroke-width:18px"/><path d="M604.59,101.8H630a8.59,8.59,0,0,1,8.59,8.59v63.52a21.3,21.3,0,0,1-21.3,21.3h0a21.3,21.3,0,0,1-21.3-21.3V110.39a8.59,8.59,0,0,1,8.59-8.59Z" transform="translate(943.11 417.3) rotate(-158.62)" style="fill:#603813;stroke:#603813;stroke-miterlimit:10;stroke-width:18px"/><rect x="196.51" y="287.75" width="297.24" height="40.55" style="fill:#603813"/><rect x="196.51" y="383.39" width="297.24" height="40.55" style="fill:#603813"/><path d="M539.81,382.65s-175.43,92.22-231.29,92.22a101.15,101.15,0,1,1,0-202.29C364.38,272.58,539.81,382.65,539.81,382.65Z" transform="translate(-194.87 -94.54)" style="fill:#fff;stroke:#603813;stroke-miterlimit:10;stroke-width:25px"/><path d="M540.19,382.65s175.43,92.22,231.29,92.22a101.15,101.15,0,1,0,0-202.29C715.62,272.58,540.19,382.65,540.19,382.65Z" transform="translate(-194.87 -94.54)" style="fill:#fff;stroke:#603813;stroke-miterlimit:10;stroke-width:25px"/><rect x="252.6" y="533.49" width="185.06" height="26.95" rx="8.04" style="fill:#603813"/><rect x="252.6" y="569.42" width="185.06" height="26.95" rx="8.04" style="fill:#603813"/><path d="M540,755.7c33.71,0,61-23,61-51.45H479C479,732.67,506.29,755.7,540,755.7Z" transform="translate(-194.87 -94.54)" style="fill:#603813"/><path d="M557.39,384.53h48.08a3.86,3.86,0,0,0,2.29-.76l63.76-47.83a3.86,3.86,0,0,1,2.29-.76h79.4a3.82,3.82,0,0,1,2.7,1.12l31.78,31.78" transform="translate(-194.87 -94.54)" style="fill:none;stroke:#603813;stroke-miterlimit:10;stroke-width:10px"/><polyline points="448.5 259.33 475.42 286.25 515.8 286.25 542.72 299.7" style="fill:none;stroke:#603813;stroke-miterlimit:10;stroke-width:10px"/><polyline points="502.34 286.25 502.34 313.17 488.88 326.62" style="fill:none;stroke:#603813;stroke-miterlimit:10;stroke-width:10px"/><polyline points="525.21 240.63 542.36 214.91 593.81 214.91 602.38 206.33" style="fill:none;stroke:#603813;stroke-miterlimit:10;stroke-width:10px"/><polyline points="576.66 257.78 602.38 249.21 636.68 257.78" style="fill:none;stroke:#603813;stroke-miterlimit:10;stroke-width:10px"/><path d="M522.85,384.53H474.77a3.86,3.86,0,0,1-2.29-.76l-63.76-47.83a3.88,3.88,0,0,0-2.29-.76H327a3.82,3.82,0,0,0-2.7,1.12l-31.78,31.78" transform="translate(-194.87 -94.54)" style="fill:none;stroke:#603813;stroke-miterlimit:10;stroke-width:10px"/><polyline points="241.99 259.33 215.07 286.25 174.69 286.25 147.77 299.7" style="fill:none;stroke:#603813;stroke-miterlimit:10;stroke-width:10px"/><polyline points="188.15 286.25 188.15 313.17 201.61 326.62" style="fill:none;stroke:#603813;stroke-miterlimit:10;stroke-width:10px"/><polyline points="165.29 240.63 148.14 214.91 96.69 214.91 88.11 206.33" style="fill:none;stroke:#603813;stroke-miterlimit:10;stroke-width:10px"/><polyline points="113.84 257.78 88.11 249.21 53.81 257.78" style="fill:none;stroke:#603813;stroke-miterlimit:10;stroke-width:10px"/><ellipse cx="467.59" cy="215.25" rx="42.88" ry="25.73" transform="translate(-210.12 299.13) rotate(-45)" style="fill:#754c24"/><path d="M364.43,945.42a28.23,28.23,0,0,0-4.9,4.88,8.76,8.76,0,0,0-2,4c-.11,1,.51,1.48,1.84,1.33a1.61,1.61,0,0,1-1.72,1.2,4.15,4.15,0,0,1-2.69-1,3.5,3.5,0,0,1-1.21-3,9.27,9.27,0,0,1,2-4.41,26.63,26.63,0,0,1,4.58-4.72,27.43,27.43,0,0,1,5.75-3.69,12.1,12.1,0,0,1,5.58-1.34A6.28,6.28,0,0,1,375,939.9a7.12,7.12,0,0,1,2.26,2.73,4,4,0,0,1,.23,3.13,12.33,12.33,0,0,1-2.43,3.72,27.31,27.31,0,0,1-2.74,2.58,3.2,3.2,0,0,1-.28.26,5.63,5.63,0,0,1,2.44,1,6.38,6.38,0,0,1,1.88,2l1-.37a18,18,0,0,1,4.56-1.22q.35,0,.45.6a2.63,2.63,0,0,1-.1,1.2,1.13,1.13,0,0,1-.74.79,20.27,20.27,0,0,0-4.8,1.67,19.25,19.25,0,0,1-4.18,8.71,34.2,34.2,0,0,1-8.17,7.6,8.79,8.79,0,0,1-5,1.69,2.63,2.63,0,0,1-2.61-1.82q-.51-1.68,1.18-4.39a35.79,35.79,0,0,1,6.75-7.22,49.44,49.44,0,0,1,7.64-5.37c.09-.06.13-.23.12-.52a2.6,2.6,0,0,0-.19-.91,1.19,1.19,0,0,0-.64-.66,3.33,3.33,0,0,0-2.63.6,18.76,18.76,0,0,0-3.2,2.44c-1.1,1-2.07,2-2.94,3s-1.46,1.67-1.81,2.14A1.65,1.65,0,0,1,360,964a1.71,1.71,0,0,1-1-.24,2.19,2.19,0,0,1-.93-.8,1.47,1.47,0,0,1-.11-1.26q1.08-3.3,3.09-8.25C362.35,950.11,363.49,947.44,364.43,945.42Zm-4.24,27.14a17.56,17.56,0,0,0,3.86-2.92,53.38,53.38,0,0,0,4.48-4.68,15.81,15.81,0,0,0,2.63-3.84,34.61,34.61,0,0,0-4.17,3.13,41.51,41.51,0,0,0-4.31,4.28A12,12,0,0,0,360.19,972.56Zm4.07-17c.33-.34.84-.85,1.54-1.52.92-.89,2-2,3.15-3.16s2.25-2.42,3.24-3.65a12.55,12.55,0,0,0,2-3.33c.37-1,.22-1.69-.46-2.12a4.29,4.29,0,0,0-3,.27,16.5,16.5,0,0,0-4,2,2.53,2.53,0,0,1,.87.32,2.14,2.14,0,0,1,.78.71.84.84,0,0,1,.06.89q-1.41,2.88-2.86,6.32C365.17,953.47,364.69,954.56,364.26,955.51Z" transform="translate(-194.87 -94.54)" style="fill:#fbae17"/><path d="M390.18,956.36a.62.62,0,0,1,.63-.09,1.31,1.31,0,0,1,.64.47.65.65,0,0,1,.06.73,19.3,19.3,0,0,1-3.83,6.35,22,22,0,0,1-5.42,4.55,3.24,3.24,0,0,1-2.81-.12,7.48,7.48,0,0,1-2.3-1.55,4.64,4.64,0,0,1-.86-3.72,17.25,17.25,0,0,1,1.48-5.06,25.36,25.36,0,0,1,2.84-4.83,11,11,0,0,1,3.15-3,2.38,2.38,0,0,1,1.91-.21,8.72,8.72,0,0,1,2,1l.7.41a1.69,1.69,0,0,1,.95,1.57,9.46,9.46,0,0,1-.66,2.45,14.31,14.31,0,0,1-1.77,3.36,5.63,5.63,0,0,1-2.73,2.22,3.51,3.51,0,0,1-1.47.15,4.88,4.88,0,0,1-1.38-.41,12.73,12.73,0,0,0-.63,1.82,10.28,10.28,0,0,0-.36,2.19c0,.67.16,1.06.54,1.16.65.07,1.57-.36,2.75-1.31a24.28,24.28,0,0,0,3.61-3.63A24.83,24.83,0,0,0,390.18,956.36Zm-4.25-3.13a9.38,9.38,0,0,0-1.49,1.68c-.6.81-1.14,1.61-1.63,2.41a5.29,5.29,0,0,0-.75,1.54,2.11,2.11,0,0,0,1.85-.88,8.33,8.33,0,0,0,1.38-2.35A9.8,9.8,0,0,0,385.93,953.23Z" transform="translate(-194.87 -94.54)" style="fill:#fbae17"/><path d="M401.91,956.36a.62.62,0,0,1,.63-.09,1.36,1.36,0,0,1,.64.47.65.65,0,0,1,.05.73,19,19,0,0,1-3.83,6.35,21.79,21.79,0,0,1-5.42,4.55,3.24,3.24,0,0,1-2.81-.12,7.42,7.42,0,0,1-2.29-1.55A4.61,4.61,0,0,1,388,963a17.6,17.6,0,0,1,1.49-5.06,25.33,25.33,0,0,1,2.83-4.83,11.25,11.25,0,0,1,3.15-3,2.39,2.39,0,0,1,1.91-.21,8.76,8.76,0,0,1,2,1l.69.41a1.7,1.7,0,0,1,1,1.57,10.39,10.39,0,0,1-.66,2.45,14.31,14.31,0,0,1-1.77,3.36,5.66,5.66,0,0,1-2.74,2.22,3.45,3.45,0,0,1-1.46.15,4.79,4.79,0,0,1-1.38-.41,12.73,12.73,0,0,0-.63,1.82,9.16,9.16,0,0,0-.36,2.19c0,.67.16,1.06.53,1.16.65.07,1.57-.36,2.76-1.31a23.79,23.79,0,0,0,3.6-3.63A24.9,24.9,0,0,0,401.91,956.36Zm-4.26-3.13a9.41,9.41,0,0,0-1.48,1.68c-.6.81-1.15,1.61-1.63,2.41a4.78,4.78,0,0,0-.75,1.54,2.1,2.1,0,0,0,1.84-.88,7.88,7.88,0,0,0,1.38-2.35A9,9,0,0,0,397.65,953.23Z" transform="translate(-194.87 -94.54)" style="fill:#fbae17"/><path d="M443.78,961a15.69,15.69,0,0,1-3,4,32,32,0,0,1-4.89,4.1,27.67,27.67,0,0,1-5.76,3.07,12.44,12.44,0,0,1-5.56.92,6,6,0,0,1-4.3-2.34,5.8,5.8,0,0,1-1.22-3.4,8.56,8.56,0,0,1,.74-3.61,19.44,19.44,0,0,1,3.21-5,32.7,32.7,0,0,1,3.9-3.86,12.47,12.47,0,0,1,2.54-1.79l-.39-.37a10.57,10.57,0,0,1-2-2.29,3.56,3.56,0,0,1-.31-3.14,9.56,9.56,0,0,1,2-3,22.42,22.42,0,0,1,2.77-2.5c.93-.69,1.6-1.16,2-1.41q3.26-1.84,5.18-1.69a4,4,0,0,1,3,1.45,4.36,4.36,0,0,1,.84,4.15,8.94,8.94,0,0,1-3.55,4.58,1.69,1.69,0,0,1-1.79-.19,3.57,3.57,0,0,1-1.49-1.58c-.29-.63-.06-1.12.69-1.46a8,8,0,0,0,1.61-1,6.42,6.42,0,0,0,1.4-1.41c.34-.49.39-.9.14-1.22s-.86,0-1.88.51a27.49,27.49,0,0,0-3.41,2.13,20.24,20.24,0,0,0-3.22,2.88,4.22,4.22,0,0,0-1.32,2.76,1,1,0,0,0,.74.91,3.53,3.53,0,0,0,1.34.08,5.17,5.17,0,0,0,1-.17,1.77,1.77,0,0,1,1.5.38,4.37,4.37,0,0,1,1.19,1.4,3.39,3.39,0,0,1,.46,1.54.69.69,0,0,1-.66.79,8.33,8.33,0,0,0-3.14,1.54,34.8,34.8,0,0,0-4.28,3.49,24.57,24.57,0,0,0-3.66,4.24,5.6,5.6,0,0,0-1.23,3.75c.3,1.22,1.3,1.7,3,1.43a18.73,18.73,0,0,0,5.94-2.33,38.35,38.35,0,0,0,6.59-4.7,23.49,23.49,0,0,0,4.91-5.75q.33-.53.54-.24a2.12,2.12,0,0,1,.3,1,9.35,9.35,0,0,1,0,1.67A5.29,5.29,0,0,1,443.78,961Z" transform="translate(-194.87 -94.54)" style="fill:#fbae17"/><path d="M460.19,957a.47.47,0,0,1,.47-.25,1.4,1.4,0,0,1,.65.2,2,2,0,0,1,.54.42c.14.14.2.26.17.34a39,39,0,0,1-3.36,5.57,14.2,14.2,0,0,1-4,4.1,3.13,3.13,0,0,1-1.82.16,5.27,5.27,0,0,1-1.88-.71,2.13,2.13,0,0,1-1-1.12,6.94,6.94,0,0,1,.12-2.59q.31-1.61.75-3.09c.29-1,.51-1.69.65-2.1a1.17,1.17,0,0,1,.05-.11,26.94,26.94,0,0,0-4,5,49.6,49.6,0,0,0-3.22,5.45,1.19,1.19,0,0,1-1.24.41,4.3,4.3,0,0,1-1.7-.58c-.52-.31-.75-.64-.69-1q.57-2.21,2-6.33a54.49,54.49,0,0,1,3.37-7.87,1.15,1.15,0,0,1,1-.61,2.69,2.69,0,0,1,1.29.31,3.24,3.24,0,0,1,1,.77c.26.3.35.56.26.79-.58,1.16-1.16,2.27-1.76,3.32a19,19,0,0,0-1.19,2.37,34.07,34.07,0,0,1,3-3.77,16.66,16.66,0,0,1,3.13-2.7,2.18,2.18,0,0,1,1.73-.08,3.81,3.81,0,0,1,1.63,1,1.3,1.3,0,0,1,.41,1.38c-.11.28-.24.59-.39.94q-.87,2-1.81,4.44a14.29,14.29,0,0,0-1,4.15,13.62,13.62,0,0,0,3.6-3.26A29.88,29.88,0,0,0,460.19,957Z" transform="translate(-194.87 -94.54)" style="fill:#fbae17"/><path d="M466.47,949.89a2.38,2.38,0,0,1,2.3.39,5.5,5.5,0,0,1,2.08,6.1,33.48,33.48,0,0,1-3.33,7.1,20.61,20.61,0,0,1-4.27,5.41,3.13,3.13,0,0,1-1.92.49,4.92,4.92,0,0,1-2.15-.54,2.13,2.13,0,0,1-1.2-1.43,14.6,14.6,0,0,1,.29-4.49,49.65,49.65,0,0,1,1.31-5.4,10.67,10.67,0,0,1,1.33-3.14,1.53,1.53,0,0,1,1.25-.13,4.11,4.11,0,0,1,1.44.65c.42.29.58.59.48.88a23.68,23.68,0,0,0-1.05,3q-.64,2.13-1.14,4.32a14.37,14.37,0,0,0-.48,3.28,5.92,5.92,0,0,0,1.31-1.43,33,33,0,0,0,2.26-3.37,27.77,27.77,0,0,0,2.11-4.31A11.61,11.61,0,0,0,468,953,3.91,3.91,0,0,0,466.47,949.89Z" transform="translate(-194.87 -94.54)" style="fill:#fbae17"/><path d="M489.92,948.8a13.33,13.33,0,0,1,4,2.86c.95,1.05,1.15,2.64.62,4.77a44,44,0,0,1-1.76,4.51q-1.21,2.79-2.31,5.74a18,18,0,0,0-1.24,5c-.1,1.38.41,2.12,1.53,2.21a1.88,1.88,0,0,1-2.16.64,5,5,0,0,1-2.73-1.82,4.37,4.37,0,0,1-.65-3.93,61.17,61.17,0,0,1,3-7.4q1.17-2.52,1.82-4.23a7.21,7.21,0,0,0,.62-3.77c-.18-1-1-1.77-2.44-2.29q-.32,4-3.52,9.41t-7.1,7.42a4.09,4.09,0,0,1-2.37,0,7,7,0,0,1-2.52-1.13,3.19,3.19,0,0,1-1.37-1.85,12.46,12.46,0,0,1,.62-4.18,52.55,52.55,0,0,1,1.86-5.47,18.54,18.54,0,0,1,1.87-3.74,1.49,1.49,0,0,1,1.51-.38,4,4,0,0,1,1.86.88c.58.46.76.91.56,1.36a33.22,33.22,0,0,0-3.32,7.28q-1,3.24-.18,3.75c.74.22,1.7-.23,2.87-1.35a23.34,23.34,0,0,0,3.48-4.44,18.17,18.17,0,0,0,2.35-5.33c.41-1.72.14-3-.82-3.82a1,1,0,0,1-.2-1.15,3.79,3.79,0,0,1,.95-1.36,4,4,0,0,1,1.39-.91.84.84,0,0,1,1.06.25,5.31,5.31,0,0,0,.84,1.15A8.13,8.13,0,0,0,489.92,948.8Zm-9.23.94a1.12,1.12,0,0,1-1.16.3,3.82,3.82,0,0,1-1.44-.59c-.44-.3-.63-.59-.57-.88a24.14,24.14,0,0,1,.9-2.44,15,15,0,0,1,.9-1.86,1.47,1.47,0,0,1,1.47-.25,4.6,4.6,0,0,1,1.77.79c.51.38.67.75.5,1.13L482,947.7C481.5,948.46,481.07,949.14,480.69,949.74Z" transform="translate(-194.87 -94.54)" style="fill:#fbae17"/><path d="M527.08,948.87c.79-.46,1.56-.26,2.3.61a4,4,0,0,1,1,1.38,2,2,0,0,1-.25,1.53c-.4.82-1,2.22-1.71,4.18s-1.45,4.06-2.13,6.28a21.79,21.79,0,0,0-1.07,5.8c0,1.64.45,2.54,1.46,2.72-.22.53-.77.72-1.66.55a4.49,4.49,0,0,1-2.45-1.43,4.43,4.43,0,0,1-1.12-3.18,28.93,28.93,0,0,1,1.49-6.86c.84-2.58,1.53-4.44,2.05-5.59a23.92,23.92,0,0,0-3.56,4.5,33,33,0,0,0-3,5.77c-.12.22-.4.3-.85.25a3.25,3.25,0,0,1-1.31-.47,1.47,1.47,0,0,1-.73-1.08,13.53,13.53,0,0,1,.39-2.59c.26-1.18.55-2.32.85-3.42s.51-1.81.63-2.13a27.38,27.38,0,0,0-3.12,4.67q-2,3.46-3.57,6.86c-.19.32-.61.43-1.28.32a4.74,4.74,0,0,1-1.84-.67c-.57-.35-.81-.73-.72-1.15s.3-.78.56-1.43q.91-2.16,2-5.28a16.76,16.76,0,0,0,1-5.56c-.18-.81-.56-1.27-1.15-1.39a7.13,7.13,0,0,0-2.33.05,11.62,11.62,0,0,0-2.54.65,3.61,3.61,0,0,1,2.74,3.75,15.69,15.69,0,0,1-1.6,6.6q-1.63,3.67-3.6,4.52a6.27,6.27,0,0,1-4.33.17,3.92,3.92,0,0,1-2.94-3.08,11,11,0,0,1,.61-4.65,19.76,19.76,0,0,1,2-4.27,1.17,1.17,0,0,1,1.33-.24,3.8,3.8,0,0,1,1.58.88c.45.41.58.8.39,1.18a20.61,20.61,0,0,0-1.29,2.38,13.49,13.49,0,0,0-1.08,3.13,4.27,4.27,0,0,0,0,2.4.56.56,0,0,0,.65.34A2.44,2.44,0,0,0,500,965a15.34,15.34,0,0,0,2.86-5.39,8,8,0,0,0,.33-4.56c-.36-1.08-1.28-1.11-2.76-.08a1.27,1.27,0,0,1-1.29.11,3.18,3.18,0,0,1-1.21-1,3.45,3.45,0,0,1-.66-1.29.7.7,0,0,1,.36-.87l.61-.24a33.39,33.39,0,0,1,6.06-1.89,9,9,0,0,1,6.92,1,5.07,5.07,0,0,1,2.25,4.1,11.56,11.56,0,0,1-.79,4.07c.27-.45.61-1,1-1.66q1.27-2.19,2.78-4.53a15.38,15.38,0,0,1,2.49-3.2,1.48,1.48,0,0,1,1.29-.06,4,4,0,0,1,1.43.82,1.47,1.47,0,0,1,.58,1.2,5,5,0,0,1-.21.73c-.13.38-.29.83-.48,1.33s-.34,1-.51,1.5-.3.91-.4,1.25-.14.53-.11.57l.72-1q1.13-1.65,2.85-3.91A14.37,14.37,0,0,1,527.08,948.87Z" transform="translate(-194.87 -94.54)" style="fill:#fbae17"/><path d="M540.37,956.36a.62.62,0,0,1,.63-.09,1.36,1.36,0,0,1,.64.47.67.67,0,0,1,.05.73,19.13,19.13,0,0,1-3.83,6.35,22,22,0,0,1-5.42,4.55,3.24,3.24,0,0,1-2.81-.12,7.3,7.3,0,0,1-2.29-1.55,4.61,4.61,0,0,1-.87-3.72,17.29,17.29,0,0,1,1.49-5.06,24.82,24.82,0,0,1,2.83-4.83,11.12,11.12,0,0,1,3.15-3,2.38,2.38,0,0,1,1.91-.21,9,9,0,0,1,2,1l.69.41a1.7,1.7,0,0,1,1,1.57,10.06,10.06,0,0,1-.67,2.45,14.65,14.65,0,0,1-1.76,3.36,5.66,5.66,0,0,1-2.74,2.22,3.51,3.51,0,0,1-1.47.15,4.88,4.88,0,0,1-1.38-.41,12.73,12.73,0,0,0-.63,1.82,9.64,9.64,0,0,0-.35,2.19c0,.67.15,1.06.53,1.16.65.07,1.57-.36,2.76-1.31a26.69,26.69,0,0,0,6.58-8.14Zm-4.26-3.13a9.38,9.38,0,0,0-1.49,1.68c-.6.81-1.14,1.61-1.63,2.41a5.29,5.29,0,0,0-.75,1.54,2.1,2.1,0,0,0,1.85-.88,8.33,8.33,0,0,0,1.38-2.35A9.37,9.37,0,0,0,536.11,953.23Z" transform="translate(-194.87 -94.54)" style="fill:#fbae17"/><path d="M558.17,957a.47.47,0,0,1,.47-.25,1.4,1.4,0,0,1,.65.2,2.2,2.2,0,0,1,.54.42c.14.14.19.26.17.34a39,39,0,0,1-3.36,5.57,14.09,14.09,0,0,1-4,4.1,3.09,3.09,0,0,1-1.81.16,5.27,5.27,0,0,1-1.88-.71,2.13,2.13,0,0,1-1-1.12,6.94,6.94,0,0,1,.12-2.59q.32-1.61.75-3.09c.29-1,.51-1.69.65-2.1a1.17,1.17,0,0,1,0-.11,26.54,26.54,0,0,0-4,5,51.62,51.62,0,0,0-3.23,5.45,1.16,1.16,0,0,1-1.23.41,4.25,4.25,0,0,1-1.7-.58c-.52-.31-.75-.64-.69-1,.37-1.47,1-3.58,2-6.33a54.49,54.49,0,0,1,3.37-7.87,1.15,1.15,0,0,1,1-.61,2.72,2.72,0,0,1,1.29.31,3.24,3.24,0,0,1,1,.77c.26.3.35.56.26.79-.58,1.16-1.16,2.27-1.76,3.32a19,19,0,0,0-1.19,2.37,34.07,34.07,0,0,1,3-3.77,16.66,16.66,0,0,1,3.13-2.7,2.18,2.18,0,0,1,1.73-.08,3.87,3.87,0,0,1,1.63,1,1.32,1.32,0,0,1,.41,1.38c-.11.28-.24.59-.39.94q-.87,2-1.81,4.44a14.29,14.29,0,0,0-1,4.15,13.62,13.62,0,0,0,3.6-3.26A29.88,29.88,0,0,0,558.17,957Z" transform="translate(-194.87 -94.54)" style="fill:#fbae17"/><path d="M569.16,945.11a22.11,22.11,0,0,1,2.77.64,3.22,3.22,0,0,1,1.51,1,5,5,0,0,1,.51,1.06,4.44,4.44,0,0,1,.27,1.3c0,.39-.1.63-.35.7a4.66,4.66,0,0,0-2.54-1.34,16.43,16.43,0,0,0-4.36-.55q-.68,1-1.35,2.07a49.68,49.68,0,0,0-3.56,7.28,48.75,48.75,0,0,0-2.32,7.44,17.55,17.55,0,0,0-.5,5.83c.18,1.53.83,2.34,1.93,2.44a2,2,0,0,1-1.81.43,4.27,4.27,0,0,1-2.33-1.31,6,6,0,0,1-1.49-3.31q-.3-3.3,1.59-9a74.72,74.72,0,0,1,4.6-10.88c.15-.29.29-.56.44-.82h0a8.25,8.25,0,0,0-1.2.17,10.85,10.85,0,0,0-1.42.38,1.73,1.73,0,0,0-.84.49c-.14.25-.3.32-.46.23a1.54,1.54,0,0,1-.49-.54,9.33,9.33,0,0,1-.43-.83,4,4,0,0,1-.22-.62,1,1,0,0,1,.08-.85,1.69,1.69,0,0,1,.68-.58,10.86,10.86,0,0,1,2.79-.76q1.59-.24,2.79-.33l.67-.06a31.52,31.52,0,0,1,2.78-3.56,1.42,1.42,0,0,1,1.22-.18,3.39,3.39,0,0,1,1.44.81,2.6,2.6,0,0,1,.85,1.2c.09.38,0,.65-.19.79C569.75,944.42,569.41,944.84,569.16,945.11Z" transform="translate(-194.87 -94.54)" style="fill:#fbae17"/><path d="M613.54,973.52a4.23,4.23,0,0,1-3.39,1,4.32,4.32,0,0,1-3-2,7.61,7.61,0,0,1-.87-5,74.72,74.72,0,0,1,1.84-9.24c.83-3.12,1.47-5.32,1.94-6.59-.34.58-1,1.81-2.08,3.7s-2.07,3.84-3.08,5.85a24,24,0,0,0-1.86,4.45c0,.21-.28.34-.67.41A3.74,3.74,0,0,1,601,966a3.25,3.25,0,0,1-1.34-.63,1.73,1.73,0,0,1-.65-1.29,19.66,19.66,0,0,1,.54-3.95q.57-2.75,1.24-5.47c.45-1.81.78-3.11,1-3.89a85.69,85.69,0,0,0-5.55,10.56q-2.4,5.46-3.81,9.63c-.15.34-.49.5-1,.5a4.38,4.38,0,0,1-1.71-.39,3.37,3.37,0,0,1-1.44-1.11,1.73,1.73,0,0,1-.21-1.69l0,0,1-2.37q.83-2,2-5.1c.76-2.05,1.49-4.18,2.21-6.42s1.29-4.34,1.73-6.32a18,18,0,0,0,.56-4.81c-.07-1.23-.53-1.85-1.37-1.87a5.44,5.44,0,0,0-3.39,2.14,24.37,24.37,0,0,0-3.35,5,28.53,28.53,0,0,0-2.34,6.07,11.5,11.5,0,0,0-.3,5.25,1.94,1.94,0,0,0,1.27,1.46,2.47,2.47,0,0,0,2.16-.37,2.44,2.44,0,0,1-1.69,1.45,5.13,5.13,0,0,1-2.89.1,3.91,3.91,0,0,1-2.47-1.83,6.33,6.33,0,0,1-.42-4.37,29.63,29.63,0,0,1,2.78-7.8,23.54,23.54,0,0,1,4.89-6.61,9.37,9.37,0,0,1,6.21-2.74c1.81.06,3,.71,3.65,2a8.74,8.74,0,0,1,.73,4.66,29.73,29.73,0,0,1-1,5.5c-.5,1.81-1,3.31-1.39,4.48,1-2.06,2.43-4.56,4.12-7.51a63.75,63.75,0,0,1,4-6.34,1.29,1.29,0,0,1,1.57-.12,4.92,4.92,0,0,1,1.78,1.28c.5.56.66,1.06.47,1.51a33.08,33.08,0,0,0-2.87,7c-.71,2.5-1.2,4.45-1.49,5.85-.08.36-.14.65-.2.85.39-.81,1.32-2.55,2.79-5.2s3-5.33,4.69-8a34.55,34.55,0,0,1,3.88-5.45,1.42,1.42,0,0,1,1.4.05,4.77,4.77,0,0,1,1.59,1.08c.45.47.59.89.42,1.28a55.25,55.25,0,0,0-2.62,5.63q-1.57,3.78-3,8.34a72.18,72.18,0,0,0-2.27,8.68,17.36,17.36,0,0,0-.26,6.66A2.48,2.48,0,0,0,613.54,973.52Z" transform="translate(-194.87 -94.54)" style="fill:#fbae17"/><path d="M649.78,955.94a1.22,1.22,0,0,1,.08,1.07,12.92,12.92,0,0,1-1,2.25,32.19,32.19,0,0,1-2.55,4,12.19,12.19,0,0,1-3.51,3.48,3.17,3.17,0,0,1-1.94.25,5.61,5.61,0,0,1-2-.69,2.22,2.22,0,0,1-1.11-1.19,7.05,7.05,0,0,1,.14-2.67,33,33,0,0,1,.85-3.36c.34-1.12.61-2,.81-2.59l.15-.47a30.64,30.64,0,0,0-4.38,5.82,68,68,0,0,0-3.57,6.31c-.23.4-.68.55-1.35.48a4.49,4.49,0,0,1-1.87-.61c-.57-.33-.83-.7-.77-1.1.19-.68.52-1.7,1-3.06.68-2,1.33-4,2-6.17a23.35,23.35,0,0,0,.76-3.69V954a4,4,0,0,0,0-.48,1.72,1.72,0,0,0-1.18-1.8,4.7,4.7,0,0,0-2.5,0,6.75,6.75,0,0,0-2.22.9,4,4,0,0,1,2.54,3.45,16.5,16.5,0,0,1-1.68,7.44q-1.8,3.85-3.6,4.9a6.5,6.5,0,0,1-4.52.13,4.25,4.25,0,0,1-3.12-3.32,11.9,11.9,0,0,1,.66-4.81,18.26,18.26,0,0,1,2.1-4.66,1.25,1.25,0,0,1,1.42-.23,4.27,4.27,0,0,1,1.68,1c.48.44.61.86.39,1.27a25.2,25.2,0,0,0-1.36,2.5,17.72,17.72,0,0,0-1.18,3.23,4.21,4.21,0,0,0,0,2.65.6.6,0,0,0,.69.37,2.75,2.75,0,0,0,1.29-.94,16.24,16.24,0,0,0,3.08-5.62,8,8,0,0,0,.38-4.78q-.57-1.71-3-.26a1.77,1.77,0,0,1-1.92-.09,3.13,3.13,0,0,1-1.32-1.55,1.15,1.15,0,0,1,.53-1.51,22.38,22.38,0,0,1,6.68-2.24,9.94,9.94,0,0,1,7.28,1.29,4.8,4.8,0,0,1,2,2.39A6.66,6.66,0,0,1,635,956a12.3,12.3,0,0,1-.61,2.59c-.25.71-.52,1.41-.83,2.1.16-.23.33-.47.5-.73q1.59-2.4,3.54-5.05a17.75,17.75,0,0,1,3.5-3.79,2.28,2.28,0,0,1,1.86-.15,3.85,3.85,0,0,1,1.76,1,1.44,1.44,0,0,1,.46,1.49c-.19.42-.4.92-.65,1.51-.67,1.53-1.35,3.21-2.06,5.06a13.27,13.27,0,0,0-1.07,4.37,9.53,9.53,0,0,0,3-2.66,26.31,26.31,0,0,0,2.73-4.2,8,8,0,0,1,1.23-2,.85.85,0,0,1,.57-.17A1.34,1.34,0,0,1,649.78,955.94Z" transform="translate(-194.87 -94.54)" style="fill:#fbae17"/><path d="M663.88,947.76a51.22,51.22,0,0,0-5.21,10.51,30.1,30.1,0,0,0-2.1,9.71q0,4,2.86,4a3.08,3.08,0,0,1-3.78.56q-2.26-1-2.73-4.58a17.58,17.58,0,0,1,.58-5.17,16.88,16.88,0,0,1-2.46,3,5.71,5.71,0,0,1-2.6,1.59,3.74,3.74,0,0,1-3.54-3.54,27.76,27.76,0,0,1,1.9-6,39.63,39.63,0,0,1,3.18-6.35,1.3,1.3,0,0,1,1.33-.21,4.26,4.26,0,0,1,1.64.8c.47.37.61.77.42,1.19q-4.67,8.48-3.73,9.75c.39.54.94.39,1.67-.43a20.58,20.58,0,0,0,2.31-3.46q1.23-2.2,2.2-4.31c.66-1.39,1.11-2.39,1.37-3,.55-1.28,1.12-2.51,1.72-3.69a15.54,15.54,0,0,0-5.84,2.36,1.07,1.07,0,0,1-1.1-.4,5,5,0,0,1-1-1.48,4.32,4.32,0,0,1-.42-1.68.92.92,0,0,1,.6-1,59.32,59.32,0,0,1,9.57-1.15,28.26,28.26,0,0,1,2.89-4.14c.39-.38.94-.4,1.66-.07a4,4,0,0,1,1.72,1.47,1.36,1.36,0,0,1-.06,1.79l-.93,1a17.94,17.94,0,0,1,3.84.69,3.69,3.69,0,0,1,2.09,1.79,4.1,4.1,0,0,1,.43,2.35,1.87,1.87,0,0,1-.82,1.51c.17-1-.48-1.77-2-2.41A16,16,0,0,0,663.88,947.76Z" transform="translate(-194.87 -94.54)" style="fill:#fbae17"/><path d="M674.35,962a.48.48,0,0,1,.56.4,1.65,1.65,0,0,1,0,.91c-.08.31-.22.49-.42.53a8.61,8.61,0,0,1-1.82.07,8,8,0,0,1-2-.44c-.06.12-.13.25-.2.4a21.1,21.1,0,0,1-1.42,2.62,7,7,0,0,1-2.36,2.37,3.67,3.67,0,0,1-2.42.11,7.67,7.67,0,0,1-2.68-1.23,4.1,4.1,0,0,1-1.61-2,7.41,7.41,0,0,1,.07-3.4,14.83,14.83,0,0,1,1.25-3.42,8.81,8.81,0,0,1,1.64-2.36,4.59,4.59,0,0,1,.63-.52l.3-.22a9.46,9.46,0,0,1-.18-1.83,3.63,3.63,0,0,1,.4-1.73,2.65,2.65,0,0,1,2.38-1,6.42,6.42,0,0,1,3.46,1.06,4.53,4.53,0,0,1,2.06,3.32,11.64,11.64,0,0,1,0,3,28.08,28.08,0,0,1-.6,3,3.82,3.82,0,0,0,1.26.36A5.54,5.54,0,0,0,674.35,962Zm-10.77,4.84a7.24,7.24,0,0,0,2.44-2.26,15,15,0,0,0,1.4-2.8,6.32,6.32,0,0,1-2.28-2.58,6.42,6.42,0,0,0-.79,1.79,19.91,19.91,0,0,0-.78,3.11A6.08,6.08,0,0,0,663.58,966.85Zm4.49-7.49a6.26,6.26,0,0,0,.34-2,12.11,12.11,0,0,0-.12-2.13,3.72,3.72,0,0,0-.41-1.37C667,955.15,667.09,957,668.07,959.36Z" transform="translate(-194.87 -94.54)" style="fill:#fbae17"/><path d="M685.18,960.07a1.09,1.09,0,0,0,.24.58.82.82,0,0,0,.35.21.84.84,0,0,1,.21.13s.06.12,0,.24-.48.4-1.14.38a6.22,6.22,0,0,1-2-.42,1.81,1.81,0,0,1-1.19-1,9.4,9.4,0,0,1-.2-2.18v-1a29,29,0,0,0-3.83,5.34,27.18,27.18,0,0,0-2.57,6.65c-.15.39-.5.55-1.07.48a3.64,3.64,0,0,1-1.6-.62,1.31,1.31,0,0,1-.72-1.16,51.59,51.59,0,0,1,2.72-9.73,54,54,0,0,1,4.1-8.62.93.93,0,0,1,.59-.44,1.48,1.48,0,0,1,.8.07c1.31.45,1.81,1.09,1.47,1.93-.23.52-.48,1.05-.76,1.59-.55,1.11-1.13,2.39-1.73,3.84l.34-.52.79-1.17.82-1.23.48-.71a1.47,1.47,0,0,1,.64-.6,1.36,1.36,0,0,1,.86.17l.87.33a6.2,6.2,0,0,1,1.37.58,1,1,0,0,1,.44.78,9.15,9.15,0,0,1-.12,1.61c0,.25-.07.52-.11.83A17.05,17.05,0,0,0,685.18,960.07Z" transform="translate(-194.87 -94.54)" style="fill:#fbae17"/><path d="M695.28,956.71a.69.69,0,0,1,.66-.32,1.12,1.12,0,0,1,.64.32.5.5,0,0,1,.16.56,39.41,39.41,0,0,1-2,3.56,40.53,40.53,0,0,1-2.83,4.09,8.77,8.77,0,0,1-2.76,2.49,2.76,2.76,0,0,1-1.72.09,3.66,3.66,0,0,1-1.66-.85,1.92,1.92,0,0,1-.68-1.56,24.32,24.32,0,0,1,1.21-5.29,29.45,29.45,0,0,1,2.48-5.76,1.28,1.28,0,0,1,1.29-.31,4,4,0,0,1,1.65.65c.49.34.64.71.47,1.13a46.38,46.38,0,0,0-2.66,6,5.37,5.37,0,0,0-.49,2.78q.38.85,2.1-1.26A47.35,47.35,0,0,0,695.28,956.71Zm-2.69-4.5a1.11,1.11,0,0,1-1,.44,3,3,0,0,1-1.29-.38c-.39-.23-.57-.49-.56-.79a13.15,13.15,0,0,1,.71-2.49,13.81,13.81,0,0,1,.77-1.75,1.41,1.41,0,0,1,1.36-.41,3.59,3.59,0,0,1,1.69.61c.48.33.63.71.44,1.13-.11.21-.26.49-.45.82s-.54,1-.84,1.5S692.82,951.85,692.59,952.21Z" transform="translate(-194.87 -94.54)" style="fill:#fbae17"/><path d="M711.09,957a.47.47,0,0,1,.47-.25,1.43,1.43,0,0,1,.65.2,2.41,2.41,0,0,1,.54.42c.14.14.19.26.16.34a38.92,38.92,0,0,1-3.35,5.57,14.09,14.09,0,0,1-4,4.1,3.09,3.09,0,0,1-1.81.16,5.2,5.2,0,0,1-1.88-.71,2.13,2.13,0,0,1-1-1.12,6.94,6.94,0,0,1,.12-2.59q.31-1.61.75-3.09c.29-1,.5-1.69.65-2.1,0,0,0-.08,0-.11a27,27,0,0,0-4,5,51.62,51.62,0,0,0-3.23,5.45,1.18,1.18,0,0,1-1.24.41,4.25,4.25,0,0,1-1.69-.58c-.52-.31-.75-.64-.69-1q.56-2.21,2-6.33a54.49,54.49,0,0,1,3.37-7.87,1.15,1.15,0,0,1,1-.61,2.73,2.73,0,0,1,1.3.31,3.24,3.24,0,0,1,1,.77c.26.3.35.56.26.79-.58,1.16-1.17,2.27-1.76,3.32a17.6,17.6,0,0,0-1.19,2.37,34.07,34.07,0,0,1,3-3.77,16.62,16.62,0,0,1,3.12-2.7,2.21,2.21,0,0,1,1.74-.08,3.93,3.93,0,0,1,1.63,1,1.32,1.32,0,0,1,.41,1.38c-.11.28-.24.59-.39.94q-.87,2-1.81,4.44a14,14,0,0,0-1,4.15,13.78,13.78,0,0,0,3.6-3.26A29.88,29.88,0,0,0,711.09,957Z" transform="translate(-194.87 -94.54)" style="fill:#fbae17"/><path d="M726.4,957.06c.39-.19.63-.12.73.21a2,2,0,0,1-.16,1.25,2.89,2.89,0,0,1-1,1.27,44,44,0,0,0-5.82,4.11,3,3,0,0,0-.87,1.1q-1.12,2.41-2.79,5.33a43.66,43.66,0,0,1-3.46,5.24,8.52,8.52,0,0,1-3.39,2.9,3.82,3.82,0,0,1-2.22-.32,4.68,4.68,0,0,1-2.23-1.69,2.44,2.44,0,0,1,.1-2.79,21.66,21.66,0,0,1,3.53-4.08c1.49-1.38,2.9-2.62,4.25-3.72a17.17,17.17,0,0,0,2.87-2.65c.29-.59.57-1.25.86-2s.55-1.38.76-2q-1.19,1.54-2.91,3.4a20.11,20.11,0,0,1-3.27,2.94,2.23,2.23,0,0,1-1.71.08,4.53,4.53,0,0,1-1.81-1,1.81,1.81,0,0,1-.7-1.53,18.68,18.68,0,0,1,2.86-6.45,20,20,0,0,1,4.61-5,2.69,2.69,0,0,1,2.37-.59,6.1,6.1,0,0,1,2,1.16l.41.3a4.28,4.28,0,0,0,.26-.37l.39-.55a2,2,0,0,1,.33-.38,1.65,1.65,0,0,1,1.3-.23,3.31,3.31,0,0,1,1.37.58,1,1,0,0,1,.52,1,53.22,53.22,0,0,1-1.61,5.74c-.25.76-.45,1.44-.63,2Q724.3,958.28,726.4,957.06Zm-19,18.67a15.71,15.71,0,0,0,2.82-2.83,33.46,33.46,0,0,0,2.5-3.62q-1.67,1.59-3.39,3.52A7.92,7.92,0,0,0,707.35,975.73Zm10-20.06a3.74,3.74,0,0,0,.4-1,.85.85,0,0,0-.09-.77c-.14-.14-.44,0-.9.37a19.41,19.41,0,0,0-3.25,3.75,18.13,18.13,0,0,0-2,3.77c0,.26,0,.38.2.37.4-.06,1.16-.7,2.27-1.91A36.88,36.88,0,0,0,717.37,955.67Z" transform="translate(-194.87 -94.54)" style="fill:#fbae17"/><path d="M473.58,864.62c0,17.21-14.44,33.21-36.24,33.21H390.91V789h35.77c19.7,0,34.15,13.29,34.15,28.27,0,11.21-7.43,19.24-11.88,19.24C460.56,836.55,473.58,848.22,473.58,864.62ZM425.8,814.14h-7.09v17.08h6.89c6.27,0,11-3.11,11-8.71C436.6,817.25,432,814.14,425.8,814.14Zm20.11,47c0-6.34-4.59-10.19-12.75-10.19l-14.45-.07v20.65H433C439.57,871.57,445.91,868.33,445.91,861.18Z" transform="translate(-194.87 -94.54)" style="fill:#fbae17"/><path d="M514.42,815.9v15.18H549v24.09H514.42v15.59h42v27.07H485.87V789H556.4V815.9Z" transform="translate(-194.87 -94.54)" style="fill:#fbae17"/><path d="M689.09,788V897.83H660.2V854.7L630.91,896h-.2L601.35,854.7v43.13H572.46V788h11.61l46.7,64,46.71-64Z" transform="translate(-194.87 -94.54)" style="fill:#fbae17"/><rect x="238.49" y="822.25" width="213.28" height="9.28" rx="4.64" style="fill:#603813;stroke:#603813;stroke-miterlimit:10;stroke-width:5px"/><circle cx="592.13" cy="272.46" r="8" style="fill:#603813"/><circle cx="543.13" cy="299.46" r="8" style="fill:#603813"/><circle cx="489.13" cy="326.46" r="8" style="fill:#603813"/><circle cx="201.13" cy="326.46" r="8" style="fill:#603813"/><circle cx="148.13" cy="299.46" r="8" style="fill:#603813"/><circle cx="98.13" cy="275.46" r="8" style="fill:#603813"/><circle cx="54.13" cy="257.46" r="8" style="fill:#603813"/><circle cx="88.13" cy="206.46" r="8" style="fill:#603813"/><circle cx="637.13" cy="257.46" r="8" style="fill:#603813"/><circle cx="602.13" cy="206.46" r="8" style="fill:#603813"/></svg>