<svg id="Livello_1" data-name="Livello 1" xmlns="http://www.w3.org/2000/svg" viewBox="0 0 529.13 365.78"><title>Logo YT Custom 2</title><path d="M678.33,392.31c-.77-33.7-2.53-67.38-9.29-100.54-6.25-30.64-27.1-51.12-57.2-55.22-18.52-2.52-37.2-4.78-55.87-5.28-60.09-1.62-120.2-3.22-180.31-3.16-42.47,0-85,2.42-127.4,4.47-17.09.83-34.4,2-50.34,9.5-27.54,12.85-39.57,35.65-43,64.92-4.7,39.71-5.78,79.51-5.36,119.4.35,33.71,1.37,67.42,7.83,100.65,6.05,31.1,28.35,53,59.73,58.13A371.46,371.46,0,0,0,263,590.25c49.94,1.92,99.72,2.18,149.68,3.64,0-.54.21-.16.23-.7,24,0,48,.79,72-.17q59.38-2.38,118.67-6.72c31.25-2.32,61.5-24.08,67.21-62.89C677.21,479.86,679.33,436.18,678.33,392.31Zm-280-87.88c21.56-26.06,50.77-37.48,65.25-25.51,7.37,6.09,9.49,17.07,7,29.81,13.1-3.29,29.31-4.54,35.76,2.73,12.48,14.05,2.1,43.64-23.19,66.11s-54.89,28.31-68.38,15.23c-3.86-3.75-5.49-7.34-5.23-16.05-9.46,2.45-18,1.52-24-3.44C371,361.33,376.76,330.49,398.31,304.43ZM218.87,294.9v17H208.5v-17l-12.14-22.36H208.2l5.5,11.4,5.47-11.4H231Zm13.7-22.36h29.35v9.76h-9.43v29.59H242V282.3h-9.45Zm41.74,232a35.35,35.35,0,1,1,35.35-35.35A35.36,35.36,0,0,1,274.31,504.53Zm141.4,21.3c-54.23,0-98.2-25.36-98.2-56.65s44-56.65,98.2-56.65,98.2,25.36,98.2,56.65S470,525.83,415.71,525.83Zm128.92-47.17-16.42,9.48V450.22l16.42,9.48,16.42,9.48Z" transform="translate(-149.44 -228.11)" style="fill:#fbae17"/></svg>