<svg id="Livello_1" data-name="Livello 1" xmlns="http://www.w3.org/2000/svg" viewBox="0 0 990.29 481.41"><defs><style>.cls-1{fill:#fbae17;}.cls-2{fill:#603813;stroke:#603813;stroke-miterlimit:10;stroke-width:5px;}</style></defs><path class="cls-1" d="M74.65,697.66a77,77,0,0,0-10.32,9.76,45.79,45.79,0,0,0-6.39,9.09q-2,4-1.35,6.4t4.71,1.79a3.5,3.5,0,0,1-2.91,2.92,9.14,9.14,0,0,1-5.22-.45,11.55,11.55,0,0,1-4.88-3.54,8.82,8.82,0,0,1-1.91-6.45A17.61,17.61,0,0,1,49,709.67a51.68,51.68,0,0,1,6.23-8.42A76.39,76.39,0,0,1,63.94,693a83.88,83.88,0,0,1,10-7.07,50.62,50.62,0,0,1,10.32-4.77,26.53,26.53,0,0,1,9.54-1.46,15.43,15.43,0,0,1,6.73,2.08,20.06,20.06,0,0,1,5.55,4.6,16.48,16.48,0,0,1,3.26,6,9.42,9.42,0,0,1-.17,6.17,24.24,24.24,0,0,1-3,5.55,51.69,51.69,0,0,1-4,4.88,57.28,57.28,0,0,1-4.1,4c-1.34,1.2-2.47,2.17-3.36,2.92a13.29,13.29,0,0,1,6.45,2.64,17.7,17.7,0,0,1,5,5.33c2.77-1,5.29-1.87,7.57-2.7a29.17,29.17,0,0,1,7.35-1.57c.45-.07.77.21,1,.84a6.81,6.81,0,0,1,.23,2.25,5.85,5.85,0,0,1-.62,2.41A2.32,2.32,0,0,1,120,726.5a58.07,58.07,0,0,0-7.07,2,44.41,44.41,0,0,0-5.61,2.36,35.3,35.3,0,0,1-3.64,11.33A74.87,74.87,0,0,1,96.25,754a86.51,86.51,0,0,1-10,11,78.44,78.44,0,0,1-11.67,9,25.89,25.89,0,0,1-10.43,4.32q-4.71.61-7.35-1.23a6.68,6.68,0,0,1-2.69-5.78q-.06-3.93,3.42-9.31a71.63,71.63,0,0,1,7.85-9.65,125,125,0,0,1,10-9.37q5.27-4.42,10.6-8.13a102.42,102.42,0,0,1,9.7-6.06,2,2,0,0,0,.17-.9,6.56,6.56,0,0,0-.11-1.68,6.69,6.69,0,0,0-.62-1.79,2.46,2.46,0,0,0-1.34-1.24,6.12,6.12,0,0,0-4.38.34,25.77,25.77,0,0,0-5.44,3,51.56,51.56,0,0,0-5.72,4.71c-1.91,1.79-3.7,3.55-5.39,5.27s-3.16,3.33-4.43,4.83-2.17,2.62-2.69,3.36c-1,1.27-1.93,1.91-2.86,1.91a6.35,6.35,0,0,1-2.64-.56,6,6,0,0,1-2.47-2.19,3.62,3.62,0,0,1-.22-3.31q1.23-3.93,3.42-9.82t4.66-12Q68,712.69,70.5,707T74.65,697.66Zm-11.21,71.8a22.59,22.59,0,0,0,4.48-2.86q2.7-2.07,5.73-4.88t6.17-6q3.14-3.19,5.77-6.34c1.76-2.09,3.26-4,4.49-5.83a19.21,19.21,0,0,0,2.41-4.38,94.89,94.89,0,0,0-8,5.84,119.6,119.6,0,0,0-9,8,81.13,81.13,0,0,0-7.74,8.64A22.88,22.88,0,0,0,63.44,769.46Zm10.77-45.1q1.33-1.46,4.37-4.37c2-2,4.21-4.11,6.56-6.51s4.7-4.92,7-7.57A75.11,75.11,0,0,0,98,698.39a19.27,19.27,0,0,0,3-6.34,3.51,3.51,0,0,0-1.62-4.15,4.63,4.63,0,0,0-3.14-.39,26.74,26.74,0,0,0-4.72,1.12,41.17,41.17,0,0,0-5.33,2.19,36.49,36.49,0,0,0-5.1,3,7,7,0,0,1,1.68.56,6.45,6.45,0,0,1,1.8,1.18,4.35,4.35,0,0,1,1.12,1.62,2.22,2.22,0,0,1-.11,1.8q-1.47,2.81-3,6.11t-3,6.73c-1,2.29-1.93,4.51-2.86,6.68Z" transform="translate(-46.36 -303.82)"/><path class="cls-1" d="M147.69,726.61a1.31,1.31,0,0,1,1.18-.34,3.56,3.56,0,0,1,1.4.56,2.75,2.75,0,0,1,1,1.18,1.57,1.57,0,0,1-.11,1.51,42.78,42.78,0,0,1-4.1,8.7,58,58,0,0,1-6,8.13,68.14,68.14,0,0,1-7.07,7,47.69,47.69,0,0,1-7.29,5.16,6,6,0,0,1-3.59.67,13.27,13.27,0,0,1-3.81-1.06,18.84,18.84,0,0,1-3.48-2,19.77,19.77,0,0,1-2.58-2.13,9.17,9.17,0,0,1-2.36-6,27.44,27.44,0,0,1,.84-8.13,51.93,51.93,0,0,1,3.2-9.09,70.46,70.46,0,0,1,4.77-8.86,51.12,51.12,0,0,1,5.55-7.3,24.27,24.27,0,0,1,5.5-4.6,7.38,7.38,0,0,1,2.92-.84,7.45,7.45,0,0,1,2.8.45,14.54,14.54,0,0,1,3,1.46c1,.64,2.15,1.33,3.43,2.07q2.69,1.7,2.46,4.27a18.32,18.32,0,0,1-1,4.37,40.69,40.69,0,0,1-2.69,6.57,32.53,32.53,0,0,1-4.27,6.39,12.43,12.43,0,0,1-5.66,4,10.5,10.5,0,0,1-3.93.34,13.69,13.69,0,0,1-3.7-1.12,21.33,21.33,0,0,0-1.23,3.31,29.56,29.56,0,0,0-1,4.43,18.9,18.9,0,0,0-.23,4c.08,1.16.52,1.82,1.35,2,1.19.23,2.9-.41,5.1-1.9a46.4,46.4,0,0,0,6.9-5.89,82.47,82.47,0,0,0,7.07-8.25A54.62,54.62,0,0,0,147.69,726.61Zm-11.22-8.3a15.47,15.47,0,0,0-2.86,3q-1.74,2.19-3.37,4.65t-2.8,4.6a8.6,8.6,0,0,0-1.18,2.7A4.36,4.36,0,0,0,130,732a16.12,16.12,0,0,0,3.14-4,25.27,25.27,0,0,0,2.25-5.1A26.29,26.29,0,0,0,136.47,718.31Z" transform="translate(-46.36 -303.82)"/><path class="cls-1" d="M178.77,726.61a1.29,1.29,0,0,1,1.17-.34,3.54,3.54,0,0,1,1.41.56,2.89,2.89,0,0,1,1,1.18,1.58,1.58,0,0,1-.12,1.51,42.73,42.73,0,0,1-4.09,8.7,58,58,0,0,1-6,8.13,69.15,69.15,0,0,1-7.07,7,47.69,47.69,0,0,1-7.29,5.16,6,6,0,0,1-3.59.67,13.24,13.24,0,0,1-3.82-1.06,19.52,19.52,0,0,1-3.48-2,21.22,21.22,0,0,1-2.58-2.13,9.17,9.17,0,0,1-2.35-6,27.44,27.44,0,0,1,.84-8.13,51.93,51.93,0,0,1,3.2-9.09,71.74,71.74,0,0,1,4.76-8.86,50.43,50.43,0,0,1,5.56-7.3,23.85,23.85,0,0,1,5.5-4.6,7.29,7.29,0,0,1,2.91-.84,7.5,7.5,0,0,1,2.81.45,14.54,14.54,0,0,1,3,1.46q1.51,1,3.42,2.07,2.7,1.7,2.47,4.27a18.32,18.32,0,0,1-.95,4.37,40.78,40.78,0,0,1-2.7,6.57,32.93,32.93,0,0,1-4.26,6.39,12.4,12.4,0,0,1-5.67,4,10.43,10.43,0,0,1-3.92.34,13.58,13.58,0,0,1-3.7-1.12,22.24,22.24,0,0,0-1.24,3.31,30.85,30.85,0,0,0-1,4.43,18.83,18.83,0,0,0-.22,4c.07,1.16.52,1.82,1.34,2,1.2.23,2.9-.41,5.11-1.9a47.43,47.43,0,0,0,6.9-5.89,83.8,83.8,0,0,0,7.07-8.25A56,56,0,0,0,178.77,726.61Zm-11.22-8.3a15.18,15.18,0,0,0-2.86,3c-1.16,1.46-2.29,3-3.37,4.65s-2,3.18-2.8,4.6a8.6,8.6,0,0,0-1.18,2.7A4.37,4.37,0,0,0,161.1,732a16.6,16.6,0,0,0,3.14-4,25.23,25.23,0,0,0,2.24-5.1A26.43,26.43,0,0,0,167.55,718.31Z" transform="translate(-46.36 -303.82)"/><path class="cls-1" d="M285,739A37.33,37.33,0,0,1,279,747.7,76.92,76.92,0,0,1,269,757a82.66,82.66,0,0,1-12.23,8A55.65,55.65,0,0,1,244,770.14a27.13,27.13,0,0,1-11.78.5,14.89,14.89,0,0,1-9.2-5.89,14.56,14.56,0,0,1-3.26-9,24.68,24.68,0,0,1,2-9.54,42.64,42.64,0,0,1,6-10,90.31,90.31,0,0,1,7.74-8.75,72.68,72.68,0,0,1,7.23-6.34,23.82,23.82,0,0,1,4.55-2.92c-1-.89-2-1.87-3.09-2.91a20.75,20.75,0,0,1-2.86-3.43,11.28,11.28,0,0,1-1.68-4.09,9.57,9.57,0,0,1,.45-4.94,19.84,19.84,0,0,1,3.64-6.11,53.91,53.91,0,0,1,5.39-5.5,67,67,0,0,1,5.39-4.32c1.68-1.19,2.89-2,3.64-2.47a39.62,39.62,0,0,1,7.63-3.53,17.32,17.32,0,0,1,6-.95,10.27,10.27,0,0,1,4.54,1.17,13.35,13.35,0,0,1,3.42,2.64,11.14,11.14,0,0,1,2.47,5.11,12.72,12.72,0,0,1-.28,5.89,18.93,18.93,0,0,1-3.2,6.17,29.5,29.5,0,0,1-6.17,5.94A3.33,3.33,0,0,1,269,707a10.86,10.86,0,0,1-3.7-2.52,6.33,6.33,0,0,1-1.85-3.42c-.19-1.2.51-2.1,2.08-2.69a13.93,13.93,0,0,0,3.19-1.69,21.38,21.38,0,0,0,3.26-2.63,10.27,10.27,0,0,0,2.07-2.86,2.05,2.05,0,0,0-.11-2.36c-.3-.37-1.18-.28-2.64.28a36.21,36.21,0,0,0-5.16,2.58c-2,1.16-4.06,2.52-6.22,4.09a58.36,58.36,0,0,0-6,5,32.59,32.59,0,0,0-4.48,5.21,7.26,7.26,0,0,0-1.52,4.72,2.38,2.38,0,0,0,1.24,2.13,5.92,5.92,0,0,0,2.46.61,10.1,10.1,0,0,0,2.64-.22l1.74-.39a4.12,4.12,0,0,1,3.93,1.06,13.5,13.5,0,0,1,3.08,3.76,8.94,8.94,0,0,1,1.24,4c0,1.27-.55,2-1.74,2a15.46,15.46,0,0,0-4.94,2.08,59.4,59.4,0,0,0-7,4.76q-3.76,2.93-7.63,6.57a80.65,80.65,0,0,0-7,7.4,38,38,0,0,0-4.82,7.35,9.94,9.94,0,0,0-1.18,6.28,4.25,4.25,0,0,0,4,3.82,19.88,19.88,0,0,0,8.47-1.18,63.89,63.89,0,0,0,11-5,98.14,98.14,0,0,0,11.84-7.8A95.91,95.91,0,0,0,276,738.44a50.84,50.84,0,0,0,7.85-10.26c.53-1,1-1.18,1.41-.62a5.6,5.6,0,0,1,.78,2.75,24.84,24.84,0,0,1-.05,4.37A13.88,13.88,0,0,1,285,739Z" transform="translate(-46.36 -303.82)"/><path class="cls-1" d="M328.09,728.18a1,1,0,0,1,1.17-.68,5,5,0,0,1,1.69.57,5.27,5.27,0,0,1,1.4,1.06c.37.41.52.73.45,1q-1.57,3.25-3.87,7.19T324,744.84a65.77,65.77,0,0,1-5.38,6.56,20.34,20.34,0,0,1-5.11,4.15,6.61,6.61,0,0,1-3.59.62,15.57,15.57,0,0,1-3.93-.84,12,12,0,0,1-3.36-1.8,4,4,0,0,1-1.68-2.24,14.66,14.66,0,0,1,0-5.16,55.48,55.48,0,0,1,1.29-6.51q.84-3.25,1.68-5.89c.56-1.76.95-2.9,1.18-3.42a37.44,37.44,0,0,0-5,5.5q-2.81,3.59-5.55,7.63t-5.05,8c-1.54,2.62-2.71,4.79-3.54,6.51a2.42,2.42,0,0,1-2.24,1.06,9.65,9.65,0,0,1-3.37-.5,9.8,9.8,0,0,1-3-1.57c-.86-.67-1.18-1.35-.95-2,.45-1.8,1.12-4.17,2-7.13s1.94-6.17,3.14-9.64,2.54-7.05,4-10.72a86.39,86.39,0,0,1,4.93-10.21,2.65,2.65,0,0,1,2.53-1.57,8.57,8.57,0,0,1,6.17,2.81c.71.82.95,1.53.73,2.13q-1.12,2.36-2.42,4.77t-2.46,4.48c-.79,1.39-1.46,2.6-2,3.65a10.74,10.74,0,0,0-1,2.13q1.8-2.58,3.87-5.16t4.15-4.82a47.86,47.86,0,0,1,4.21-4,33.87,33.87,0,0,1,4.15-3,4.84,4.84,0,0,1,3.31-.45,10.44,10.44,0,0,1,3.65,1.35,8.2,8.2,0,0,1,2.63,2.41,2.77,2.77,0,0,1,.4,2.75c-.6,1.49-1.39,3.35-2.36,5.55s-1.91,4.53-2.8,7-1.69,4.77-2.36,7a20.6,20.6,0,0,0-1,5.72,27,27,0,0,0,4.6-3.48,48.73,48.73,0,0,0,4.88-5.16,76.35,76.35,0,0,0,4.66-6.28C325.54,732.67,326.89,730.42,328.09,728.18Z" transform="translate(-46.36 -303.82)"/><path class="cls-1" d="M344.91,709.55a5.59,5.59,0,0,1,4.55.17,11,11,0,0,1,4.43,3.54,16.17,16.17,0,0,1,2.8,6,13.66,13.66,0,0,1-.22,7.35,68.13,68.13,0,0,1-3.59,9,110.27,110.27,0,0,1-5.22,9.76,97.14,97.14,0,0,1-5.83,8.69,28.19,28.19,0,0,1-5.44,5.73A6.74,6.74,0,0,1,332.8,761a14.62,14.62,0,0,1-4.43-.33,10.5,10.5,0,0,1-3.87-1.74,4.74,4.74,0,0,1-2-3,22.19,22.19,0,0,1-.12-5.16q.22-3.15.84-6.79c.42-2.43.94-4.88,1.58-7.35s1.27-4.77,1.9-6.9,1.25-3.92,1.85-5.38a9.83,9.83,0,0,1,1.57-2.86,2.76,2.76,0,0,1,2.36-.62,9.51,9.51,0,0,1,3,.84A9.22,9.22,0,0,1,338,723.3c.67.63.89,1.21.67,1.74a42.33,42.33,0,0,0-2,5.44c-.82,2.58-1.63,5.33-2.41,8.24s-1.46,5.73-2,8.42a25.58,25.58,0,0,0-.73,5.94c.37-.07,1.27-1,2.69-2.69a72.29,72.29,0,0,0,4.71-6.56,101.18,101.18,0,0,0,5.11-8.92,49.66,49.66,0,0,0,3.81-9.76,24.75,24.75,0,0,0,.85-9A9.24,9.24,0,0,0,344.91,709.55Z" transform="translate(-46.36 -303.82)"/><path class="cls-1" d="M406.17,706.64a35.9,35.9,0,0,1,10.66,7.51q3.69,4.15,1.68,12.68c-.38,1.27-1,2.92-1.8,4.94s-1.79,4.34-2.91,7-2.08,5-3.09,7.46-2,5.07-3.08,7.69a62.09,62.09,0,0,0-2.25,7.24,41,41,0,0,0-1,6.11c-.07,3.66,1.31,5.61,4.15,5.83-1.19,1.72-3.1,2.25-5.72,1.57a11.52,11.52,0,0,1-7.18-4.71q-3.48-3.81-1.79-10.43,1.35-4.26,3.31-9.15T401.68,740c1.05-2.25,2-4.3,2.75-6.17s1.48-3.55,2.07-5q2.37-5.94,1.69-10-.9-4.14-6.51-6-.78,10.54-9.31,24.9t-18.74,19.64a10.36,10.36,0,0,1-6.28.11,36.16,36.16,0,0,1-3.53-1.24,16.5,16.5,0,0,1-3.09-1.68,8.07,8.07,0,0,1-3.59-4.94,18.46,18.46,0,0,1,.17-4.65q.39-2.75,1.29-6.45c.75-2.47,1.51-4.9,2.3-7.3s1.7-4.78,2.75-7.17q2.58-6.85,4.93-9.88,1.35-1.56,4-.9a9.32,9.32,0,0,1,4.83,2.25c1.57,1.12,2.05,2.32,1.46,3.59a101.37,101.37,0,0,0-5.28,10.21,86,86,0,0,0-3.47,9.09q-2.48,8.52-.45,9.87,3,.9,7.63-3.59a70.86,70.86,0,0,0,9.2-11.67,59,59,0,0,0,3.75-7.24,48.59,48.59,0,0,0,2.42-7q1.68-6.74-2.14-10a2.62,2.62,0,0,1-.67-3,9.53,9.53,0,0,1,2.69-3.7,10.08,10.08,0,0,1,3.59-2.36c1.35-.52,2.28-.3,2.81.67a11.62,11.62,0,0,0,2.24,3,8.57,8.57,0,0,0,1.85,1.52C403.94,705.35,405,706,406.17,706.64Zm-24.35,2.47a2.44,2.44,0,0,1-1.34.84,5.6,5.6,0,0,1-1.8,0c-.67-.22-1.33-.46-2-.73a11.55,11.55,0,0,1-1.85-.95A3,3,0,0,1,373.3,706c.37-1,.74-2.07,1.12-3.08s.82-2.11,1.35-3.31a25.69,25.69,0,0,1,2.35-4.94q1.23-1.23,3.93-.78a20.57,20.57,0,0,1,2.47.84,6.47,6.47,0,0,1,2.13,1.4c1.34.83,1.83,1.8,1.46,2.92l-1.29,2c-.49.75-1,1.64-1.63,2.69A60.37,60.37,0,0,0,381.82,709.11Z" transform="translate(-46.36 -303.82)"/><path class="cls-1" d="M504.45,706.75q3.24-1.68,6.05,1.68a9.57,9.57,0,0,1,2.58,3.7,5,5,0,0,1-.67,3.93q-.78,1.58-1.91,4.38c-.75,1.87-1.6,4.11-2.58,6.73s-2,5.29-2.91,8-1.8,5.59-2.7,8.58a56.12,56.12,0,0,0-2.91,15.37q-.22,6.51,3.92,7.18-.78,2.13-4.37,1.46a10.78,10.78,0,0,1-6.51-3.93q-3-2.79-3-8.3a64.51,64.51,0,0,1,1.35-8.47,96.8,96.8,0,0,1,2.69-9.59q3.26-10,5.39-14.92-2.25,2.25-4.66,5.16a55.67,55.67,0,0,0-4.77,6.84q-2.46,3.82-4.43,7.58a80.66,80.66,0,0,0-3.53,7.68c-.23.6-.94.79-2.14.56a6.29,6.29,0,0,1-3.58-1.23,3.38,3.38,0,0,1-1.8-2.81,37.33,37.33,0,0,1,1-6.84c.37-1.57.75-3.1,1.12-4.6s.75-3,1.12-4.49.71-2.69,1-3.59l.68-2a29.44,29.44,0,0,0-3.59,4.66c-1.35,2.06-2.92,4.65-4.72,7.8s-3.36,6.09-4.93,9.08-3.07,6-4.49,9c-.45.82-1.57,1.12-3.37.9a13.9,13.9,0,0,1-4.93-1.8c-1.42-.82-2.06-1.87-1.91-3.14l.62-1.52c.26-.63.58-1.36.95-2.18.82-2,1.65-4.06,2.47-6.34s1.72-4.81,2.69-7.58A46.81,46.81,0,0,0,460.24,719q-.45-3.37-2.91-3.7a15.56,15.56,0,0,0-6.17.11,21.39,21.39,0,0,0-6.62,1.79q7.17,2.13,7.18,9.88t-4.38,17.39q-4.15,9.64-9.54,12a17.06,17.06,0,0,1-11.33.45,10.83,10.83,0,0,1-7.85-8.19,29.24,29.24,0,0,1,1.68-12.23,45.93,45.93,0,0,1,5.16-11.33,3.6,3.6,0,0,1,1.46-.84,3.29,3.29,0,0,1,2.13.17,9.89,9.89,0,0,1,4.27,2.35c1.12,1.12,1.42,2.17.89,3.14s-1,1.74-1.57,2.75a34.1,34.1,0,0,0-1.79,3.54,31.32,31.32,0,0,0-1.68,4c-.45,1.35-.86,2.74-1.24,4.16q-.9,4.37,0,6.39a1.73,1.73,0,0,0,1.8.9c.67-.08,1.72-.82,3.14-2.25a40.29,40.29,0,0,0,7.63-14.36q2.24-8,.78-12c-.89-2.92-3.33-3-7.29-.22a3.62,3.62,0,0,1-3.48.22,9.27,9.27,0,0,1-1.62-1,9.16,9.16,0,0,1-3.31-4.94,1.82,1.82,0,0,1,1-2.24,2.82,2.82,0,0,1,.67-.34q.33-.11.9-.33a78.55,78.55,0,0,1,15.93-5q10.43-2.25,18.4,2.58,6.06,4.94,6.05,10.88c-.15,2-.37,3.83-.67,5.67a21.54,21.54,0,0,1-1.46,5.1c.38-.6.77-1.27,1.18-2s.88-1.53,1.4-2.35c1.13-2,2.3-3.91,3.54-5.89s2.52-4,3.87-6a44,44,0,0,1,3.59-5.33,30.25,30.25,0,0,1,2.91-3.19,3.77,3.77,0,0,1,3.48-.12,7.45,7.45,0,0,1,3.7,2.14,3.94,3.94,0,0,1,1.57,3.14,7.34,7.34,0,0,1-.44,1.9,17.52,17.52,0,0,0-.62,1.69,17.79,17.79,0,0,1-.73,1.9c-.22.6-.45,1.24-.67,1.91s-.45,1.35-.68,2a20.51,20.51,0,0,0-1,3.26,4.76,4.76,0,0,0-.33,1.12V728a14.59,14.59,0,0,0,1.79-2.58q1.57-2.24,3.48-4.82l4.15-5.61c1.57-1.94,3-3.61,4.32-5A25.08,25.08,0,0,1,504.45,706.75Z" transform="translate(-46.36 -303.82)"/><path class="cls-1" d="M545.06,726.61a1.29,1.29,0,0,1,1.17-.34,3.54,3.54,0,0,1,1.41.56,2.82,2.82,0,0,1,1,1.18,1.58,1.58,0,0,1-.12,1.51,42.2,42.2,0,0,1-4.09,8.7,58,58,0,0,1-6,8.13,69.15,69.15,0,0,1-7.07,7,47.69,47.69,0,0,1-7.29,5.16,6,6,0,0,1-3.59.67,13.24,13.24,0,0,1-3.82-1.06,19.52,19.52,0,0,1-3.48-2,21.22,21.22,0,0,1-2.58-2.13,9.17,9.17,0,0,1-2.35-6,27.44,27.44,0,0,1,.84-8.13,51.93,51.93,0,0,1,3.2-9.09,71.74,71.74,0,0,1,4.76-8.86,50.43,50.43,0,0,1,5.56-7.3,23.85,23.85,0,0,1,5.5-4.6,7.33,7.33,0,0,1,2.91-.84,7.5,7.5,0,0,1,2.81.45,14.54,14.54,0,0,1,3,1.46q1.52,1,3.42,2.07,2.7,1.7,2.47,4.27a18.32,18.32,0,0,1-1,4.37,40.78,40.78,0,0,1-2.7,6.57,32.93,32.93,0,0,1-4.26,6.39,12.43,12.43,0,0,1-5.66,4,10.5,10.5,0,0,1-3.93.34,13.58,13.58,0,0,1-3.7-1.12,22.24,22.24,0,0,0-1.24,3.31,30.85,30.85,0,0,0-1,4.43,18.83,18.83,0,0,0-.22,4c.07,1.16.52,1.82,1.34,2,1.2.23,2.9-.41,5.11-1.9a47.43,47.43,0,0,0,6.9-5.89,83.8,83.8,0,0,0,7.07-8.25A56,56,0,0,0,545.06,726.61Zm-11.22-8.3a15.47,15.47,0,0,0-2.86,3c-1.16,1.46-2.29,3-3.37,4.65s-2,3.18-2.8,4.6a8.6,8.6,0,0,0-1.18,2.7,4.37,4.37,0,0,0,3.76-1.24,16.36,16.36,0,0,0,3.14-4,25.23,25.23,0,0,0,2.24-5.1A26.43,26.43,0,0,0,533.84,718.31Z" transform="translate(-46.36 -303.82)"/><path class="cls-1" d="M587.35,728.18a1,1,0,0,1,1.18-.68,5.07,5.07,0,0,1,1.68.57,5.32,5.32,0,0,1,1.41,1.06c.37.41.52.73.44,1-1,2.17-2.34,4.57-3.87,7.19s-3.18,5.14-4.93,7.57a65.81,65.81,0,0,1-5.39,6.56,20.15,20.15,0,0,1-5.1,4.15,6.63,6.63,0,0,1-3.59.62,15.48,15.48,0,0,1-3.93-.84,12.2,12.2,0,0,1-3.37-1.8,4,4,0,0,1-1.68-2.24,14.66,14.66,0,0,1,0-5.16,57.61,57.61,0,0,1,1.29-6.51q.84-3.25,1.68-5.89c.57-1.76,1-2.9,1.18-3.42a38,38,0,0,0-5.05,5.5q-2.81,3.59-5.55,7.63t-5,8q-2.3,3.93-3.53,6.51a2.43,2.43,0,0,1-2.25,1.06,9.56,9.56,0,0,1-3.36-.5,9.8,9.8,0,0,1-3-1.57c-.86-.67-1.18-1.35-1-2,.45-1.8,1.12-4.17,2-7.13s2-6.17,3.14-9.64,2.55-7.05,4-10.72a86.41,86.41,0,0,1,4.94-10.21,2.64,2.64,0,0,1,2.52-1.57,8.57,8.57,0,0,1,6.17,2.81c.71.82,1,1.53.73,2.13q-1.12,2.36-2.41,4.77t-2.47,4.48c-.78,1.39-1.46,2.6-2,3.65a9.93,9.93,0,0,0-.95,2.13q1.78-2.58,3.87-5.16t4.15-4.82a45.22,45.22,0,0,1,4.21-4,33.13,33.13,0,0,1,4.15-3,4.84,4.84,0,0,1,3.31-.45,10.39,10.39,0,0,1,3.64,1.35,8.35,8.35,0,0,1,2.64,2.41,2.74,2.74,0,0,1,.39,2.75c-.6,1.49-1.38,3.35-2.35,5.55s-1.91,4.53-2.81,7-1.68,4.77-2.35,7a20.23,20.23,0,0,0-1,5.72,27.4,27.4,0,0,0,4.6-3.48,49.77,49.77,0,0,0,4.88-5.16c1.6-1.94,3.15-4,4.65-6.28S586.15,730.42,587.35,728.18Z" transform="translate(-46.36 -303.82)"/><path class="cls-1" d="M615.85,696.88q4.71.9,7.29,1.68a8.38,8.38,0,0,1,3.92,2.47,18.41,18.41,0,0,1,1.46,2.8l.45,1.8c.15.6.26,1.16.34,1.68,0,1.12-.34,1.76-1,1.91-1.12-1.5-3.37-2.69-6.73-3.59Q613.93,704,610,704.17c-.6.9-1.2,1.79-1.79,2.69l-1.8,2.69a145,145,0,0,0-9.42,19.3,151.17,151.17,0,0,0-6.17,19.75q-2,9.52-1.24,15.37c.53,4.11,2.25,6.32,5.16,6.61-1.12,1-2.76,1.31-4.93,1q-2.93-.33-6.06-3.47-3.13-2.93-3.93-8.75a37.59,37.59,0,0,1,.62-10.27A102.68,102.68,0,0,1,584,735.69q2.47-7.52,5.56-14.69t6.67-14.14a6,6,0,0,1,.56-1.06,5.45,5.45,0,0,0,.56-1.07,11.85,11.85,0,0,0-1.4.11c-.56.08-1.18.19-1.85.34l-1.91.45a15.37,15.37,0,0,0-1.79.56,4.2,4.2,0,0,0-1.46.62,6,6,0,0,0-.79.61c-.44.75-.86,1-1.23.68a5.27,5.27,0,0,1-1.35-1.46,5,5,0,0,0-.56-1.07,6,6,0,0,1-.56-1.06,7.32,7.32,0,0,1-.33-1,3.5,3.5,0,0,0-.23-.68,2.36,2.36,0,0,1,.23-2.24,2.1,2.1,0,0,1,.67-.9c.3-.22.64-.45,1-.67a37.81,37.81,0,0,1,7.63-2l3.81-.45c1.2-.15,2.32-.3,3.37-.45h.78a5.54,5.54,0,0,0,1-.11,91.25,91.25,0,0,1,7.41-9.31,3.16,3.16,0,0,1,3.25-.56,8.21,8.21,0,0,1,3.82,2.13,7.22,7.22,0,0,1,2.24,3.14c.22,1,0,1.76-.56,2.13l-1.57,2C616.52,696,616.14,696.5,615.85,696.88Z" transform="translate(-46.36 -303.82)"/><path class="cls-1" d="M735.89,771.93a11.57,11.57,0,0,1-6.74,2.86,10.22,10.22,0,0,1-6.73-1.79,14,14,0,0,1-4.82-6.34q-1.8-4.26-1-10.77c.45-3.82,1.12-7.85,2-12.12s1.83-8.36,2.8-12.28,1.93-7.44,2.87-10.55,1.69-5.4,2.29-6.9c-.37.6-1.06,1.8-2.07,3.59s-2.15,3.87-3.42,6.23-2.64,4.9-4.1,7.63-2.8,5.37-4,7.91-2.3,4.86-3.19,7a27.26,27.26,0,0,0-1.69,4.83c-.15.52-.77.86-1.85,1a10,10,0,0,1-3.59-.23,9.13,9.13,0,0,1-3.53-1.63,4.3,4.3,0,0,1-1.69-3.42,20.64,20.64,0,0,1,.29-4.2q.39-2.75,1.06-6.23t1.57-7.24q.9-3.75,1.74-7.18c.56-2.28,1.07-4.33,1.52-6.17s.82-3.19,1.12-4.09q-4.16,6.62-7.86,13.74T690,739.73q-3.13,7.08-5.72,13.58T679.9,765.2c-.3.9-1.19,1.35-2.69,1.35a10.72,10.72,0,0,1-4.54-1.07,10.31,10.31,0,0,1-3.82-3,4.27,4.27,0,0,1-.5-4.49q2.58-6.16,4.54-11.22t4.26-11.44q2.31-6.4,4.49-13.07t3.82-13.07a103.45,103.45,0,0,0,2.3-11.39,22.42,22.42,0,0,0-.06-8q-.74-3-3.31-3a10.21,10.21,0,0,0-5.83,2.69,35.73,35.73,0,0,0-6.17,6.79A80.29,80.29,0,0,0,662,716.45,58.43,58.43,0,0,0,659.43,727a23.43,23.43,0,0,0,.17,8.81,5.3,5.3,0,0,0,3.42,3.87,6.31,6.31,0,0,0,5.67-1,4.89,4.89,0,0,1-2.42,2.86,10.78,10.78,0,0,1-4.48,1.46,15.5,15.5,0,0,1-5.22-.33,9.7,9.7,0,0,1-4.71-2.58,11.74,11.74,0,0,1-3-5.33,18.82,18.82,0,0,1,.06-8.53,78.71,78.71,0,0,1,4.88-15.48,72.11,72.11,0,0,1,8.3-14.7A49.75,49.75,0,0,1,673,685.15a21.34,21.34,0,0,1,12.62-4.32c3.22,0,5.71.85,7.47,2.53a12.58,12.58,0,0,1,3.53,6.39,29.84,29.84,0,0,1,.56,8.75,70.89,70.89,0,0,1-1.35,9.76c-.67,3.26-1.45,6.34-2.35,9.26s-1.69,5.35-2.36,7.29q1.8-3.59,4.77-9T702,705q3.13-5.44,6-10a77.4,77.4,0,0,1,4.54-6.73,2.62,2.62,0,0,1,2.86-.67,10.45,10.45,0,0,1,3.82,1.79,12.16,12.16,0,0,1,3,3c.75,1.12.9,2.06.45,2.8a68,68,0,0,0-4.77,10.38q-2.08,5.67-3.59,10.88c-1,3.48-1.82,6.59-2.41,9.32s-1,4.65-1.35,5.77c.45-.89,1.35-2.58,2.69-5l4.77-8.7q2.75-5,6-10.6t6.4-10.6q3.14-5,5.83-8.92a35.88,35.88,0,0,1,4.38-5.5,2.44,2.44,0,0,1,2.52-.28,13.43,13.43,0,0,1,3.42,1.57,10.16,10.16,0,0,1,2.75,2.47,2.15,2.15,0,0,1,.4,2.52q-1.7,2.92-4,8.14t-4.94,11.83q-2.58,6.63-5.1,14.08t-4.44,14.7q-1.9,7.23-3,13.8a51,51,0,0,0-.73,11.44,14.13,14.13,0,0,0,2.3,7.52C731.08,771.72,733.12,772.38,735.89,771.93Z" transform="translate(-46.36 -303.82)"/><path class="cls-1" d="M829,725.37a3.07,3.07,0,0,1,.34,2.92,50.08,50.08,0,0,1-2.58,6.06q-1.12,1.9-2.8,4.6c-1.13,1.79-2.44,3.78-3.93,5.94q-4.93,6.63-9.31,9.2a8.84,8.84,0,0,1-5.16.79,24.28,24.28,0,0,1-2.86-.79,15.35,15.35,0,0,1-2.53-1.12c-1.64-1.05-2.62-2.09-2.92-3.14a18.28,18.28,0,0,1,.34-7.07c.37-1.49.73-3,1.07-4.43s.72-3,1.17-4.54.86-2.79,1.24-3.87.71-2,1-2.86c.07-.3.15-.56.22-.79a1.66,1.66,0,0,0,.11-.56,48.07,48.07,0,0,0-5.49,6.45q-2.8,3.87-6.06,9a186.6,186.6,0,0,0-9.54,16.72c-.44,1.05-1.64,1.46-3.59,1.23a12.46,12.46,0,0,1-4.82-1.57c-1.57-.9-2.25-1.91-2-3,.22-.9.56-2,1-3.31s1-2.9,1.57-4.77q1.35-3.81,2.64-7.9c.85-2.73,1.7-5.52,2.52-8.36q.78-2.81,1.29-5.22a43.46,43.46,0,0,0,.73-4.66,3.52,3.52,0,0,1,.06-.72,4,4,0,0,0,0-.62q-.33-3.81-3-4.71a11.35,11.35,0,0,0-6.73,0,19.71,19.71,0,0,0-5.83,2.24,11.05,11.05,0,0,1,6.73,9.2,45.71,45.71,0,0,1-1.07,9.65,43.9,43.9,0,0,1-3.53,10q-4.6,10.1-9.42,13c-3.52,1.49-7.52,1.61-12,.33a11.07,11.07,0,0,1-8.19-8.86,28,28,0,0,1,.17-5.78,35.17,35.17,0,0,1,1.63-6.9,53.75,53.75,0,0,1,2.52-6.78,47.06,47.06,0,0,1,3-5.56c.82-.89,2.06-1.08,3.71-.56a11.47,11.47,0,0,1,4.48,2.58c1.27,1.12,1.61,2.21,1,3.25-.52.83-1.08,1.8-1.68,2.92s-1.23,2.4-1.91,3.82-1.25,2.8-1.74,4.15-.91,2.77-1.29,4.26c-.82,2.92-.82,5.27,0,7.07a1.59,1.59,0,0,0,1.8,1,9.29,9.29,0,0,0,3.36-2.47,39.16,39.16,0,0,0,4.94-7.12,42.72,42.72,0,0,0,3.25-7.8q2.58-8.08,1-12.68t-8-.67a4.54,4.54,0,0,1-4.94-.23,7.8,7.8,0,0,1-3.59-4.15,2.89,2.89,0,0,1,1.35-3.92,59.42,59.42,0,0,1,8-3.48,58.64,58.64,0,0,1,9.59-2.47,27.3,27.3,0,0,1,19.3,3.48,12.76,12.76,0,0,1,5.27,6.28,16.5,16.5,0,0,1,.9,7.63c-.15,1.12-.34,2.24-.56,3.37a22.73,22.73,0,0,1-1,3.47c-.38.9-.73,1.82-1.07,2.75s-.69,1.85-1.06,2.75l.67-.9a4.26,4.26,0,0,0,.56-1c1.5-2.17,3-4.33,4.54-6.5s3.16-4.45,4.88-6.85q5.06-6.94,9.2-10a5.62,5.62,0,0,1,4.94-.45,10,10,0,0,1,4.71,2.69c1.13,1.42,1.5,2.73,1.13,3.93-.23.6-.47,1.22-.74,1.85s-.58,1.37-.95,2.19q-1.33,3-2.69,6.39c-.9,2.25-1.83,4.6-2.81,7.07q-2.69,7.29-2.69,11.56a20.43,20.43,0,0,0,3.87-2.75,27.8,27.8,0,0,0,3.87-4.32,41.33,41.33,0,0,0,4-5.39c1.17-1.87,2.27-3.81,3.32-5.83a24.86,24.86,0,0,1,3.36-5.16l.79-.39a.83.83,0,0,1,.67-.06A4.11,4.11,0,0,1,829,725.37Z" transform="translate(-46.36 -303.82)"/><path class="cls-1" d="M866.36,703.83a134.38,134.38,0,0,0-13.8,27.83,113.53,113.53,0,0,0-4.09,13.91,55,55,0,0,0-1.41,11.78q0,10.65,7.63,10.65-4.26,4.28-10.09,1.58-6.18-2.8-7.18-12.23a30.44,30.44,0,0,1,.16-6,67.08,67.08,0,0,1,1.41-7.68,42,42,0,0,1-6.62,8q-3.6,3.48-6.85,4.16-3.25.22-6.39-2.7a9.39,9.39,0,0,1-2.92-6.73q.67-5,4.94-15.7a117.67,117.67,0,0,1,8.41-16.72c.82-.82,2-1,3.59-.56a8.11,8.11,0,0,1,2.3.78,15.34,15.34,0,0,1,2,1.24c1.34,1.05,1.71,2.09,1.12,3.14Q826.2,741,828.66,744.45c1.13,1.42,2.62,1,4.49-1.24q1.35-1.68,2.92-4a57.06,57.06,0,0,0,3.14-5.22q1.57-2.91,3.08-5.72t2.75-5.61q1.25-2.8,2.19-4.77c.64-1.31,1.14-2.33,1.52-3.08q1.11-2.58,2.18-5t2.3-4.76a40.49,40.49,0,0,0-8.07,2.35,44,44,0,0,0-7.41,3.93,2.87,2.87,0,0,1-2.8-1.12,8.3,8.3,0,0,1-1.52-1.74,23.72,23.72,0,0,1-1.18-2.08,11,11,0,0,1-.78-2.35c-.15-.75-.26-1.46-.34-2.13a2.53,2.53,0,0,1,1.57-2.7q5.73-1.23,12-2t13.35-1.18a71.33,71.33,0,0,1,7.63-10.88q1.56-1.58,4.37-.22a10,10,0,0,1,4.49,3.92,3.45,3.45,0,0,1-.11,4.71c-.38.45-.77.9-1.18,1.35s-.84.9-1.29,1.35a46.94,46.94,0,0,1,5.55.72c1.69.34,3.24.7,4.66,1.07a10.53,10.53,0,0,1,5.5,4.71,10.75,10.75,0,0,1,1.12,6.29c-.23,2.09-1,3.44-2.25,4,.53-2.61-1.16-4.74-5-6.39a33.4,33.4,0,0,0-6.68-2A59.17,59.17,0,0,0,866.36,703.83Z" transform="translate(-46.36 -303.82)"/><path class="cls-1" d="M895.19,741.53a1.17,1.17,0,0,1,1.29.62,3.48,3.48,0,0,1,.4,1.68,3.9,3.9,0,0,1-.4,1.74c-.26.52-.58.78-1,.78a26.9,26.9,0,0,1-4.82.23,20.62,20.62,0,0,1-5.28-1.12c-.37.74-.86,1.77-1.46,3.08a37.61,37.61,0,0,1-2.18,4,32,32,0,0,1-3,4,13.56,13.56,0,0,1-3.88,3.08,7,7,0,0,1-4.54.62,20.27,20.27,0,0,1-5.5-1.63,19,19,0,0,1-4.88-3.14,8.33,8.33,0,0,1-2.69-4.15,14.85,14.85,0,0,1-.33-6.62,37.75,37.75,0,0,1,1.79-7,34.31,34.31,0,0,1,3-6.28,20.22,20.22,0,0,1,3.31-4.32,8,8,0,0,1,1.24-1,8.07,8.07,0,0,0,1.23-1,33,33,0,0,1-.56-4.77,8.76,8.76,0,0,1,1.12-4.66c.67-1.19,2.08-2,4.21-2.3a15.66,15.66,0,0,1,6.73.51,15.83,15.83,0,0,1,6.45,3.7,11.33,11.33,0,0,1,3.48,7.18,27.22,27.22,0,0,1-.06,8q-.61,3.81-1.51,7.85a8.34,8.34,0,0,0,3.31,1A13.05,13.05,0,0,0,895.19,741.53Zm-28.49,12.9a17.88,17.88,0,0,0,6.45-6.06,53,53,0,0,0,3.64-7.4,18.38,18.38,0,0,1-6.06-6.85,10.14,10.14,0,0,0-1.45,3q-.9,2.48-1.74,5.67a42.16,42.16,0,0,0-1.18,6.39A12.51,12.51,0,0,0,866.7,754.43Zm11.78-19.86a13.15,13.15,0,0,0,.89-3.76,24.53,24.53,0,0,0,.06-4.37,27.49,27.49,0,0,0-.56-3.93A9.94,9.94,0,0,0,878,720a9,9,0,0,0-1.63,6.17A24,24,0,0,0,878.48,734.57Z" transform="translate(-46.36 -303.82)"/><path class="cls-1" d="M923.24,736.48a2.33,2.33,0,0,0,.5,1.4,2.51,2.51,0,0,0,.79.56,6.86,6.86,0,0,1,.67.34c.19.11.25.36.17.73-.15.6-.8.94-2,1a13.56,13.56,0,0,1-3.76-.34,17.18,17.18,0,0,1-3.76-1.29c-1.16-.56-1.81-1.21-2-2a12,12,0,0,1-.45-4.1c.07-1.45.07-2.93,0-4.43a76,76,0,0,0-10.21,14.08,69.49,69.49,0,0,0-6.73,17.67,1.74,1.74,0,0,1-1.85,1.29,7.91,7.91,0,0,1-3.2-.61,9.7,9.7,0,0,1-2.92-1.8,2.54,2.54,0,0,1-1-2.36A123.58,123.58,0,0,1,890.42,744q1.86-6.63,4.32-13.07T900,718.64c1.86-3.89,3.7-7.36,5.49-10.43a2.38,2.38,0,0,1,1.57-1.24,4.21,4.21,0,0,1,2.13.12,8.17,8.17,0,0,1,3.65,2.18,2.62,2.62,0,0,1,.28,3q-1.46,3.13-3.14,6.56t-3.48,7.8q1.68-2.36,3-4.38c.83-1.12,1.55-2.2,2.19-3.25s1-1.68,1.18-1.91q1-1.58,1.68-1.74a4.1,4.1,0,0,1,2.24.51q3.15,1.23,4.72,1.79a4.06,4.06,0,0,1,2.13,1.46,4,4,0,0,1,.34,2.58c-.16,1.12-.34,2.84-.57,5.16A42.48,42.48,0,0,0,923.24,736.48Z" transform="translate(-46.36 -303.82)"/><path class="cls-1" d="M949.6,727.5a1.83,1.83,0,0,1,1.35-.84,2.6,2.6,0,0,1,1.4.28,3,3,0,0,1,1,.9,1,1,0,0,1,.06,1.12c-.83,1.72-2,4-3.59,6.73s-3.29,5.54-5.16,8.31a74.06,74.06,0,0,1-5.78,7.51,16.37,16.37,0,0,1-5.33,4.38,7.07,7.07,0,0,1-3.37.34,10.89,10.89,0,0,1-3.59-1.07,8.34,8.34,0,0,1-2.8-2.24,4.52,4.52,0,0,1-1-3.2,38.11,38.11,0,0,1,1-6,80.39,80.39,0,0,1,2.25-8q1.39-4.2,3.08-8.3a48.15,48.15,0,0,1,3.48-7,2.51,2.51,0,0,1,2.3-.9,9.09,9.09,0,0,1,3.42.67,8.28,8.28,0,0,1,2.81,1.8,2,2,0,0,1,.56,2.35,118.45,118.45,0,0,0-7.18,15.77q-1.9,5.65-1.24,7.34c.3.83.94.92,1.91.28a18.19,18.19,0,0,0,3.65-3.64c1.45-1.8,3.12-4.11,5-7S947.58,731.09,949.6,727.5Zm-7.06-11.78a2.6,2.6,0,0,1-2,1,6.52,6.52,0,0,1-2.58-.28,6.38,6.38,0,0,1-2.24-1.17,1.87,1.87,0,0,1-.84-1.69,23.88,23.88,0,0,1,.72-3.31c.34-1.16.7-2.24,1.07-3.25s.75-1.92,1.12-2.75.68-1.46.9-1.91a2.88,2.88,0,0,1,2.47-1.06,8.87,8.87,0,0,1,3.53.62,8,8,0,0,1,2.86,1.79A1.69,1.69,0,0,1,948,706c-.22.45-.58,1.11-1.06,2l-1.52,2.69c-.52.94-1.05,1.85-1.57,2.75S942.91,715.05,942.54,715.72Z" transform="translate(-46.36 -303.82)"/><path class="cls-1" d="M991.79,728.18a1,1,0,0,1,1.17-.68,5,5,0,0,1,1.69.57,5.27,5.27,0,0,1,1.4,1.06c.37.41.52.73.45,1q-1.57,3.25-3.87,7.19t-4.94,7.57a65.77,65.77,0,0,1-5.38,6.56,20.34,20.34,0,0,1-5.11,4.15,6.61,6.61,0,0,1-3.59.62,15.67,15.67,0,0,1-3.93-.84,12,12,0,0,1-3.36-1.8,4,4,0,0,1-1.68-2.24,14.66,14.66,0,0,1,0-5.16,55.48,55.48,0,0,1,1.29-6.51q.84-3.25,1.68-5.89c.56-1.76.95-2.9,1.18-3.42a37.44,37.44,0,0,0-5,5.5q-2.81,3.59-5.55,7.63t-5.05,8q-2.31,3.93-3.54,6.51a2.42,2.42,0,0,1-2.24,1.06,9.65,9.65,0,0,1-3.37-.5,9.8,9.8,0,0,1-3-1.57c-.86-.67-1.18-1.35-.95-2,.45-1.8,1.12-4.17,2-7.13s1.94-6.17,3.14-9.64,2.54-7.05,4-10.72a86.39,86.39,0,0,1,4.93-10.21,2.65,2.65,0,0,1,2.53-1.57,8.57,8.57,0,0,1,6.17,2.81c.71.82,1,1.53.73,2.13q-1.12,2.36-2.42,4.77t-2.46,4.48c-.79,1.39-1.46,2.6-2,3.65a10.74,10.74,0,0,0-1,2.13q1.8-2.58,3.87-5.16t4.15-4.82a47.86,47.86,0,0,1,4.21-4,33.87,33.87,0,0,1,4.15-3,4.84,4.84,0,0,1,3.31-.45,10.44,10.44,0,0,1,3.65,1.35,8.2,8.2,0,0,1,2.63,2.41,2.77,2.77,0,0,1,.4,2.75c-.6,1.49-1.39,3.35-2.36,5.55s-1.9,4.53-2.8,7-1.69,4.77-2.36,7a20.6,20.6,0,0,0-1,5.72,27.4,27.4,0,0,0,4.6-3.48,48.73,48.73,0,0,0,4.88-5.16,76.35,76.35,0,0,0,4.66-6.28C989.24,732.67,990.59,730.42,991.79,728.18Z" transform="translate(-46.36 -303.82)"/><path class="cls-1" d="M1034.64,728.4c.75-.37,1.29-.32,1.63.17a2.71,2.71,0,0,1,.34,2,9.75,9.75,0,0,1-.9,2.75,5.89,5.89,0,0,1-2.08,2.41c-2.84,1.73-5.55,3.48-8.13,5.28s-5,3.66-7.35,5.61a8.59,8.59,0,0,0-2.36,2.91q-2.13,4.6-5.21,10.33t-6.57,11a74.6,74.6,0,0,1-7,9.25c-2.35,2.62-4.58,4.26-6.67,4.94a8,8,0,0,1-4.1-.23,14.31,14.31,0,0,1-5.05-2.35,9.56,9.56,0,0,1-3.31-4.27q-1-2.58,1-5.83A48,48,0,0,1,986,763.8c3-3,6-5.7,9-8.25s5.66-4.78,8-6.73,3.72-3.29,4.09-4a39.58,39.58,0,0,0,2.36-5.21c.75-2,1.38-3.72,1.91-5.22l-3.54,4.26q-2,2.35-4.15,4.71c-1.46,1.57-2.93,3-4.43,4.38a38.52,38.52,0,0,1-4.26,3.36,4.5,4.5,0,0,1-3.26.45,12.29,12.29,0,0,1-3.87-1.34,10.37,10.37,0,0,1-3.08-2.53,3.55,3.55,0,0,1-.9-3.08,38.12,38.12,0,0,1,2.8-8.47,60,60,0,0,1,4.77-8.53,67.18,67.18,0,0,1,5.89-7.57,39.65,39.65,0,0,1,6.28-5.72,8.39,8.39,0,0,1,3.71-1.69,6.83,6.83,0,0,1,3.14.28,11.49,11.49,0,0,1,2.86,1.52c.93.67,1.89,1.38,2.86,2.13q.45-.56,1.29-1.8a7.54,7.54,0,0,1,1.29-1.57,3.73,3.73,0,0,1,2.52-.72,7.82,7.82,0,0,1,2.92.67,6.83,6.83,0,0,1,2.3,1.57,2.45,2.45,0,0,1,.79,2c-.3,1.57-.71,3.28-1.24,5.11s-1.06,3.68-1.62,5.55-1.13,3.67-1.69,5.39-1,3.21-1.4,4.48q4.15-2.91,7.24-4.93T1034.64,728.4Zm-50.37,49.37a38.75,38.75,0,0,0,7.46-7.52,94.33,94.33,0,0,0,6.56-9.54l-4.43,4.49c-1.61,1.65-3.12,3.27-4.54,4.88a45.14,45.14,0,0,0-3.54,4.49A8,8,0,0,0,984.27,777.77Zm26.48-53a8.13,8.13,0,0,0,.89-2.07,5.69,5.69,0,0,0,.28-2c0-.52-.26-.82-.67-.89s-1.1.3-2.08,1.12a37.61,37.61,0,0,0-4.43,4.54c-1.45,1.76-2.82,3.57-4.09,5.44s-2.4,3.67-3.37,5.39a29.07,29.07,0,0,0-2.13,4.49c-.15.67,0,1,.45,1a4.92,4.92,0,0,0,2.3-1.35,34.6,34.6,0,0,0,3.7-3.7c1.38-1.57,2.88-3.39,4.49-5.44S1009.25,727.13,1010.75,724.81Z" transform="translate(-46.36 -303.82)"/><path class="cls-1" d="M348,497.07c0,43.41-36.44,83.76-91.43,83.76H139.4V306.38h90.24c49.71,0,86.15,33.54,86.15,71.34,0,28.26-18.73,48.52-30,48.52C315.11,426.24,348,455.69,348,497.07ZM227.43,369.71H209.55v43.08h17.36c15.84,0,27.76-7.83,27.76-22C254.67,377.55,243.09,369.71,227.43,369.71Zm50.73,118.67c0-16-11.58-25.71-32.18-25.71l-36.43-.17v52.1h35.92C262.16,514.6,278.16,506.43,278.16,488.38Z" transform="translate(-46.36 -303.82)"/><path class="cls-1" d="M451,374.14v38.31h87.17v60.78H451v39.33h105.9v68.27H379V306.38H556.88v67.76Z" transform="translate(-46.36 -303.82)"/><path class="cls-1" d="M891.62,303.82v277H818.75V472l-73.9,104.2h-.51L670.28,472V580.83H597.41v-277H626.7L744.51,465.23,862.33,303.82Z" transform="translate(-46.36 -303.82)"/><path class="cls-2" d="M779.17,652.08H251.85a5.36,5.36,0,0,1-5.35-5.36l-.25-10.34c0-3,2.65-7.71,5.6-7.71H779.17a5.36,5.36,0,0,1,5.36,5.35v12.7A5.36,5.36,0,0,1,779.17,652.08Z" transform="translate(-46.36 -303.82)"/></svg>