<svg id="Livello_1" data-name="Livello 1" xmlns="http://www.w3.org/2000/svg" viewBox="0 0 2053.27 882.38"><defs><style>.cls-1,.cls-8{fill:#fbae17;}.cls-1,.cls-2,.cls-3,.cls-5,.cls-6{stroke:#603813;stroke-miterlimit:10;}.cls-1,.cls-2,.cls-5{stroke-width:25px;}.cls-2,.cls-3,.cls-4{fill:#603813;}.cls-3{stroke-width:18px;}.cls-5{fill:#fff;}.cls-6{fill:none;stroke-width:10px;}.cls-7{fill:#754c24;}</style></defs><rect class="cls-1" x="258.49" y="406.53" width="394.61" height="132.56"/><rect class="cls-1" x="258.49" y="274.49" width="394.61" height="132.56"/><path class="cls-1" d="M346.42,1087.63H615.85a196,196,0,0,0,62.59-142.75H283.83A196,196,0,0,0,346.42,1087.63Z" transform="translate(-25.34 -405.28)"/><path class="cls-2" d="M481.14,483c-109.25,0-197.82,88.11-197.82,196.8H679C679,571.08,590.39,483,481.14,483Z" transform="translate(-25.34 -405.28)"/><path class="cls-3" d="M363.77,416.2h28.69a14.05,14.05,0,0,1,14.05,14.05V532.41a8.28,8.28,0,0,1-8.28,8.28H358a8.28,8.28,0,0,1-8.28-8.28V430.25a14.05,14.05,0,0,1,14.05-14.05Z" transform="translate(-173.74 -234.5) rotate(-21.38)"/><path class="cls-3" d="M559.67,416.2h49a3.9,3.9,0,0,1,3.9,3.9V526.64a14.05,14.05,0,0,1-14.05,14.05H569.82a14.05,14.05,0,0,1-14.05-14.05V420.1A3.9,3.9,0,0,1,559.67,416.2Z" transform="translate(928.36 731.64) rotate(-158.62)"/><rect class="cls-4" x="257.73" y="384.73" width="396.14" height="54.04"/><rect class="cls-4" x="257.73" y="512.19" width="396.14" height="54.04"/><path class="cls-5" d="M480.88,790.49s-233.8,122.9-308.25,122.9a134.8,134.8,0,0,1,0-269.59C247.08,643.8,480.88,790.49,480.88,790.49Z" transform="translate(-25.34 -405.28)"/><path class="cls-5" d="M481.39,790.49s233.8,122.9,308.25,122.9a134.8,134.8,0,1,0,0-269.59C715.19,643.8,481.39,790.49,481.39,790.49Z" transform="translate(-25.34 -405.28)"/><rect class="cls-4" x="332.48" y="712.23" width="246.63" height="35.92" rx="8.89"/><rect class="cls-4" x="332.48" y="760.12" width="246.63" height="35.92" rx="8.89"/><path class="cls-4" d="M481.14,1287.66c44.93,0,81.35-30.7,81.35-68.57H399.78C399.78,1257,436.21,1287.66,481.14,1287.66Z" transform="translate(-25.34 -405.28)"/><path class="cls-6" d="M504.31,793h64.08a5.08,5.08,0,0,0,3.05-1l85-63.74a5.09,5.09,0,0,1,3.05-1H765.29a5.08,5.08,0,0,1,3.59,1.49l42.36,42.36" transform="translate(-25.34 -405.28)"/><polyline class="cls-6" points="593.57 346.85 629.45 382.73 683.26 382.73 719.13 400.67"/><polyline class="cls-6" points="665.32 382.73 665.32 418.6 647.38 436.54"/><polyline class="cls-6" points="695.79 321.94 718.65 287.66 787.22 287.66 798.65 276.23"/><polyline class="cls-6" points="764.36 344.8 798.65 333.37 844.36 344.8"/><path class="cls-6" d="M458.28,793H394.2a5.08,5.08,0,0,1-3.05-1l-85-63.74a5.09,5.09,0,0,0-3.05-1H197.3a5.1,5.1,0,0,0-3.59,1.49l-42.36,42.36" transform="translate(-25.34 -405.28)"/><polyline class="cls-6" points="318.34 346.85 282.47 382.73 228.65 382.73 192.78 400.67"/><polyline class="cls-6" points="246.59 382.73 246.59 418.6 264.53 436.54"/><polyline class="cls-6" points="216.12 321.94 193.26 287.66 124.7 287.66 113.27 276.23"/><polyline class="cls-6" points="147.55 344.8 113.27 333.37 67.55 344.8"/><ellipse class="cls-7" cx="384.63" cy="567.38" rx="57.14" ry="34.28" transform="translate(-313.88 32.88) rotate(-45)"/><circle class="cls-4" cx="784.98" cy="364.35" r="10.66"/><circle class="cls-4" cx="719.68" cy="400.33" r="10.66"/><circle class="cls-4" cx="647.71" cy="436.32" r="10.66"/><circle class="cls-4" cx="263.89" cy="436.32" r="10.66"/><circle class="cls-4" cx="193.25" cy="400.33" r="10.66"/><circle class="cls-4" cx="126.62" cy="368.35" r="10.66"/><circle class="cls-4" cx="67.98" cy="344.36" r="10.66"/><circle class="cls-4" cx="113.29" cy="276.39" r="10.66"/><circle class="cls-4" cx="844.95" cy="344.36" r="10.66"/><circle class="cls-4" cx="798.31" cy="276.39" r="10.66"/><path class="cls-8" d="M994.36,796.39V663.69q0-4,4-4h58.31q4,0,4,4v26.14q0,4-4,4h-26.14V713h24.13c2.67,0,4,1.34,4,4v26.14c0,2.68-1.35,4-4,4h-24.13v19.1h26.14q4,0,4,4v26.14q0,4-4,4H998.38Q994.36,800.41,994.36,796.39Z" transform="translate(-25.34 -405.28)"/><path class="cls-8" d="M1117,663.69q0-4,4-4h28.15q4,0,4,4v132.7q0,4-4,4H1125a3.59,3.59,0,0,1-3.82-2.82l-18.3-57.9v56.7q0,4-4,4h-28.14c-2.69,0-4-1.34-4-4V663.69c0-2.68,1.33-4,4-4h24.12c2.14,0,3.42.94,3.82,2.82l18.3,57.9Z" transform="translate(-25.34 -405.28)"/><path class="cls-8" d="M1180.13,800.41q-3.63,0-4-3.42L1159,664.3c-.4-3.09.93-4.63,4-4.63h27.74c2.68,0,4,1.28,4,3.82l7.85,108.77,7.84-108.77c0-2.54,1.33-3.82,4-3.82h27.74c3.08,0,4.43,1.54,4,4.63L1229.18,797c-.27,2.28-1.6,3.42-4,3.42Z" transform="translate(-25.34 -405.28)"/><path class="cls-8" d="M1255.92,800.41q-4,0-4-4V663.69q0-4,4-4h28.15q4,0,4,4v132.7q0,4-4,4Z" transform="translate(-25.34 -405.28)"/><path class="cls-8" d="M1377.76,797.79a2.36,2.36,0,0,1,.8,1.61.89.89,0,0,1-1,1h-31.17a5.52,5.52,0,0,1-4.22-1.71,6.86,6.86,0,0,1-1.81-4.32l-2-38.2a5,5,0,0,0-1.31-2.82,3.54,3.54,0,0,0-2.71-1.21h-2v44.24q0,4-4,4h-28.15q-4,0-4-4V663.69q0-4,4-4h38.2q21.12,0,29.66,8.75t8.54,25.43V718q0,9.64-3.72,14.47a21,21,0,0,1-10.15,7,23.66,23.66,0,0,1,8.24,8.44q3.21,5.43,3.62,14.28l2,32.17a11,11,0,0,0,.5,2.21A3.42,3.42,0,0,0,1377.76,797.79Zm-45.44-103.94V722h4a3.9,3.9,0,0,0,2.82-1.21,3.85,3.85,0,0,0,1.2-2.81V697.87a4.12,4.12,0,0,0-4-4Z" transform="translate(-25.34 -405.28)"/><path class="cls-8" d="M1422.79,657.66q10.65,0,18.2,3.22a35.1,35.1,0,0,1,12.46,8.64,34,34,0,0,1,7.24,12.77,51.6,51.6,0,0,1,2.31,15.58v64.34a51.56,51.56,0,0,1-2.31,15.58,34,34,0,0,1-7.24,12.77A35.22,35.22,0,0,1,1441,799.2a52.73,52.73,0,0,1-36.29,0,35,35,0,0,1-12.57-8.64,33.83,33.83,0,0,1-7.24-12.77,51.56,51.56,0,0,1-2.31-15.58V697.87a51.6,51.6,0,0,1,2.31-15.58,33.83,33.83,0,0,1,7.24-12.77,34.84,34.84,0,0,1,12.57-8.64A46.3,46.3,0,0,1,1422.79,657.66Zm4,38.2a4,4,0,0,0-8,0v68.36a4,4,0,0,0,8,0Z" transform="translate(-25.34 -405.28)"/><path class="cls-8" d="M1519.3,663.69c0-2.68,1.33-4,4-4h28.14q4,0,4,4v132.7q0,4-4,4h-24.12a3.59,3.59,0,0,1-3.82-2.82l-18.3-57.9v56.7q0,4-4,4h-28.15q-4,0-4-4V663.69q0-4,4-4h24.13c2.14,0,3.42.94,3.82,2.82l18.3,57.9Z" transform="translate(-25.34 -405.28)"/><path class="cls-8" d="M1572.37,663.29a3.63,3.63,0,0,1,4-3.62h39a3.63,3.63,0,0,1,4,3.62l6,72.18,7.24-72.18a3.63,3.63,0,0,1,4-3.62h39a3.63,3.63,0,0,1,4,3.62L1691,796q.4,4.42-4,4.43h-28c-2.41,0-3.75-1.28-4-3.82l-2.41-85.65-11.06,86q-.4,3.42-4,3.42h-22.92q-3.61,0-4-3.42l-11.06-86-2.41,85.65c-.27,2.54-1.61,3.82-4,3.82h-27.95q-4.43,0-4-4.43Z" transform="translate(-25.34 -405.28)"/><path class="cls-8" d="M1700.44,800.41q-4,0-4-4V663.69q0-4,4-4h58.3c2.68,0,4,1.34,4,4v26.14c0,2.68-1.35,4-4,4h-26.13V713h24.12q4,0,4,4v26.14q0,4-4,4h-24.12v19.1h26.13c2.68,0,4,1.34,4,4v26.14c0,2.68-1.35,4-4,4Z" transform="translate(-25.34 -405.28)"/><path class="cls-8" d="M1819.06,663.69q0-4,4-4h28.14c2.68,0,4,1.34,4,4v132.7c0,2.68-1.35,4-4,4H1827.1a3.59,3.59,0,0,1-3.82-2.82l-18.3-57.9v56.7q0,4-4,4h-28.15q-4,0-4-4V663.69q0-4,4-4h24.13c2.14,0,3.42.94,3.82,2.82l18.3,57.9Z" transform="translate(-25.34 -405.28)"/><path class="cls-8" d="M1865.5,693.85q-4,0-4-4V663.69q0-4,4-4h60.31q4,0,4,4v26.14q0,4-4,4h-12.06V796.39q0,4-4,4h-28.15q-4,0-4-4V693.85Z" transform="translate(-25.34 -405.28)"/><path class="cls-8" d="M1937.88,800.41q-4,0-4-4V697.87a51.3,51.3,0,0,1,2.32-15.58,33.94,33.94,0,0,1,7.23-12.77,34.93,34.93,0,0,1,12.57-8.64,46.3,46.3,0,0,1,18.09-3.22q10.67,0,18.2,3.22a35,35,0,0,1,12.46,8.64,33.83,33.83,0,0,1,7.24,12.77,51.6,51.6,0,0,1,2.31,15.58v98.52q0,4-4,4h-28.14q-4,0-4-4V774.27h-8v22.12q0,4-4,4Zm40.2-104.55a4,4,0,0,0-8,0v48.25h8Z" transform="translate(-25.34 -405.28)"/><path class="cls-8" d="M2026.33,800.41q-4,0-4-4V663.69q0-4,4-4h28.15q4,0,4,4V766.23h16.09q4,0,4,4v26.14q0,4-4,4Z" transform="translate(-25.34 -405.28)"/><path class="cls-8" d="M1134.79,904.55a3.63,3.63,0,0,1,4-3.62h39a3.63,3.63,0,0,1,4,3.62l6,72.18,7.24-72.18a3.63,3.63,0,0,1,4-3.62h39c2.42,0,3.75,1.21,4,3.62l11.26,132.7q.4,4.43-4,4.42h-27.94q-3.63,0-4-3.82L1215,952.2l-11.06,86c-.27,2.28-1.6,3.42-4,3.42H1177q-3.62,0-4-3.42l-11.06-86-2.41,85.65q-.4,3.83-4,3.82h-28q-4.42,0-4-4.42Z" transform="translate(-25.34 -405.28)"/><path class="cls-8" d="M1297,898.92q10.65,0,18.19,3.22a35.39,35.39,0,0,1,12.47,8.64,34.1,34.1,0,0,1,7.24,12.77,51.65,51.65,0,0,1,2.31,15.58v64.34a51.56,51.56,0,0,1-2.31,15.58,34,34,0,0,1-7.24,12.77,35.14,35.14,0,0,1-12.47,8.64q-7.53,3.22-18.19,3.22a46.39,46.39,0,0,1-18.1-3.22,34.89,34.89,0,0,1-12.56-8.64,33.75,33.75,0,0,1-7.24-12.77,51.56,51.56,0,0,1-2.31-15.58V939.13a51.65,51.65,0,0,1,2.31-15.58,33.83,33.83,0,0,1,7.24-12.77,35.14,35.14,0,0,1,12.56-8.64A46.57,46.57,0,0,1,1297,898.92Zm4,38.2a4,4,0,0,0-8,0v68.36a4,4,0,0,0,8,0Z" transform="translate(-25.34 -405.28)"/><path class="cls-8" d="M1393.54,905q0-4,4-4h28.15q4,0,4,4v132.7q0,4-4,4h-24.12a3.58,3.58,0,0,1-3.82-2.82l-18.3-57.9v56.7q0,4-4,4H1347.3q-4,0-4-4V905q0-4,4-4h24.13c2.14,0,3.42.94,3.82,2.82l18.29,57.9Z" transform="translate(-25.34 -405.28)"/><path class="cls-8" d="M1442,1041.67q-4,0-4-4V905q0-4,4-4h28.14q4,0,4,4v132.7q0,4-4,4Z" transform="translate(-25.34 -405.28)"/><path class="cls-8" d="M1484.21,935.11q-4,0-4-4V905q0-4,4-4h60.32q4,0,4,4v26.14q0,4-4,4h-12.06v102.54c0,2.68-1.35,4-4,4H1500.3c-2.69,0-4-1.34-4-4V935.11Z" transform="translate(-25.34 -405.28)"/><path class="cls-8" d="M1592.78,898.92q10.65,0,18.19,3.22a35.39,35.39,0,0,1,12.47,8.64,34.1,34.1,0,0,1,7.24,12.77,51.65,51.65,0,0,1,2.31,15.58v64.34a51.56,51.56,0,0,1-2.31,15.58,34,34,0,0,1-7.24,12.77,35.14,35.14,0,0,1-12.47,8.64q-7.53,3.22-18.19,3.22a46.39,46.39,0,0,1-18.1-3.22,34.89,34.89,0,0,1-12.56-8.64,33.75,33.75,0,0,1-7.24-12.77,51.56,51.56,0,0,1-2.31-15.58V939.13a51.65,51.65,0,0,1,2.31-15.58,33.83,33.83,0,0,1,7.24-12.77,35.14,35.14,0,0,1,12.56-8.64A46.57,46.57,0,0,1,1592.78,898.92Zm4,38.2a4,4,0,0,0-8,0v68.36a4,4,0,0,0,8,0Z" transform="translate(-25.34 -405.28)"/><path class="cls-8" d="M1720.65,1039.06a2.32,2.32,0,0,1,.8,1.6.89.89,0,0,1-1,1h-31.17a5.52,5.52,0,0,1-4.22-1.71,6.86,6.86,0,0,1-1.81-4.32l-2-38.2a5,5,0,0,0-1.31-2.82,3.53,3.53,0,0,0-2.71-1.2h-2v44.23q0,4-4,4H1643q-4,0-4-4V905q0-4,4-4h38.2q21.1,0,29.66,8.75t8.54,25.43v24.13q0,9.64-3.72,14.47a21,21,0,0,1-10.15,7,23.74,23.74,0,0,1,8.24,8.44q3.21,5.43,3.62,14.28l2,32.17a10.64,10.64,0,0,0,.5,2.21A3.33,3.33,0,0,0,1720.65,1039.06Zm-45.44-103.95v28.15h4a4.14,4.14,0,0,0,4-4V939.13a4.14,4.14,0,0,0-4-4Z" transform="translate(-25.34 -405.28)"/><path class="cls-8" d="M1729.49,1041.67q-4,0-4-4V905q0-4,4-4h28.15q4,0,4,4v132.7q0,4-4,4Z" transform="translate(-25.34 -405.28)"/><path class="cls-8" d="M1820,905q0-4,4-4h28.15q4,0,4,4v132.7q0,4-4,4H1828a3.6,3.6,0,0,1-3.82-2.82L1805.89,981v56.7q0,4-4,4h-28.15q-4,0-4-4V905q0-4,4-4h24.13q3.21,0,3.82,2.82l18.29,57.9Z" transform="translate(-25.34 -405.28)"/><path class="cls-8" d="M1908.62,1005.48V975.32h-2a1.78,1.78,0,0,1-2-2V959.24q0-4,4-4h32.17q4,0,4,4v44.23a51.56,51.56,0,0,1-2.31,15.58,33.75,33.75,0,0,1-7.24,12.77,35,35,0,0,1-12.46,8.64q-7.54,3.22-18.2,3.22a46.3,46.3,0,0,1-18.09-3.22,34.93,34.93,0,0,1-12.57-8.64,33.73,33.73,0,0,1-7.23-12.77,51.25,51.25,0,0,1-2.32-15.58V939.13a51.34,51.34,0,0,1,2.32-15.58,33.81,33.81,0,0,1,7.23-12.77,35.18,35.18,0,0,1,12.57-8.64,46.48,46.48,0,0,1,18.09-3.22q10.67,0,18.2,3.22a35.26,35.26,0,0,1,12.46,8.64,33.83,33.83,0,0,1,7.24,12.77,51.65,51.65,0,0,1,2.31,15.58v4q0,4-4,4h-28.14q-4,0-4-4v-6a4,4,0,0,0-8,0v68.36a4,4,0,0,0,8,0Z" transform="translate(-25.34 -405.28)"/></svg>