<svg id="Livello_1" data-name="Livello 1" xmlns="http://www.w3.org/2000/svg" viewBox="0 0 758.29 292.52"><defs><style>.cls-1,.cls-6,.cls-7{fill:none;}.cls-1,.cls-2,.cls-3{stroke:#f7931e;}.cls-1,.cls-2,.cls-3,.cls-6,.cls-7{stroke-miterlimit:10;}.cls-1,.cls-7{stroke-width:3px;}.cls-2,.cls-3,.cls-4{fill:#f7931e;}.cls-2,.cls-6{stroke-width:7px;}.cls-5{fill:#fbae17;}.cls-6,.cls-7{stroke:#fbae17;}</style></defs><path class="cls-1" d="M456.78,372.71q6.06-25.43,30.25-13.06" transform="translate(-153.1 -339.23)"/><path class="cls-1" d="M447.78,363.71q8.14-34.15,40.63-17.54" transform="translate(-153.1 -339.23)"/><line class="cls-2" x1="339.9" y1="84.77" x2="322.05" y2="38.51"/><circle class="cls-3" cx="322.25" cy="39.52" r="10.75"/><path class="cls-4" d="M153.1,522.43A109.18,109.18,0,0,1,166,471.34q12.75-24.57,39.58-41.39a97.42,97.42,0,0,1,19.63-9.4,130,130,0,0,1,21.91-5.39A157.44,157.44,0,0,1,272,413.27q56.7,0,87.78,33.2A116,116,0,0,1,383.1,482,105,105,0,0,1,391,522.43q0,44.13-32.15,76.72T272,631.75q-52.92,0-85.82-30.63Q153.09,570.66,153.1,522.43Zm91.57,0q0,35.18,6.83,47.46Q258,582.32,272,582.32q13.78,0,20.62-12t6.82-47.91q0-34.71-6.67-47.3Q286.21,462.69,272,462.7q-13.65,0-20.47,12T244.67,522.43Z" transform="translate(-153.1 -339.23)"/><path class="cls-4" d="M539.27,628.42H420V577.93h18.34V468H420V417.51H548.82q37.9,0,58.68,4.4,20.46,4.54,32.14,18a48.29,48.29,0,0,1,11.68,32.15q0,17.88-11.07,28.5a61.54,61.54,0,0,1-27.6,15.16q22.29,6.68,34.27,20.62,12.12,14.25,12.13,32,0,21.24-13.65,36.09-13.64,14.7-37.45,19.25Q584.44,628.42,539.27,628.42ZM519.86,463.76v38.51h18q18.33,0,24.1-5.31,5.46-5.31,5.46-13.95a20.13,20.13,0,0,0-5-13.34q-5-5.91-27.45-5.91Zm0,76.87v41.54h18.35q17.58,0,25.32-4.55,7.58-4.54,7.58-16.07,0-10.75-6.82-15.92-6.82-5-26.38-5Z" transform="translate(-153.1 -339.23)"/><path class="cls-4" d="M847.36,628.42H729V577.93h18.19V468H722.88v38.36H683.31V417.51H892.39v88.85H852.82V468H828.71V577.93h18.65Z" transform="translate(-153.1 -339.23)"/><path class="cls-5" d="M172.1,522.43A109.18,109.18,0,0,1,185,471.34q12.75-24.57,39.58-41.39a97.42,97.42,0,0,1,19.63-9.4,130,130,0,0,1,21.91-5.39A157.44,157.44,0,0,1,291,413.27q56.7,0,87.78,33.2A116,116,0,0,1,402.1,482,105,105,0,0,1,410,522.43q0,44.13-32.15,76.72T291,631.75q-52.92,0-85.82-30.63Q172.09,570.66,172.1,522.43Zm91.57,0q0,35.18,6.83,47.46Q277,582.32,291,582.32q13.78,0,20.62-12t6.82-47.91q0-34.71-6.67-47.3Q305.21,462.69,291,462.7q-13.65,0-20.47,12T263.67,522.43Z" transform="translate(-153.1 -339.23)"/><path class="cls-5" d="M558.27,628.42H439V577.93h18.34V468H439V417.51H567.82q37.9,0,58.68,4.4,20.46,4.54,32.14,18a48.29,48.29,0,0,1,11.68,32.15q0,17.88-11.07,28.5a61.54,61.54,0,0,1-27.6,15.16q22.29,6.68,34.27,20.62,12.12,14.25,12.13,32,0,21.24-13.65,36.09-13.64,14.7-37.45,19.25Q603.44,628.42,558.27,628.42ZM538.86,463.76v38.51h18q18.33,0,24.1-5.31,5.46-5.31,5.46-13.95a20.13,20.13,0,0,0-5-13.34q-5-5.91-27.45-5.91Zm0,76.87v41.54h18.35q17.58,0,25.32-4.55,7.58-4.54,7.58-16.07,0-10.75-6.82-15.92-6.82-5-26.38-5Z" transform="translate(-153.1 -339.23)"/><path class="cls-5" d="M866.36,628.42H748V577.93h18.19V468H741.88v38.36H702.31V417.51H911.39v88.85H871.82V468H847.71V577.93h18.65Z" transform="translate(-153.1 -339.23)"/><line class="cls-6" x1="343.9" y1="83.77" x2="326.05" y2="37.51"/><circle class="cls-5" cx="326.25" cy="38.52" r="10.75"/><path class="cls-7" d="M457.78,374.71q6.06-25.43,30.25-13.06" transform="translate(-153.1 -339.23)"/><path class="cls-7" d="M448.78,365.71q8.14-34.15,40.63-17.54" transform="translate(-153.1 -339.23)"/></svg>