<svg id="Livello_1" data-name="Livello 1" xmlns="http://www.w3.org/2000/svg" viewBox="0 0 853.24 416.08"><defs><style>.cls-1,.cls-2,.cls-7,.cls-8{fill:none;}.cls-1,.cls-7,.cls-8{stroke:#fbae17;}.cls-1,.cls-2,.cls-3,.cls-4,.cls-7,.cls-8{stroke-miterlimit:10;}.cls-1{stroke-width:8px;}.cls-2,.cls-3,.cls-4{stroke:#f7931e;}.cls-2,.cls-8{stroke-width:3px;}.cls-3,.cls-4,.cls-5{fill:#f7931e;}.cls-3,.cls-7{stroke-width:7px;}.cls-6{fill:#fbae17;}</style></defs><polygon class="cls-1" points="819.2 139.38 762.81 139.38 734.61 188.22 762.81 237.06 819.2 237.06 847.4 188.22 819.2 139.38"/><path class="cls-2" d="M456.78,372.71q6.06-25.43,30.25-13.06" transform="translate(-138.38 -295.86)"/><path class="cls-2" d="M447.78,363.71q8.14-34.15,40.63-17.54" transform="translate(-138.38 -295.86)"/><line class="cls-3" x1="354.62" y1="128.14" x2="336.76" y2="81.88"/><circle class="cls-4" cx="336.97" cy="82.9" r="10.75"/><path class="cls-5" d="M153.1,522.43A109.18,109.18,0,0,1,166,471.34q12.75-24.57,39.58-41.39a97.42,97.42,0,0,1,19.63-9.4,130,130,0,0,1,21.91-5.39A157.44,157.44,0,0,1,272,413.27q56.7,0,87.78,33.2A116,116,0,0,1,383.1,482,105,105,0,0,1,391,522.43q0,44.13-32.15,76.72T272,631.75q-52.92,0-85.82-30.63Q153.09,570.66,153.1,522.43Zm91.57,0q0,35.18,6.83,47.46Q258,582.32,272,582.32q13.78,0,20.62-12t6.82-47.91q0-34.71-6.67-47.3Q286.21,462.69,272,462.7q-13.65,0-20.47,12T244.67,522.43Z" transform="translate(-138.38 -295.86)"/><path class="cls-5" d="M539.27,628.42H420V577.93h18.34V468H420V417.51H548.82q37.9,0,58.68,4.4,20.46,4.54,32.14,18a48.29,48.29,0,0,1,11.68,32.15q0,17.88-11.07,28.5a61.54,61.54,0,0,1-27.6,15.16q22.29,6.68,34.27,20.62,12.12,14.25,12.13,32,0,21.24-13.65,36.09-13.64,14.7-37.45,19.25Q584.44,628.42,539.27,628.42ZM519.86,463.76v38.51h18q18.33,0,24.1-5.31,5.46-5.31,5.46-13.95a20.13,20.13,0,0,0-5-13.34q-5-5.91-27.45-5.91Zm0,76.87v41.54h18.35q17.58,0,25.32-4.55,7.58-4.54,7.58-16.07,0-10.75-6.82-15.92-6.82-5-26.38-5Z" transform="translate(-138.38 -295.86)"/><path class="cls-5" d="M847.36,628.42H729V577.93h18.19V468H722.88v38.36H683.31V417.51H892.39v88.85H852.82V468H828.71V577.93h18.65Z" transform="translate(-138.38 -295.86)"/><path class="cls-6" d="M172.1,522.43A109.18,109.18,0,0,1,185,471.34q12.75-24.57,39.58-41.39a97.42,97.42,0,0,1,19.63-9.4,130,130,0,0,1,21.91-5.39A157.44,157.44,0,0,1,291,413.27q56.7,0,87.78,33.2A116,116,0,0,1,402.1,482,105,105,0,0,1,410,522.43q0,44.13-32.15,76.72T291,631.75q-52.92,0-85.82-30.63Q172.09,570.66,172.1,522.43Zm91.57,0q0,35.18,6.83,47.46Q277,582.32,291,582.32q13.78,0,20.62-12t6.82-47.91q0-34.71-6.67-47.3Q305.21,462.69,291,462.7q-13.65,0-20.47,12T263.67,522.43Z" transform="translate(-138.38 -295.86)"/><path class="cls-6" d="M558.27,628.42H439V577.93h18.34V468H439V417.51H567.82q37.9,0,58.68,4.4,20.46,4.54,32.14,18a48.29,48.29,0,0,1,11.68,32.15q0,17.88-11.07,28.5a61.54,61.54,0,0,1-27.6,15.16q22.29,6.68,34.27,20.62,12.12,14.25,12.13,32,0,21.24-13.65,36.09-13.64,14.7-37.45,19.25Q603.44,628.42,558.27,628.42ZM538.86,463.76v38.51h18q18.33,0,24.1-5.31,5.46-5.31,5.46-13.95a20.13,20.13,0,0,0-5-13.34q-5-5.91-27.45-5.91Zm0,76.87v41.54h18.35q17.58,0,25.32-4.55,7.58-4.54,7.58-16.07,0-10.75-6.82-15.92-6.82-5-26.38-5Z" transform="translate(-138.38 -295.86)"/><path class="cls-6" d="M866.36,628.42H748V577.93h18.19V468H741.88v38.36H702.31V417.51H911.39v88.85H871.82V468H847.71V577.93h18.65Z" transform="translate(-138.38 -295.86)"/><polygon class="cls-1" points="96.57 109.58 35.27 109.58 4.62 162.66 35.27 215.75 96.57 215.75 127.22 162.66 96.57 109.58"/><polygon class="cls-1" points="190.15 56.49 128.85 56.49 98.2 109.58 128.85 162.66 190.15 162.66 220.8 109.58 190.15 56.49"/><polygon class="cls-1" points="98.57 4 37.27 4 6.62 57.09 37.27 110.18 98.57 110.18 129.22 57.09 98.57 4"/><polygon class="cls-1" points="426.67 305.9 365.37 305.9 334.72 358.99 365.37 412.08 426.67 412.08 457.32 358.99 426.67 305.9"/><polygon class="cls-1" points="520.25 252.81 458.95 252.81 428.3 305.9 458.95 358.99 520.25 358.99 550.9 305.9 520.25 252.81"/><polyline class="cls-1" points="736.03 91.54 679.64 91.54 651.44 140.38"/><path class="cls-1" d="M874.41,485.07" transform="translate(-138.38 -295.86)"/><polygon class="cls-1" points="820.42 42.02 764.03 42.02 735.83 90.86 764.03 139.7 820.42 139.7 848.62 90.86 820.42 42.02"/><path class="cls-5" d="M186.47,671A17.64,17.64,0,0,1,188,660.72a17.5,17.5,0,0,1,.49-5,22.12,22.12,0,0,1,1.67-4.62,22.17,22.17,0,0,1,5.86-7.27,16.56,16.56,0,0,1,3.62-2.22,11.4,11.4,0,0,1,3.74-1,12,12,0,0,1,4.74.91,11.44,11.44,0,0,1,3.67,2.5,13.36,13.36,0,0,1,2.55,3.78,18.86,18.86,0,0,1,1.41,4.7,25.7,25.7,0,0,1,.21,6.36,33.86,33.86,0,0,1-1.2,6.61,32,32,0,0,1-2.5,6.22,23,23,0,0,1-3.72,5.2,16.81,16.81,0,0,1-4.85,3.49,13.07,13.07,0,0,1-10.45.17,10.57,10.57,0,0,1-3.39-2.34,11.49,11.49,0,0,1-2.24-3.32A15.08,15.08,0,0,1,186.47,671ZM193,655.61a3.64,3.64,0,0,1,1.94.6,7.06,7.06,0,0,1,1.63,1.36,4.32,4.32,0,0,1,.89,1.49c.15.47.09.79-.19,1a8.39,8.39,0,0,0-3,1.55,11.39,11.39,0,0,0-2.39,2.64,14.68,14.68,0,0,0,1,2.8,11.47,11.47,0,0,0,1.62,2.52.47.47,0,0,1-.22.68,3,3,0,0,1-1.09.35,4.29,4.29,0,0,1-1.29,0,1.36,1.36,0,0,1-.89-.42,8,8,0,0,1-.49-.82,8.56,8.56,0,0,1-.39-.86,10.67,10.67,0,0,0-.21,3.95,6.85,6.85,0,0,0,.72,2.17,5.48,5.48,0,0,0,1.47,1.75,7.15,7.15,0,0,0,2.27,1.17,10.44,10.44,0,0,0,3.2.44,6.72,6.72,0,0,0,3.83-1.25,14.15,14.15,0,0,0,3.39-3.32,25.35,25.35,0,0,0,2.78-4.77,35.47,35.47,0,0,0,3-11.43,23.19,23.19,0,0,0-.14-5.38,13.83,13.83,0,0,0-.76-2.8,7,7,0,0,0-1.34-2.22,6.15,6.15,0,0,0-2-1.47,6.81,6.81,0,0,0-2.68-.58,8.48,8.48,0,0,0-3.86.86,12.26,12.26,0,0,0-3.36,2.45,16.09,16.09,0,0,0-2.63,3.63,19.54,19.54,0,0,0-1.72,4.39l.77-.38Z" transform="translate(-138.38 -295.86)"/><path class="cls-5" d="M217.13,658.06a1.22,1.22,0,0,1,1,0,4.94,4.94,0,0,1,1.29.54,6.86,6.86,0,0,1,1.31,1,4.7,4.7,0,0,1,1,1.21,11.86,11.86,0,0,1,3-2.15,5.37,5.37,0,0,1,5.26,0,5.08,5.08,0,0,1,1.42,1.22,6,6,0,0,1,.91,1.63,8.83,8.83,0,0,1,.47,1.87,9.75,9.75,0,0,1,.14,1.62,14.25,14.25,0,0,1-.07,1.52,17.21,17.21,0,0,1-1.12,4.25,16.5,16.5,0,0,1-2.1,3.76,11.74,11.74,0,0,1-2.9,2.78,7.79,7.79,0,0,1-3.46,1.31,5.66,5.66,0,0,1-2.81-.73,5.86,5.86,0,0,1-1.87-1.72c-.05.12-.09.24-.13.37a2.29,2.29,0,0,1-.12.37c-.3,1-.59,2-.87,3s-.53,2.11-.74,3.18a29.71,29.71,0,0,0-.45,3.26,21.57,21.57,0,0,0,0,3.21c0,.28-.16.42-.56.42a3.54,3.54,0,0,1-1.32-.3,6.91,6.91,0,0,1-1.42-.75,1.81,1.81,0,0,1-.82-.94,19.35,19.35,0,0,1-.11-3.48,33.22,33.22,0,0,1,.39-3.44c.19-1.15.42-2.29.72-3.43s.6-2.29.92-3.46c.28-1,.54-1.93.77-2.87s.46-1.87.67-2.83v.11c.11-.7.23-1.41.36-2.14s.26-1.44.4-2.16c.19-1.12.38-2.21.56-3.25A29.13,29.13,0,0,0,217.13,658.06Zm2.76,13-.07.28.1.77a3.82,3.82,0,0,0,.53,1.38,1.48,1.48,0,0,0,1.19.69,2.56,2.56,0,0,0,1.61-.49,7.6,7.6,0,0,0,1.62-1.52,13.51,13.51,0,0,0,1.45-2.22,22.77,22.77,0,0,0,1.14-2.54,14.35,14.35,0,0,0,.68-2.5,6.79,6.79,0,0,0,.07-2.13c-.12-.72-.47-1.1-1.05-1.12a4.53,4.53,0,0,0-1.59.24,6.91,6.91,0,0,0-1.62.83,10.08,10.08,0,0,0-2.84,2.88c-.18.86-.39,1.77-.61,2.73s-.41,1.86-.58,2.72Z" transform="translate(-138.38 -295.86)"/><path class="cls-5" d="M246.39,664.14a13.12,13.12,0,0,1-3.24,5.25,13.57,13.57,0,0,1-5.08,3.11,5.85,5.85,0,0,0,.72,1.78,2,2,0,0,0,1.34,1l-.07,0a2.84,2.84,0,0,0,1.59-.11,5.68,5.68,0,0,0,1.77-1,10.37,10.37,0,0,0,1.78-1.87,16.56,16.56,0,0,0,1.64-2.73c.26-.56.5-1.14.72-1.73s.42-1.16.61-1.7a.84.84,0,0,1,.72-.48,1.36,1.36,0,0,1,.87.22,1.76,1.76,0,0,1,.63.74,1.34,1.34,0,0,1,0,1.06l-.46,1.26c-.41,1.05-.94,2.21-1.57,3.48A19.28,19.28,0,0,1,246,676.1a7.39,7.39,0,0,1-1.82,1.52,8.36,8.36,0,0,1-1.82.8,7.46,7.46,0,0,1-1.59.32c-.48,0-.85,0-1.13,0a6.36,6.36,0,0,1-4.46-1.57,7.59,7.59,0,0,1-2.26-4.3,11.92,11.92,0,0,1,0-4.65,20.86,20.86,0,0,1,1.8-4.93,10.81,10.81,0,0,1,1.3-1.87,11.35,11.35,0,0,1,1.94-1.84,10.26,10.26,0,0,1,2.39-1.36,6.69,6.69,0,0,1,2.69-.49,3.72,3.72,0,0,1,2.5,1,4.06,4.06,0,0,1,1.28,2.5,5.62,5.62,0,0,1,0,1.42,5.81,5.81,0,0,1-.44,1.52Zm-2.73-2.86a4.39,4.39,0,0,0-2.1,1.11,10.05,10.05,0,0,0-1.66,2.07,13.57,13.57,0,0,0-1.17,2.53,17.7,17.7,0,0,0-.66,2.54,11.69,11.69,0,0,0,3.7-2.75,10.63,10.63,0,0,0,2.31-4.14v0a1.81,1.81,0,0,0,.12-.56,2,2,0,0,0,0-.49C244.12,661.3,243.94,661.18,243.66,661.28Z" transform="translate(-138.38 -295.86)"/><path class="cls-5" d="M267,671.06c-.26.61-.61,1.34-1.05,2.21a18.88,18.88,0,0,1-1.55,2.51,10.86,10.86,0,0,1-2,2.08,3.57,3.57,0,0,1-2.26.86,4.57,4.57,0,0,1-1.48-.26,4.1,4.1,0,0,1-1.37-.82,5.26,5.26,0,0,1-1.05-1.45,6.45,6.45,0,0,1-.57-2.12,13,13,0,0,1-.05-2.06,20.71,20.71,0,0,1,.21-2.13c.1-.75.25-1.56.43-2.43s.41-1.86.67-3a11.82,11.82,0,0,0,.24-1.31,3.31,3.31,0,0,0,0-1L256,663.62a25.48,25.48,0,0,0-1.92,2.43q-.84,1.2-1.68,2.67a34.22,34.22,0,0,0-.7,4.44,26.93,26.93,0,0,0,0,4.58c0,.26-.21.37-.61.35a4.31,4.31,0,0,1-1.37-.33,7.32,7.32,0,0,1-1.41-.75,1.68,1.68,0,0,1-.77-.91,21.28,21.28,0,0,1-.14-3.06c0-1,.08-2,.19-2.94s.24-1.92.4-2.86.34-1.9.53-2.85c.18-1.12.37-2.21.56-3.27s.33-2.08.45-3.06a1.27,1.27,0,0,1,1,0,5.83,5.83,0,0,1,1.37.61,7.92,7.92,0,0,1,1.33,1,4.72,4.72,0,0,1,.94,1.28,12.08,12.08,0,0,1,2.36-2.13,5.48,5.48,0,0,1,2.74-1,2.05,2.05,0,0,1,1.12.44,6.1,6.1,0,0,1,1.17,1.06,6.48,6.48,0,0,1,.9,1.37,2.35,2.35,0,0,1,.27,1.29c-.23,1.19-.46,2.3-.69,3.34s-.45,1.93-.63,2.67-.31,1.26-.44,1.8-.23,1.09-.32,1.63a14.69,14.69,0,0,0-.15,1.64,11.46,11.46,0,0,0,.07,1.82c0-.07.05-.14.17-.21h0a9.33,9.33,0,0,0,2-1.78,13.61,13.61,0,0,0,2.1-3.43c.18-.37.35-.73.5-1.08s.3-.7.44-1l.35-1c.07-.11.23-.14.49-.08a3,3,0,0,1,.8.33,2.74,2.74,0,0,1,.72.58c.2.22.26.41.19.57v-.07L267,671Z" transform="translate(-138.38 -295.86)"/><path class="cls-5" d="M298.09,667.37a9.36,9.36,0,0,0-.71-2.27,9.61,9.61,0,0,0-1.16-1.89,6,6,0,0,0-1.34-1.25,2.14,2.14,0,0,0-1.33-.42,3.3,3.3,0,0,1-.63,0h-.07a1.51,1.51,0,0,1-1.71-1q-1.23,4.19-2.14,8.31c-.6,2.75-1.13,5.43-1.57,8v0c0,.19-.14.26-.35.23a1.91,1.91,0,0,1-.73-.35,10.26,10.26,0,0,1-.91-.74,7.69,7.69,0,0,1-.89-.92,8.8,8.8,0,0,1-.67-.93,1.56,1.56,0,0,1-.26-.75c.14-1.86.4-3.92.77-6.16s.82-4.54,1.34-6.88,1.1-4.66,1.72-7,1.24-4.41,1.87-6.34a21.35,21.35,0,0,0-2.92,3,32.24,32.24,0,0,0-2.54,3.63,34.18,34.18,0,0,0-2,3.95,31.11,31.11,0,0,0-1.42,3.91,21.59,21.59,0,0,0-.73,3.51,8.09,8.09,0,0,0,.08,2.78c.07.28,0,.44-.19.49a1.58,1.58,0,0,1-.8-.12,5.94,5.94,0,0,1-1.12-.6,7.9,7.9,0,0,1-1.17-.94,6.53,6.53,0,0,1-1-1.19,3.39,3.39,0,0,1-.53-1.31,4,4,0,0,1,0-1.29,33.12,33.12,0,0,1,1.28-5.15,30,30,0,0,1,2.15-4.93,27.7,27.7,0,0,1,3-4.4,21.67,21.67,0,0,1,3.78-3.58,18.78,18.78,0,0,1,4.54-2.46,17.45,17.45,0,0,1,5.26-1.07h0a9.67,9.67,0,0,1,3.46.61,8.64,8.64,0,0,1,4.59,4.07,9.55,9.55,0,0,1,1,2.87c0,.32.07.6.08.84s0,.46,0,.7a10.83,10.83,0,0,1-2,6.27,9.88,9.88,0,0,1-2,2.07,12.47,12.47,0,0,1-2.4,1.47,19,19,0,0,1,1.79,1.41,14.26,14.26,0,0,1,1.6,1.7,12.26,12.26,0,0,1,1.26,1.87,10,10,0,0,1,.81,1.9,12.4,12.4,0,0,1-.37,6.34,11.6,11.6,0,0,1-3.29,4.94,15.49,15.49,0,0,1-5.64,3.18,22.82,22.82,0,0,1-7.45,1.09,15.92,15.92,0,0,1-4.21-.65,14.44,14.44,0,0,1-3.78-1.7,11.78,11.78,0,0,1-2.85-2.51,6.31,6.31,0,0,1-1.39-3.08,5.55,5.55,0,0,1,.21-2.45,8.22,8.22,0,0,1,1.22-2.51,7,7,0,0,1,1.27.17c.6.12,1.2.26,1.81.44a15.31,15.31,0,0,1,1.66.57,1.79,1.79,0,0,1,.89.6,6.53,6.53,0,0,0-1.73,2,3,3,0,0,0-.37,1.75,3.48,3.48,0,0,0,.75,1.61,5.84,5.84,0,0,0,1.56,1.33,8.91,8.91,0,0,0,2.13.89,9.11,9.11,0,0,0,2.45.33,15.16,15.16,0,0,0,5.05-.84,11.84,11.84,0,0,0,4.11-2.41,9.63,9.63,0,0,0,2.53-3.79A9.45,9.45,0,0,0,298.09,667.37Zm-2.48-23a7.9,7.9,0,0,0-2.11.35,9.46,9.46,0,0,0-2.05.91,10.61,10.61,0,0,1,1.19.79,6.88,6.88,0,0,1,1.12,1,5.08,5.08,0,0,1,.78,1.17,2,2,0,0,1,.23,1.17q-1.78,4.57-3.21,9.33l.12-.07.12-.07a10.05,10.05,0,0,0,1.92-.85,11.32,11.32,0,0,0,2.35-1.73,13.26,13.26,0,0,0,2.08-2.59,8.76,8.76,0,0,0,1.17-3.46,9.71,9.71,0,0,0,.05-1.21,8.81,8.81,0,0,0-.12-1.24,6.36,6.36,0,0,0-.37-1.36,3.94,3.94,0,0,0-.7-1.16,3.23,3.23,0,0,0-1.07-.77A3.48,3.48,0,0,0,295.61,644.32Z" transform="translate(-138.38 -295.86)"/><path class="cls-5" d="M318.09,664.14a13.21,13.21,0,0,1-3.23,5.25,13.69,13.69,0,0,1-5.09,3.11,5.85,5.85,0,0,0,.72,1.78,2,2,0,0,0,1.34,1l-.07,0a2.84,2.84,0,0,0,1.59-.11,5.68,5.68,0,0,0,1.77-1,10.37,10.37,0,0,0,1.78-1.87,16.56,16.56,0,0,0,1.64-2.73c.26-.56.5-1.14.72-1.73s.43-1.16.61-1.7a.85.85,0,0,1,.72-.48,1.36,1.36,0,0,1,.87.22,1.76,1.76,0,0,1,.63.74,1.34,1.34,0,0,1,0,1.06l-.45,1.26c-.42,1.05-1,2.21-1.58,3.48a19.28,19.28,0,0,1-2.41,3.69,7.39,7.39,0,0,1-1.82,1.52,8.36,8.36,0,0,1-1.82.8,7.46,7.46,0,0,1-1.59.32c-.47,0-.85,0-1.13,0a6.36,6.36,0,0,1-4.46-1.57,7.52,7.52,0,0,1-2.25-4.3,11.74,11.74,0,0,1,0-4.65,20.86,20.86,0,0,1,1.8-4.93,10.81,10.81,0,0,1,1.3-1.87,11.74,11.74,0,0,1,1.94-1.84,10.26,10.26,0,0,1,2.39-1.36,6.69,6.69,0,0,1,2.69-.49,3.7,3.7,0,0,1,2.5,1,4.06,4.06,0,0,1,1.28,2.5,5.62,5.62,0,0,1,0,1.42,5.81,5.81,0,0,1-.44,1.52Zm-2.73-2.86a4.31,4.31,0,0,0-2.09,1.11,9.77,9.77,0,0,0-1.67,2.07,13.57,13.57,0,0,0-1.17,2.53,17.7,17.7,0,0,0-.66,2.54,11.69,11.69,0,0,0,3.7-2.75,10.63,10.63,0,0,0,2.31-4.14v0a1.81,1.81,0,0,0,.12-.56,2,2,0,0,0,0-.49C315.82,661.3,315.64,661.18,315.36,661.28Z" transform="translate(-138.38 -295.86)"/><path class="cls-5" d="M332.53,664.14a13.23,13.23,0,0,1-3.24,5.25,13.57,13.57,0,0,1-5.08,3.11,6.09,6.09,0,0,0,.71,1.78,2,2,0,0,0,1.35,1l-.07,0a2.84,2.84,0,0,0,1.59-.11,5.68,5.68,0,0,0,1.77-1,10.37,10.37,0,0,0,1.78-1.87,16.56,16.56,0,0,0,1.64-2.73c.26-.56.5-1.14.72-1.73s.42-1.16.61-1.7a.84.84,0,0,1,.72-.48,1.36,1.36,0,0,1,.87.22,1.76,1.76,0,0,1,.63.74,1.34,1.34,0,0,1,0,1.06l-.46,1.26c-.42,1.05-.94,2.21-1.57,3.48a19.28,19.28,0,0,1-2.41,3.69,7.58,7.58,0,0,1-1.82,1.52,8.58,8.58,0,0,1-1.82.8,7.46,7.46,0,0,1-1.59.32c-.48,0-.86,0-1.13,0a6.36,6.36,0,0,1-4.46-1.57,7.53,7.53,0,0,1-2.26-4.3,11.92,11.92,0,0,1,0-4.65,20.86,20.86,0,0,1,1.8-4.93,10.19,10.19,0,0,1,1.29-1.87,12.14,12.14,0,0,1,1.94-1.84,10.53,10.53,0,0,1,2.4-1.36,6.69,6.69,0,0,1,2.69-.49,3.72,3.72,0,0,1,2.5,1,4.11,4.11,0,0,1,1.28,2.5,5.19,5.19,0,0,1,0,1.42,5.41,5.41,0,0,1-.43,1.52Zm-2.73-2.86a4.39,4.39,0,0,0-2.1,1.11,9.73,9.73,0,0,0-1.66,2.07,12.4,12.4,0,0,0-1.17,2.53,17.7,17.7,0,0,0-.66,2.54,11.8,11.8,0,0,0,3.7-2.75,10.63,10.63,0,0,0,2.31-4.14v0a1.81,1.81,0,0,0,.12-.56,2.6,2.6,0,0,0,0-.49C330.25,661.3,330.08,661.18,329.8,661.28Z" transform="translate(-138.38 -295.86)"/><path class="cls-5" d="M343.29,659.56c0,.26-.16.4-.55.44a4.7,4.7,0,0,1-1.35-.12,8.74,8.74,0,0,1-1.47-.49,2.17,2.17,0,0,1-.93-.63,17.54,17.54,0,0,1-.17-5,12.88,12.88,0,0,1,1.08-3.88,10.7,10.7,0,0,1,2-2.9,16.27,16.27,0,0,1,2.56-2.12,16.55,16.55,0,0,1,2.74-1.47c.93-.38,1.81-.7,2.62-1a22.36,22.36,0,0,1,4.48-1,43.75,43.75,0,0,1,4.68-.26q2,0,4.2.12c1.44.07,2.79.17,4.05.28s2.27.17,3.39.23,2.18.1,3.18.1a23.44,23.44,0,0,0,3.41-.22,8.19,8.19,0,0,0,2.64-.83c.16-.07.3.12.42.56a9.07,9.07,0,0,1,.25,1.57,16.69,16.69,0,0,1,0,1.72c0,.55-.1.89-.24,1a12.07,12.07,0,0,1-3,.84,23.17,23.17,0,0,1-3.38.25,40,40,0,0,1-4-.21c-1.39-.14-2.8-.29-4.22-.46l-4.61-.47c-1.54-.15-3-.23-4.55-.23-.93,0-1.85,0-2.76.13a22.08,22.08,0,0,0-2.69.4,12,12,0,0,0-3.37,1.27,8.23,8.23,0,0,0-2.71,2.49,10.49,10.49,0,0,0-1.61,4A18.92,18.92,0,0,0,343.29,659.56Zm13.64-13.88c.09-.11.28-.15.56-.1a3.51,3.51,0,0,1,1,.37,8.05,8.05,0,0,1,1.18.73,8.47,8.47,0,0,1,1.1,1,4.26,4.26,0,0,1,.78,1.15,2.09,2.09,0,0,1,.21,1.17q-1.37,2.34-2.65,5.07t-2.38,5.61c-.72,1.93-1.39,3.87-2,5.82s-1.11,3.86-1.51,5.7-.7,3.59-.91,5.25a24.94,24.94,0,0,0-.21,4.44c0,.18-.18.16-.56-.07a11.21,11.21,0,0,1-1.25-.95,13.94,13.94,0,0,1-1.3-1.24,2.77,2.77,0,0,1-.66-1,22.64,22.64,0,0,1,0-4.79,53.22,53.22,0,0,1,.93-5.66q.65-3,1.56-6.09t1.94-6.08q1-3,2.09-5.63C355.59,648.63,356.28,647.06,356.93,645.68Z" transform="translate(-138.38 -295.86)"/><path class="cls-5" d="M374.3,671.8a25.52,25.52,0,0,1-1.38,2.43,12.35,12.35,0,0,1-1.8,2.25,8.78,8.78,0,0,1-2.22,1.65,5.22,5.22,0,0,1-2.64.56,3.62,3.62,0,0,1-1.5-.39,3.69,3.69,0,0,1-1.15-.93,5,5,0,0,1-.81-1.31,5.79,5.79,0,0,1-.42-1.53,8.74,8.74,0,0,1,0-2.17,10.66,10.66,0,0,1,.44-1.93,15.06,15.06,0,0,1,.72-1.78c.28-.58.58-1.17.9-1.78l.53-1v0l.63-1.18a2,2,0,0,1,.52-.7,3.5,3.5,0,0,1,1.26-.6l-.73.16a3.91,3.91,0,0,0-.49.12l-.84.21a3.37,3.37,0,0,1-1.05.07H364c-.4.79-.75,1.57-1,2.33l-.88,2.15,0,0c-.05.14-.2.18-.46.11a2.9,2.9,0,0,1-.78-.37,3.35,3.35,0,0,1-.69-.59c-.18-.23-.24-.42-.17-.58v0l1.68-4a2.75,2.75,0,0,1-.6-1.44,3.79,3.79,0,0,1,.14-1.92c.21-.56.47-1.21.77-2,.12-.3.23-.64.35-1a11.53,11.53,0,0,0,.32-1.36l1.15.57a6.86,6.86,0,0,1,1.1.7,4.21,4.21,0,0,1,.86.93,3,3,0,0,1,.45,1.19,2.14,2.14,0,0,1,.05.68,5.32,5.32,0,0,1-.12.86l-.94,1.57c-.07.14,0,.16.19.05a6.73,6.73,0,0,0,.84-.54c.36-.26.76-.56,1.21-.91s.86-.7,1.27-1,.78-.67,1.1-1a3.12,3.12,0,0,0,.63-.7,1.32,1.32,0,0,1,.58.21c.24.14.5.3.77.48a7.6,7.6,0,0,1,.7.49,4.37,4.37,0,0,1,.36.29,2.24,2.24,0,0,1,.46,1.42,5.65,5.65,0,0,1-.33,1.8,15,15,0,0,1-.91,2.08c-.39.73-.79,1.48-1.21,2.25-.25.42-.5.84-.73,1.26s-.47.85-.7,1.3-.39.7-.6,1.12-.4.84-.57,1.27a8.31,8.31,0,0,0-.42,1.28,2.51,2.51,0,0,0-.09,1.05q0,.21.42.21a1.63,1.63,0,0,0,.91-.27,4.81,4.81,0,0,0,1.08-.84,9.39,9.39,0,0,0,1.1-1.27,8.24,8.24,0,0,0,.93-1.61h0c.35-.75.67-1.48,1-2.2s.53-1.34.71-1.86c.07-.11.24-.13.51,0a2.85,2.85,0,0,1,.8.4,3.3,3.3,0,0,1,.69.65c.18.25.24.45.17.61v-.07l-.66,1.75-.91,2.34Z" transform="translate(-138.38 -295.86)"/><path class="cls-5" d="M388.15,663.83a.43.43,0,0,1-.2.35,1.24,1.24,0,0,1-.48.19,2.78,2.78,0,0,1-.65,0,2.91,2.91,0,0,1-.63-.14,11.2,11.2,0,0,1,1.15.75,6.66,6.66,0,0,1,1,.92,4,4,0,0,1,.7,1,2,2,0,0,1,.23,1c-.05.16-.09.34-.14.54s-.09.4-.14.61c-.09.44-.19.92-.3,1.43s-.19,1-.28,1.51-.14.95-.17,1.38a4.35,4.35,0,0,0,0,1.1c0,.05,0,.11-.07.17h.24a4.13,4.13,0,0,0,1.64-1.15,10.48,10.48,0,0,0,1.33-1.83,16.74,16.74,0,0,0,1.07-2.21c.31-.78.61-1.53.89-2.25a4.15,4.15,0,0,0,.39-.95c.07-.11.23-.14.5-.08a2.94,2.94,0,0,1,.82.33,3,3,0,0,1,.74.58q.32.33.21.57l-.56,1.4v0c-.54,1.37-1.13,2.73-1.78,4.07a15.37,15.37,0,0,1-2.45,3.62,8.38,8.38,0,0,1-.6.61,4.94,4.94,0,0,1-1.92,1.12,3.56,3.56,0,0,1-1.33.15,4.1,4.1,0,0,1-2.72-1.17,5.35,5.35,0,0,1-1.4-2.6A13.13,13.13,0,0,1,381,677.5a4.34,4.34,0,0,1-2.71,1.08,5.47,5.47,0,0,1-2.36-.75,6.49,6.49,0,0,1-1.66-1.45,7,7,0,0,1-1-1.8,10.33,10.33,0,0,1-.51-1.8,9.73,9.73,0,0,1-.1-1.26,11,11,0,0,1,.24-2.83,20,20,0,0,1,.91-3.08,16.6,16.6,0,0,1,1.51-3,14.36,14.36,0,0,1,2-2.55,9.43,9.43,0,0,1,2.47-1.79,6.47,6.47,0,0,1,2.88-.66,5.49,5.49,0,0,1,.91.07c.3,0,.63.12,1,.21a3.89,3.89,0,0,1,1.56.89,5.37,5.37,0,0,1,1.06,1.43,9.45,9.45,0,0,1,.67,1.75A13.53,13.53,0,0,1,388.15,663.83Zm-4.09,0a1,1,0,0,1,.78-.07,5.15,5.15,0,0,1,1.1.38.47.47,0,0,1-.24-.38.92.92,0,0,0-.05-.25,1.31,1.31,0,0,1-.09-.28,6.38,6.38,0,0,0-.21-.73,3.43,3.43,0,0,0-.35-.72,1.88,1.88,0,0,0-.51-.54,1.42,1.42,0,0,0-.75-.24,3.28,3.28,0,0,0-2.36.92,8.52,8.52,0,0,0-1.83,2.43,16.18,16.18,0,0,0-1.26,3.15,16.67,16.67,0,0,0-.63,3,4,4,0,0,0-.05,1,7.23,7.23,0,0,0,.12,1.14,2.65,2.65,0,0,0,.52,1.33q.42.53,1.44.24a2.64,2.64,0,0,0,1.05-.8,14.08,14.08,0,0,0,1.18-1.56,21.5,21.5,0,0,0,1.14-1.89c.36-.66.66-1.26.89-1.8.12-.72.22-1.41.3-2.08a7.64,7.64,0,0,0,.05-1.69Z" transform="translate(-138.38 -295.86)"/><path class="cls-5" d="M410,668.93c-.42,1.05-.94,2.21-1.57,3.48A19.28,19.28,0,0,1,406,676.1a7.58,7.58,0,0,1-1.82,1.52,8.58,8.58,0,0,1-1.82.8,7.46,7.46,0,0,1-1.59.32c-.48,0-.86,0-1.14,0a6.35,6.35,0,0,1-4.45-1.57,7.53,7.53,0,0,1-2.26-4.3,11.73,11.73,0,0,1,0-4.65,20,20,0,0,1,1.8-4.93,10.19,10.19,0,0,1,1.29-1.87,12.14,12.14,0,0,1,1.94-1.84,10.32,10.32,0,0,1,2.4-1.36,6.69,6.69,0,0,1,2.69-.49,3.57,3.57,0,0,1,2.46,1,4.14,4.14,0,0,1,1.25,2.43,5.82,5.82,0,0,1,0,1.38,4.93,4.93,0,0,1-.38,1.42,1.11,1.11,0,0,1-.69.54,1.08,1.08,0,0,1-.78-.12,1.68,1.68,0,0,1-.65-.67,1.9,1.9,0,0,1-.23-1.05,1.67,1.67,0,0,0,.11-1.12.5.5,0,0,0-.14-.26.41.41,0,0,0-.35,0,4.33,4.33,0,0,0-2.34,1.36,11.16,11.16,0,0,0-1.75,2.48,14.69,14.69,0,0,0-1.16,2.92,13.42,13.42,0,0,0-.48,2.67v.63a4.32,4.32,0,0,0,.07.77,4.54,4.54,0,0,0,.24,1,4.86,4.86,0,0,0,.44,1,3.57,3.57,0,0,0,.61.77,1.69,1.69,0,0,0,.84.43l-.07,0a2.84,2.84,0,0,0,1.59-.11,5.53,5.53,0,0,0,1.76-1,10.4,10.4,0,0,0,1.79-1.87,16.56,16.56,0,0,0,1.64-2.73c.26-.56.49-1.14.72-1.73s.42-1.16.61-1.7a.84.84,0,0,1,.72-.48,1.42,1.42,0,0,1,.89.21,1.58,1.58,0,0,1,.64.71,1.36,1.36,0,0,1,0,1.1Z" transform="translate(-138.38 -295.86)"/><path class="cls-5" d="M427.16,668.23c-.44,1.07-.94,2.23-1.48,3.46a19.46,19.46,0,0,1-2,3.43,10.91,10.91,0,0,1-2.61,2.6,5.73,5.73,0,0,1-6.94-.29,9.49,9.49,0,0,1-2.5-3.15,28.53,28.53,0,0,0,0,3.46c0,.26-.2.37-.61.35a4.26,4.26,0,0,1-1.36-.33,7.71,7.71,0,0,1-1.42-.75,1.73,1.73,0,0,1-.77-.91,22.86,22.86,0,0,1-.08-4.3,35.82,35.82,0,0,1,.57-4.34c.28-1.44.62-2.89,1-4.33s.79-2.88,1.19-4.3l.66-2.24c.23-.88.47-1.79.7-2.71s.45-1.82.65-2.71.36-1.74.49-2.57.22-1.59.29-2.29a1.56,1.56,0,0,1,1.31,0,5.74,5.74,0,0,1,1.66.93,6.87,6.87,0,0,1,1.4,1.45,2.36,2.36,0,0,1,.53,1.59c-.07.35-.19.85-.35,1.5s-.36,1.38-.6,2.19-.48,1.64-.75,2.51-.52,1.71-.75,2.5l-.31.91a9.64,9.64,0,0,1,1.94-1.4,5.58,5.58,0,0,1,2.18-.66,2.17,2.17,0,0,1,1.14.44,6.25,6.25,0,0,1,1.2,1.06,5.19,5.19,0,0,1,.89,1.37,2.12,2.12,0,0,1,.23,1.29,14.08,14.08,0,0,1-.58,2.39c-.26.81-.53,1.56-.78,2.26s-.48,1.34-.67,2a8.44,8.44,0,0,0-.21,2.5,10.86,10.86,0,0,1-2.16-1.07,7.42,7.42,0,0,1-1.44-1.19,4.77,4.77,0,0,1-.82-1.18,5.55,5.55,0,0,1-.37-1.11,4,4,0,0,1,0-1,2.39,2.39,0,0,1,.15-.67c.35-.67.63-1.27.84-1.78s.38-.93.49-1.26a7.2,7.2,0,0,1-1.15,1.68c-.37.42-.72.83-1.05,1.24s-.65.83-1,1.27a8.64,8.64,0,0,0-.66,2.29,6.09,6.09,0,0,0,0,1.91,4.37,4.37,0,0,0,.61,1.78,5.24,5.24,0,0,0,1.1,1.31,4.3,4.3,0,0,0,1.35.81,4.05,4.05,0,0,0,1.38.26,4.56,4.56,0,0,0,2.62-.86,8.78,8.78,0,0,0,2-2A15.06,15.06,0,0,0,424,669c.43-1,.81-1.82,1.14-2.64.07-.12.24-.14.51-.07a3.54,3.54,0,0,1,.82.35,2.54,2.54,0,0,1,.71.58c.2.22.27.41.2.57v-.07Z" transform="translate(-138.38 -295.86)"/><path class="cls-5" d="M437.72,664.14a13.12,13.12,0,0,1-3.24,5.25,13.57,13.57,0,0,1-5.08,3.11,6.09,6.09,0,0,0,.71,1.78,2,2,0,0,0,1.35,1l-.07,0a2.84,2.84,0,0,0,1.59-.11,5.68,5.68,0,0,0,1.77-1,10.37,10.37,0,0,0,1.78-1.87,16.56,16.56,0,0,0,1.64-2.73c.26-.56.5-1.14.72-1.73s.42-1.16.61-1.7a.84.84,0,0,1,.72-.48,1.36,1.36,0,0,1,.87.22,1.76,1.76,0,0,1,.63.74,1.34,1.34,0,0,1,0,1.06l-.46,1.26c-.42,1.05-.94,2.21-1.57,3.48a19.28,19.28,0,0,1-2.41,3.69,7.39,7.39,0,0,1-1.82,1.52,8.36,8.36,0,0,1-1.82.8,7.46,7.46,0,0,1-1.59.32c-.48,0-.85,0-1.13,0a6.36,6.36,0,0,1-4.46-1.57,7.59,7.59,0,0,1-2.26-4.3,11.92,11.92,0,0,1,0-4.65,20.86,20.86,0,0,1,1.8-4.93,10.28,10.28,0,0,1,1.3-1.87,11.35,11.35,0,0,1,1.94-1.84,10.26,10.26,0,0,1,2.39-1.36,6.69,6.69,0,0,1,2.69-.49,3.72,3.72,0,0,1,2.5,1,4.11,4.11,0,0,1,1.28,2.5,5.62,5.62,0,0,1,0,1.42,5.81,5.81,0,0,1-.44,1.52ZM435,661.28a4.39,4.39,0,0,0-2.1,1.11,9.73,9.73,0,0,0-1.66,2.07,13,13,0,0,0-1.17,2.53,17.7,17.7,0,0,0-.66,2.54,11.8,11.8,0,0,0,3.7-2.75,10.63,10.63,0,0,0,2.31-4.14v0a1.81,1.81,0,0,0,.12-.56,2.6,2.6,0,0,0,0-.49C435.45,661.3,435.27,661.18,435,661.28Z" transform="translate(-138.38 -295.86)"/><path class="cls-5" d="M453.76,671.8a25.52,25.52,0,0,1-1.38,2.43,12.35,12.35,0,0,1-1.8,2.25,8.78,8.78,0,0,1-2.22,1.65,5.22,5.22,0,0,1-2.64.56,3.62,3.62,0,0,1-1.5-.39,3.69,3.69,0,0,1-1.15-.93,5,5,0,0,1-.81-1.31,5.79,5.79,0,0,1-.42-1.53,8.74,8.74,0,0,1,0-2.17,11.57,11.57,0,0,1,.44-1.93,15.06,15.06,0,0,1,.72-1.78c.28-.58.58-1.17.91-1.78l.52-1v0l.63-1.18a2.17,2.17,0,0,1,.52-.7,3.68,3.68,0,0,1,1.26-.6l-.73.16a3.91,3.91,0,0,0-.49.12l-.84.21a3.37,3.37,0,0,1-1,.07h-.31c-.4.79-.75,1.57-1.05,2.33l-.88,2.15,0,0c0,.14-.2.18-.46.11a3.26,3.26,0,0,1-1.46-1c-.19-.23-.25-.42-.18-.58v0l1.68-4a2.75,2.75,0,0,1-.6-1.44,3.9,3.9,0,0,1,.14-1.92c.21-.56.47-1.21.77-2,.12-.3.24-.64.35-1a11.53,11.53,0,0,0,.32-1.36l1.15.57a6.44,6.44,0,0,1,1.1.7,4,4,0,0,1,.86.93,3,3,0,0,1,.45,1.19,2.46,2.46,0,0,1,.06.68,7,7,0,0,1-.13.86l-.94,1.57c-.07.14,0,.16.19.05a6.73,6.73,0,0,0,.84-.54c.36-.26.76-.56,1.21-.91s.87-.7,1.27-1,.78-.67,1.1-1a3.12,3.12,0,0,0,.63-.7,1.28,1.28,0,0,1,.58.21c.25.14.5.3.77.48a7.6,7.6,0,0,1,.7.49l.37.29a2.29,2.29,0,0,1,.45,1.42,5.65,5.65,0,0,1-.33,1.8,15,15,0,0,1-.91,2.08c-.38.73-.79,1.48-1.21,2.25-.25.42-.5.84-.73,1.26s-.47.85-.7,1.3-.38.7-.59,1.12-.41.84-.58,1.27a8.31,8.31,0,0,0-.42,1.28,2.69,2.69,0,0,0-.09,1.05q0,.21.42.21a1.63,1.63,0,0,0,.91-.27,4.81,4.81,0,0,0,1.08-.84,10.19,10.19,0,0,0,1.11-1.27,8.2,8.2,0,0,0,.92-1.61h0c.35-.75.67-1.48,1-2.2s.53-1.34.72-1.86c.06-.11.23-.13.5,0a3,3,0,0,1,.81.4,3.51,3.51,0,0,1,.68.65c.18.25.24.45.17.61v-.07l-.66,1.75-.91,2.34Z" transform="translate(-138.38 -295.86)"/><path class="cls-6" d="M189.07,671a17.64,17.64,0,0,1,1.54-10.31,17.5,17.5,0,0,1,.49-5,22.12,22.12,0,0,1,1.67-4.62,21.24,21.24,0,0,1,2.61-4,21.62,21.62,0,0,1,3.25-3.24,16.56,16.56,0,0,1,3.62-2.22,11.4,11.4,0,0,1,3.74-1,12,12,0,0,1,4.74.91,11.44,11.44,0,0,1,3.67,2.5,13.36,13.36,0,0,1,2.55,3.78,18.86,18.86,0,0,1,1.41,4.7,25.7,25.7,0,0,1,.21,6.36,33.86,33.86,0,0,1-1.2,6.61,32,32,0,0,1-2.5,6.22,23,23,0,0,1-3.72,5.2,16.81,16.81,0,0,1-4.85,3.49,13.07,13.07,0,0,1-10.45.17,10.57,10.57,0,0,1-3.39-2.34,11.49,11.49,0,0,1-2.24-3.32A15.08,15.08,0,0,1,189.07,671Zm6.57-15.42a3.64,3.64,0,0,1,1.94.6,7.06,7.06,0,0,1,1.63,1.36,4.32,4.32,0,0,1,.89,1.49c.15.47.09.79-.19,1a8.39,8.39,0,0,0-3,1.55,11.39,11.39,0,0,0-2.39,2.64,14.68,14.68,0,0,0,1,2.8,11.47,11.47,0,0,0,1.62,2.52.47.47,0,0,1-.22.68,3,3,0,0,1-1.09.35,4.29,4.29,0,0,1-1.29,0,1.36,1.36,0,0,1-.89-.42,8,8,0,0,1-.49-.82,8.56,8.56,0,0,1-.39-.86,10.67,10.67,0,0,0-.21,3.95,6.85,6.85,0,0,0,.72,2.17,5.48,5.48,0,0,0,1.47,1.75,7.15,7.15,0,0,0,2.27,1.17,10.44,10.44,0,0,0,3.2.44,6.75,6.75,0,0,0,3.83-1.25,14.15,14.15,0,0,0,3.39-3.32,25.35,25.35,0,0,0,2.78-4.77,35.47,35.47,0,0,0,3-11.43,23.19,23.19,0,0,0-.14-5.38,13.83,13.83,0,0,0-.76-2.8,7,7,0,0,0-1.34-2.22,6.15,6.15,0,0,0-2-1.47,6.81,6.81,0,0,0-2.68-.58,8.48,8.48,0,0,0-3.86.86A12.26,12.26,0,0,0,199,648a16.09,16.09,0,0,0-2.63,3.63,19.54,19.54,0,0,0-1.72,4.39l.77-.38Z" transform="translate(-138.38 -295.86)"/><path class="cls-6" d="M219.73,658.06a1.22,1.22,0,0,1,1,0,4.94,4.94,0,0,1,1.29.54,6.86,6.86,0,0,1,1.31,1,4.7,4.7,0,0,1,1,1.21,11.86,11.86,0,0,1,3-2.15,5.37,5.37,0,0,1,5.26,0,5.08,5.08,0,0,1,1.42,1.22,6,6,0,0,1,.91,1.63,8.83,8.83,0,0,1,.47,1.87,9.75,9.75,0,0,1,.14,1.62,14.25,14.25,0,0,1-.07,1.52,17.21,17.21,0,0,1-1.12,4.25,16.5,16.5,0,0,1-2.1,3.76,11.74,11.74,0,0,1-2.9,2.78,7.79,7.79,0,0,1-3.46,1.31,5.63,5.63,0,0,1-2.81-.73,5.86,5.86,0,0,1-1.87-1.72c0,.12-.09.24-.13.37a2.29,2.29,0,0,1-.12.37c-.3,1-.59,2-.87,3s-.53,2.11-.74,3.18a29.71,29.71,0,0,0-.45,3.26,21.57,21.57,0,0,0,0,3.21c0,.28-.16.42-.56.42a3.54,3.54,0,0,1-1.32-.3,6.91,6.91,0,0,1-1.42-.75,1.81,1.81,0,0,1-.82-.94,19.35,19.35,0,0,1-.11-3.48,33.22,33.22,0,0,1,.39-3.44c.18-1.15.42-2.29.71-3.43s.61-2.29.93-3.46c.28-1,.54-1.93.77-2.87s.45-1.87.66-2.83v.11c.12-.7.24-1.41.37-2.14s.26-1.44.4-2.16c.19-1.12.38-2.21.56-3.25A29.13,29.13,0,0,0,219.73,658.06Zm2.76,13-.07.28.1.77a3.82,3.82,0,0,0,.53,1.38,1.48,1.48,0,0,0,1.19.69,2.56,2.56,0,0,0,1.61-.49,7.85,7.85,0,0,0,1.62-1.52,13.51,13.51,0,0,0,1.45-2.22,22.77,22.77,0,0,0,1.14-2.54,14.35,14.35,0,0,0,.68-2.5,6.79,6.79,0,0,0,.07-2.13c-.12-.72-.47-1.1-1.05-1.12a4.53,4.53,0,0,0-1.59.24,7.17,7.17,0,0,0-1.63.83A10.51,10.51,0,0,0,225,664a10.07,10.07,0,0,0-1.3,1.61c-.18.86-.39,1.77-.61,2.73s-.41,1.86-.58,2.72Z" transform="translate(-138.38 -295.86)"/><path class="cls-6" d="M249,664.14a13.12,13.12,0,0,1-3.24,5.25,13.57,13.57,0,0,1-5.08,3.11,6.09,6.09,0,0,0,.71,1.78,2,2,0,0,0,1.35,1l-.07,0a2.84,2.84,0,0,0,1.59-.11,5.68,5.68,0,0,0,1.77-1,10.37,10.37,0,0,0,1.78-1.87,16.56,16.56,0,0,0,1.64-2.73c.26-.56.5-1.14.72-1.73s.42-1.16.61-1.7a.84.84,0,0,1,.72-.48,1.36,1.36,0,0,1,.87.22,1.76,1.76,0,0,1,.63.74,1.34,1.34,0,0,1,0,1.06l-.46,1.26c-.42,1.05-.94,2.21-1.57,3.48a19.28,19.28,0,0,1-2.41,3.69,7.39,7.39,0,0,1-1.82,1.52,8.36,8.36,0,0,1-1.82.8,7.46,7.46,0,0,1-1.59.32c-.48,0-.85,0-1.13,0a6.36,6.36,0,0,1-4.46-1.57,7.59,7.59,0,0,1-2.26-4.3,11.92,11.92,0,0,1,0-4.65,20.86,20.86,0,0,1,1.8-4.93,10.28,10.28,0,0,1,1.3-1.87,11.35,11.35,0,0,1,1.94-1.84,10.26,10.26,0,0,1,2.39-1.36,6.69,6.69,0,0,1,2.69-.49,3.72,3.72,0,0,1,2.5,1,4.11,4.11,0,0,1,1.28,2.5,5.62,5.62,0,0,1,0,1.42,5.81,5.81,0,0,1-.44,1.52Zm-2.73-2.86a4.39,4.39,0,0,0-2.1,1.11,9.73,9.73,0,0,0-1.66,2.07,13,13,0,0,0-1.17,2.53,17.7,17.7,0,0,0-.66,2.54,11.8,11.8,0,0,0,3.7-2.75,10.63,10.63,0,0,0,2.31-4.14v0a1.81,1.81,0,0,0,.12-.56,2.6,2.6,0,0,0,0-.49C246.72,661.3,246.54,661.18,246.26,661.28Z" transform="translate(-138.38 -295.86)"/><path class="cls-6" d="M269.58,671.06c-.26.61-.61,1.34-1.05,2.21a18,18,0,0,1-1.56,2.51,10.52,10.52,0,0,1-2,2.08,3.57,3.57,0,0,1-2.26.86,4.57,4.57,0,0,1-1.48-.26,4,4,0,0,1-1.37-.82,5.06,5.06,0,0,1-1.05-1.45,6.45,6.45,0,0,1-.57-2.12,14.3,14.3,0,0,1-.06-2.06q.06-1,.21-2.13c.11-.75.25-1.56.44-2.43s.41-1.86.67-3a11.82,11.82,0,0,0,.24-1.31,3.31,3.31,0,0,0,0-1l-1.19,1.44a25.48,25.48,0,0,0-1.92,2.43q-.84,1.2-1.68,2.67a34.22,34.22,0,0,0-.7,4.44,26.93,26.93,0,0,0,0,4.58c0,.26-.21.37-.61.35a4.31,4.31,0,0,1-1.37-.33,7.32,7.32,0,0,1-1.41-.75,1.68,1.68,0,0,1-.77-.91A21.28,21.28,0,0,1,250,673c0-1,.08-2,.19-2.94s.24-1.92.4-2.86.34-1.9.53-2.85c.18-1.12.37-2.21.56-3.27s.33-2.08.45-3.06a1.27,1.27,0,0,1,1,0,5.83,5.83,0,0,1,1.37.61,7.92,7.92,0,0,1,1.33,1,4.72,4.72,0,0,1,.94,1.28,12.08,12.08,0,0,1,2.36-2.13,5.48,5.48,0,0,1,2.74-1,2.05,2.05,0,0,1,1.12.44,6.23,6.23,0,0,1,2.06,2.43,2.28,2.28,0,0,1,.28,1.29c-.23,1.19-.46,2.3-.7,3.34s-.44,1.93-.62,2.67-.31,1.26-.44,1.8-.23,1.09-.32,1.63a14.69,14.69,0,0,0-.15,1.64,11.46,11.46,0,0,0,.07,1.82c0-.07.05-.14.17-.21h0a9.33,9.33,0,0,0,2-1.78,13.9,13.9,0,0,0,2.1-3.43c.18-.37.35-.73.5-1.08s.3-.7.44-1l.35-1c.07-.11.23-.14.49-.08a3,3,0,0,1,.8.33,2.74,2.74,0,0,1,.72.58c.2.22.26.41.19.57v-.07L269.58,671Z" transform="translate(-138.38 -295.86)"/><path class="cls-6" d="M300.69,667.37a9.36,9.36,0,0,0-.71-2.27,9.61,9.61,0,0,0-1.16-1.89,6,6,0,0,0-1.34-1.25,2.14,2.14,0,0,0-1.33-.42,3.3,3.3,0,0,1-.63,0h-.07a1.5,1.5,0,0,1-1.71-1q-1.23,4.19-2.14,8.31c-.6,2.75-1.13,5.43-1.57,8v0c0,.19-.14.26-.35.23a1.91,1.91,0,0,1-.73-.35A10.26,10.26,0,0,1,288,676a7.69,7.69,0,0,1-.89-.92,8.8,8.8,0,0,1-.67-.93,1.56,1.56,0,0,1-.26-.75c.14-1.86.4-3.92.77-6.16s.82-4.54,1.34-6.88,1.1-4.66,1.72-7,1.24-4.41,1.87-6.34a21.35,21.35,0,0,0-2.92,3,32.24,32.24,0,0,0-2.54,3.63,32.67,32.67,0,0,0-2,3.95,31.11,31.11,0,0,0-1.42,3.91,21.59,21.59,0,0,0-.73,3.51,8.09,8.09,0,0,0,.08,2.78c.07.28,0,.44-.19.49a1.57,1.57,0,0,1-.8-.12,5.94,5.94,0,0,1-1.12-.6,7.9,7.9,0,0,1-1.17-.94,6.53,6.53,0,0,1-1-1.19,3.39,3.39,0,0,1-.53-1.31,4,4,0,0,1,0-1.29,33.12,33.12,0,0,1,1.28-5.15,30,30,0,0,1,2.15-4.93,27.7,27.7,0,0,1,3-4.4,22,22,0,0,1,3.77-3.58,19,19,0,0,1,4.55-2.46,17.45,17.45,0,0,1,5.26-1.07h0a9.67,9.67,0,0,1,3.46.61,8.86,8.86,0,0,1,2.72,1.66,8.69,8.69,0,0,1,1.87,2.41,9.55,9.55,0,0,1,1,2.87c0,.32.07.6.08.84s0,.46,0,.7a11.22,11.22,0,0,1-.58,3.51,10.87,10.87,0,0,1-1.41,2.76,10.13,10.13,0,0,1-2,2.07,12.47,12.47,0,0,1-2.4,1.47,19,19,0,0,1,1.79,1.41,15.12,15.12,0,0,1,1.6,1.7,12.26,12.26,0,0,1,1.26,1.87,10,10,0,0,1,.81,1.9,12.4,12.4,0,0,1-.37,6.34,11.6,11.6,0,0,1-3.29,4.94,15.57,15.57,0,0,1-5.64,3.18,22.82,22.82,0,0,1-7.45,1.09,15.92,15.92,0,0,1-4.21-.65,14.44,14.44,0,0,1-3.78-1.7,11.78,11.78,0,0,1-2.85-2.51,6.42,6.42,0,0,1-1.4-3.08,5.86,5.86,0,0,1,.21-2.45,8.48,8.48,0,0,1,1.23-2.51,7.11,7.11,0,0,1,1.27.17c.6.12,1.2.26,1.8.44a14.79,14.79,0,0,1,1.67.57,1.79,1.79,0,0,1,.89.6,6.53,6.53,0,0,0-1.73,2,3,3,0,0,0-.37,1.75,3.48,3.48,0,0,0,.75,1.61,5.84,5.84,0,0,0,1.56,1.33,8.91,8.91,0,0,0,2.13.89,9.11,9.11,0,0,0,2.45.33,15.16,15.16,0,0,0,5.05-.84,11.84,11.84,0,0,0,4.11-2.41,9.63,9.63,0,0,0,2.53-3.79A9.45,9.45,0,0,0,300.69,667.37Zm-2.48-23a7.9,7.9,0,0,0-2.11.35,9.46,9.46,0,0,0-2.05.91,10.61,10.61,0,0,1,1.19.79,6.88,6.88,0,0,1,1.12,1,5.08,5.08,0,0,1,.78,1.17,2,2,0,0,1,.23,1.17q-1.78,4.57-3.21,9.33l.12-.07.12-.07a10.05,10.05,0,0,0,1.92-.85,11.59,11.59,0,0,0,2.35-1.73,13.26,13.26,0,0,0,2.08-2.59,8.76,8.76,0,0,0,1.17-3.46,9.71,9.71,0,0,0,.05-1.21,8.81,8.81,0,0,0-.12-1.24,6.36,6.36,0,0,0-.37-1.36,3.94,3.94,0,0,0-.7-1.16,3.23,3.23,0,0,0-1.07-.77A3.48,3.48,0,0,0,298.21,644.32Z" transform="translate(-138.38 -295.86)"/><path class="cls-6" d="M320.69,664.14a13.21,13.21,0,0,1-3.23,5.25,13.69,13.69,0,0,1-5.09,3.11,5.85,5.85,0,0,0,.72,1.78,2,2,0,0,0,1.34,1l-.07,0a2.84,2.84,0,0,0,1.59-.11,5.68,5.68,0,0,0,1.77-1,10.37,10.37,0,0,0,1.78-1.87,16.56,16.56,0,0,0,1.64-2.73c.26-.56.5-1.14.72-1.73s.43-1.16.61-1.7a.84.84,0,0,1,.72-.48,1.36,1.36,0,0,1,.87.22,1.76,1.76,0,0,1,.63.74,1.34,1.34,0,0,1,0,1.06l-.46,1.26c-.41,1.05-.94,2.21-1.57,3.48a19.28,19.28,0,0,1-2.41,3.69,7.39,7.39,0,0,1-1.82,1.52,8.36,8.36,0,0,1-1.82.8,7.46,7.46,0,0,1-1.59.32c-.48,0-.85,0-1.13,0a6.36,6.36,0,0,1-4.46-1.57,7.59,7.59,0,0,1-2.26-4.3,11.92,11.92,0,0,1,0-4.65,20.86,20.86,0,0,1,1.8-4.93,10.81,10.81,0,0,1,1.3-1.87,11.74,11.74,0,0,1,1.94-1.84,10.26,10.26,0,0,1,2.39-1.36,6.69,6.69,0,0,1,2.69-.49,3.7,3.7,0,0,1,2.5,1,4.06,4.06,0,0,1,1.28,2.5,5.62,5.62,0,0,1,0,1.42,5.81,5.81,0,0,1-.44,1.52ZM318,661.28a4.39,4.39,0,0,0-2.1,1.11,10.05,10.05,0,0,0-1.66,2.07A13.57,13.57,0,0,0,313,667a17.7,17.7,0,0,0-.66,2.54,11.69,11.69,0,0,0,3.7-2.75,10.63,10.63,0,0,0,2.31-4.14v0a1.81,1.81,0,0,0,.12-.56,2,2,0,0,0,0-.49C318.42,661.3,318.24,661.18,318,661.28Z" transform="translate(-138.38 -295.86)"/><path class="cls-6" d="M335.13,664.14a13.23,13.23,0,0,1-3.24,5.25,13.65,13.65,0,0,1-5.08,3.11,6.09,6.09,0,0,0,.71,1.78,2,2,0,0,0,1.35,1l-.07,0a2.84,2.84,0,0,0,1.59-.11,5.68,5.68,0,0,0,1.77-1,10.37,10.37,0,0,0,1.78-1.87,16.56,16.56,0,0,0,1.64-2.73c.26-.56.5-1.14.72-1.73s.42-1.16.61-1.7a.84.84,0,0,1,.72-.48,1.36,1.36,0,0,1,.87.22,1.76,1.76,0,0,1,.63.74,1.34,1.34,0,0,1,0,1.06l-.46,1.26c-.42,1.05-.94,2.21-1.57,3.48a19.28,19.28,0,0,1-2.41,3.69,7.58,7.58,0,0,1-1.82,1.52,8.58,8.58,0,0,1-1.82.8,7.46,7.46,0,0,1-1.59.32c-.48,0-.86,0-1.14,0a6.35,6.35,0,0,1-4.45-1.57,7.53,7.53,0,0,1-2.26-4.3,11.92,11.92,0,0,1,0-4.65,20,20,0,0,1,1.8-4.93,10.19,10.19,0,0,1,1.29-1.87,12.14,12.14,0,0,1,1.94-1.84,10.53,10.53,0,0,1,2.4-1.36,6.69,6.69,0,0,1,2.69-.49,3.72,3.72,0,0,1,2.5,1,4.11,4.11,0,0,1,1.28,2.5,5.19,5.19,0,0,1,0,1.42,5.41,5.41,0,0,1-.43,1.52Zm-2.73-2.86a4.39,4.39,0,0,0-2.1,1.11,9.73,9.73,0,0,0-1.66,2.07,12.4,12.4,0,0,0-1.17,2.53,17.7,17.7,0,0,0-.66,2.54,11.8,11.8,0,0,0,3.7-2.75,10.63,10.63,0,0,0,2.31-4.14v0a1.81,1.81,0,0,0,.12-.56,1.93,1.93,0,0,0,0-.49C332.85,661.3,332.68,661.18,332.4,661.28Z" transform="translate(-138.38 -295.86)"/><path class="cls-6" d="M345.89,659.56c0,.26-.16.4-.56.44a4.66,4.66,0,0,1-1.34-.12,8.74,8.74,0,0,1-1.47-.49,2.17,2.17,0,0,1-.93-.63,17.54,17.54,0,0,1-.17-5,12.88,12.88,0,0,1,1.08-3.88,10.7,10.7,0,0,1,2-2.9,16.27,16.27,0,0,1,2.56-2.12,16.55,16.55,0,0,1,2.74-1.47c.93-.38,1.81-.7,2.62-1a22.36,22.36,0,0,1,4.48-1,43.75,43.75,0,0,1,4.68-.26q2,0,4.2.12c1.44.07,2.79.17,4,.28s2.27.17,3.39.23,2.18.1,3.18.1a23.44,23.44,0,0,0,3.41-.22,8.19,8.19,0,0,0,2.64-.83c.16-.07.3.12.42.56a9.07,9.07,0,0,1,.25,1.57,16.69,16.69,0,0,1,0,1.72c0,.55-.1.89-.24,1a12.07,12.07,0,0,1-3,.84,23.17,23.17,0,0,1-3.38.25,40,40,0,0,1-4-.21c-1.39-.14-2.8-.29-4.22-.46l-4.61-.47c-1.54-.15-3.06-.23-4.55-.23-.93,0-1.85,0-2.76.13a22.08,22.08,0,0,0-2.69.4,12,12,0,0,0-3.37,1.27,8.23,8.23,0,0,0-2.71,2.49,10.49,10.49,0,0,0-1.61,4A18.92,18.92,0,0,0,345.89,659.56Zm13.64-13.88c.09-.11.28-.15.56-.1a3.51,3.51,0,0,1,1,.37,8.05,8.05,0,0,1,1.18.73,8.47,8.47,0,0,1,1.1,1,4.26,4.26,0,0,1,.78,1.15,2.09,2.09,0,0,1,.21,1.17q-1.37,2.34-2.65,5.07t-2.38,5.61c-.72,1.93-1.39,3.87-2,5.82s-1.11,3.86-1.51,5.7-.7,3.59-.91,5.25a24.94,24.94,0,0,0-.21,4.44c0,.18-.18.16-.56-.07a11.21,11.21,0,0,1-1.25-.95,13.94,13.94,0,0,1-1.3-1.24,2.63,2.63,0,0,1-.66-1,22.64,22.64,0,0,1,0-4.79,53.22,53.22,0,0,1,.93-5.66q.64-3,1.56-6.09t1.94-6.08q1-3,2.09-5.63C358.19,648.63,358.88,647.06,359.53,645.68Z" transform="translate(-138.38 -295.86)"/><path class="cls-6" d="M376.9,671.8a25.52,25.52,0,0,1-1.38,2.43,12.35,12.35,0,0,1-1.8,2.25,9,9,0,0,1-2.22,1.65,5.22,5.22,0,0,1-2.64.56,3.62,3.62,0,0,1-1.5-.39,3.69,3.69,0,0,1-1.15-.93,5,5,0,0,1-.81-1.31,5.79,5.79,0,0,1-.42-1.53,8.74,8.74,0,0,1,0-2.17,10.66,10.66,0,0,1,.44-1.93,15.06,15.06,0,0,1,.72-1.78c.28-.58.58-1.17.9-1.78l.53-1v0l.63-1.18a2,2,0,0,1,.52-.7,3.5,3.5,0,0,1,1.26-.6l-.73.16a3.91,3.91,0,0,0-.49.12l-.84.21a3.37,3.37,0,0,1-1.05.07h-.32c-.39.79-.74,1.57-1,2.33l-.88,2.15,0,0c-.05.14-.2.18-.46.11a2.9,2.9,0,0,1-.78-.37,3.35,3.35,0,0,1-.69-.59c-.18-.23-.24-.42-.17-.58v0l1.68-4a2.75,2.75,0,0,1-.6-1.44,3.79,3.79,0,0,1,.14-1.92c.21-.56.47-1.21.77-2,.12-.3.23-.64.35-1a11.53,11.53,0,0,0,.32-1.36l1.15.57a6.86,6.86,0,0,1,1.1.7,4.21,4.21,0,0,1,.86.93,3,3,0,0,1,.45,1.19,2.14,2.14,0,0,1,0,.68,5.32,5.32,0,0,1-.12.86l-.94,1.57c-.07.14,0,.16.19.05a6.73,6.73,0,0,0,.84-.54c.36-.26.76-.56,1.21-.91s.86-.7,1.27-1,.78-.67,1.1-1a3.12,3.12,0,0,0,.63-.7,1.32,1.32,0,0,1,.58.21c.24.14.5.3.77.48a7.6,7.6,0,0,1,.7.49,4.37,4.37,0,0,1,.36.29,2.24,2.24,0,0,1,.46,1.42,5.65,5.65,0,0,1-.33,1.8,15,15,0,0,1-.91,2.08c-.39.73-.79,1.48-1.21,2.25-.25.42-.5.84-.73,1.26s-.47.85-.7,1.3-.39.7-.6,1.12-.4.84-.57,1.27a8.31,8.31,0,0,0-.42,1.28,2.51,2.51,0,0,0-.09,1.05q0,.21.42.21a1.63,1.63,0,0,0,.91-.27,4.81,4.81,0,0,0,1.08-.84,10.15,10.15,0,0,0,1.1-1.27,8.78,8.78,0,0,0,.93-1.61h0c.34-.75.66-1.48,1-2.2s.53-1.34.71-1.86c.07-.11.24-.13.51,0a2.85,2.85,0,0,1,.8.4,3.3,3.3,0,0,1,.69.65c.18.25.24.45.17.61v-.07l-.66,1.75-.91,2.34Z" transform="translate(-138.38 -295.86)"/><path class="cls-6" d="M390.75,663.83a.43.43,0,0,1-.2.35,1.23,1.23,0,0,1-.49.19,2.67,2.67,0,0,1-.64,0,2.91,2.91,0,0,1-.63-.14,11.2,11.2,0,0,1,1.15.75,6.66,6.66,0,0,1,1,.92,4,4,0,0,1,.7,1,2,2,0,0,1,.23,1c0,.16-.09.34-.14.54s-.09.4-.14.61c-.09.44-.19.92-.3,1.43s-.2,1-.28,1.51-.14.95-.17,1.38a4.35,4.35,0,0,0,0,1.1c0,.05,0,.11-.07.17h.24a4.2,4.2,0,0,0,1.64-1.15,10.48,10.48,0,0,0,1.33-1.83,18.09,18.09,0,0,0,1.07-2.21c.31-.78.61-1.53.89-2.25a4.15,4.15,0,0,0,.39-.95c.06-.11.23-.14.5-.08a2.94,2.94,0,0,1,.82.33,3,3,0,0,1,.74.58q.31.33.21.57l-.56,1.4v0c-.54,1.37-1.13,2.73-1.78,4.07a15.37,15.37,0,0,1-2.45,3.62c-.17.18-.36.39-.6.61a5.15,5.15,0,0,1-1.92,1.12,3.56,3.56,0,0,1-1.33.15,4.1,4.1,0,0,1-2.72-1.17,5.35,5.35,0,0,1-1.4-2.6,13.13,13.13,0,0,1-2.33,2.52,4.34,4.34,0,0,1-2.71,1.08,5.47,5.47,0,0,1-2.36-.75,6.49,6.49,0,0,1-1.66-1.45,7,7,0,0,1-1-1.8,10.33,10.33,0,0,1-.51-1.8,9.73,9.73,0,0,1-.1-1.26,11,11,0,0,1,.24-2.83,20,20,0,0,1,.91-3.08,16.6,16.6,0,0,1,1.51-3,14.36,14.36,0,0,1,2-2.55,9.43,9.43,0,0,1,2.47-1.79,6.47,6.47,0,0,1,2.88-.66,5.49,5.49,0,0,1,.91.07c.3,0,.63.12,1,.21a4,4,0,0,1,1.56.89,5.37,5.37,0,0,1,1.06,1.43,9.45,9.45,0,0,1,.67,1.75A13.53,13.53,0,0,1,390.75,663.83Zm-4.09,0a1,1,0,0,1,.78-.07,5.15,5.15,0,0,1,1.1.38.47.47,0,0,1-.24-.38.92.92,0,0,0-.05-.25,1.31,1.31,0,0,1-.09-.28,6.38,6.38,0,0,0-.21-.73,3.43,3.43,0,0,0-.35-.72,1.88,1.88,0,0,0-.51-.54,1.42,1.42,0,0,0-.75-.24,3.28,3.28,0,0,0-2.36.92,8.52,8.52,0,0,0-1.83,2.43,16.18,16.18,0,0,0-1.26,3.15,16.67,16.67,0,0,0-.63,3,4,4,0,0,0-.05,1,7.23,7.23,0,0,0,.12,1.14,2.65,2.65,0,0,0,.52,1.33q.42.53,1.44.24a2.64,2.64,0,0,0,1-.8,14.08,14.08,0,0,0,1.18-1.56,21.5,21.5,0,0,0,1.14-1.89c.36-.66.66-1.26.89-1.8.12-.72.22-1.41.3-2.08a7.64,7.64,0,0,0,0-1.69Z" transform="translate(-138.38 -295.86)"/><path class="cls-6" d="M412.56,668.93c-.42,1.05-.94,2.21-1.57,3.48a19.77,19.77,0,0,1-2.41,3.69,7.58,7.58,0,0,1-1.82,1.52,8.58,8.58,0,0,1-1.82.8,7.46,7.46,0,0,1-1.59.32c-.48,0-.86,0-1.14,0a6.35,6.35,0,0,1-4.45-1.57,7.53,7.53,0,0,1-2.26-4.3,11.73,11.73,0,0,1,0-4.65,20,20,0,0,1,1.8-4.93,10.19,10.19,0,0,1,1.29-1.87,12.14,12.14,0,0,1,1.94-1.84,10.32,10.32,0,0,1,2.4-1.36,6.69,6.69,0,0,1,2.69-.49,3.57,3.57,0,0,1,2.46,1,4.07,4.07,0,0,1,1.24,2.43,5.34,5.34,0,0,1,0,1.38A4.93,4.93,0,0,1,409,664a1.11,1.11,0,0,1-.69.54,1.08,1.08,0,0,1-.78-.12,1.68,1.68,0,0,1-.65-.67,1.9,1.9,0,0,1-.23-1.05,1.67,1.67,0,0,0,.11-1.12.5.5,0,0,0-.14-.26.41.41,0,0,0-.35,0,4.33,4.33,0,0,0-2.34,1.36,11.16,11.16,0,0,0-1.75,2.48A14.69,14.69,0,0,0,401,668a12.73,12.73,0,0,0-.48,2.67v.63a5.4,5.4,0,0,0,.06.77,5.16,5.16,0,0,0,.25,1,4.86,4.86,0,0,0,.44,1,3.57,3.57,0,0,0,.61.77,1.69,1.69,0,0,0,.84.43l-.07,0a2.84,2.84,0,0,0,1.59-.11,5.53,5.53,0,0,0,1.76-1,10.4,10.4,0,0,0,1.79-1.87,16.56,16.56,0,0,0,1.64-2.73c.26-.56.49-1.14.72-1.73s.42-1.16.61-1.7a.83.83,0,0,1,.71-.48,1.43,1.43,0,0,1,.9.21,1.58,1.58,0,0,1,.64.71,1.36,1.36,0,0,1,0,1.1Z" transform="translate(-138.38 -295.86)"/><path class="cls-6" d="M429.76,668.23c-.44,1.07-.94,2.23-1.49,3.46a18.82,18.82,0,0,1-1.95,3.43,10.91,10.91,0,0,1-2.61,2.6,5.73,5.73,0,0,1-6.94-.29,9.49,9.49,0,0,1-2.5-3.15,28.53,28.53,0,0,0,0,3.46c0,.26-.2.37-.61.35a4.26,4.26,0,0,1-1.36-.33,7.71,7.71,0,0,1-1.42-.75,1.73,1.73,0,0,1-.77-.91,22.86,22.86,0,0,1-.08-4.3,35.82,35.82,0,0,1,.57-4.34c.28-1.44.62-2.89,1-4.33s.79-2.88,1.19-4.3l.66-2.24c.23-.88.47-1.79.7-2.71s.45-1.82.65-2.71.36-1.74.49-2.57.22-1.59.29-2.29a1.56,1.56,0,0,1,1.31,0,5.74,5.74,0,0,1,1.66.93,6.87,6.87,0,0,1,1.4,1.45,2.36,2.36,0,0,1,.53,1.59c-.07.35-.19.85-.35,1.5s-.36,1.38-.6,2.19-.48,1.64-.75,2.51-.52,1.71-.75,2.5l-.32.91a10.24,10.24,0,0,1,1.94-1.4,5.68,5.68,0,0,1,2.19-.66,2.17,2.17,0,0,1,1.14.44,6.25,6.25,0,0,1,1.2,1.06,5.46,5.46,0,0,1,.89,1.37,2.19,2.19,0,0,1,.23,1.29,14.08,14.08,0,0,1-.58,2.39c-.26.81-.53,1.56-.78,2.26s-.48,1.34-.67,2a8.44,8.44,0,0,0-.21,2.5,10.86,10.86,0,0,1-2.16-1.07,7.42,7.42,0,0,1-1.44-1.19,4.77,4.77,0,0,1-.82-1.18,5.55,5.55,0,0,1-.37-1.11,4,4,0,0,1,0-1,2.39,2.39,0,0,1,.15-.67c.35-.67.63-1.27.84-1.78s.38-.93.49-1.26a7.2,7.2,0,0,1-1.15,1.68c-.37.42-.72.83-1.05,1.24s-.65.83-1,1.27a8.64,8.64,0,0,0-.66,2.29,6.09,6.09,0,0,0,0,1.91,4.37,4.37,0,0,0,.61,1.78,5.24,5.24,0,0,0,1.1,1.31,4.3,4.3,0,0,0,1.35.81,4.05,4.05,0,0,0,1.38.26,4.56,4.56,0,0,0,2.62-.86,8.78,8.78,0,0,0,2-2,15.06,15.06,0,0,0,1.54-2.64c.43-1,.81-1.82,1.14-2.64.07-.12.24-.14.51-.07a3.54,3.54,0,0,1,.82.35,2.69,2.69,0,0,1,.71.58c.2.22.27.41.2.57v-.07Z" transform="translate(-138.38 -295.86)"/><path class="cls-6" d="M440.32,664.14a13.12,13.12,0,0,1-3.24,5.25A13.57,13.57,0,0,1,432,672.5a6.09,6.09,0,0,0,.71,1.78,2,2,0,0,0,1.35,1l-.07,0a2.84,2.84,0,0,0,1.59-.11,5.68,5.68,0,0,0,1.77-1,10.37,10.37,0,0,0,1.78-1.87,16.56,16.56,0,0,0,1.64-2.73c.26-.56.5-1.14.72-1.73s.42-1.16.61-1.7a.84.84,0,0,1,.72-.48,1.36,1.36,0,0,1,.87.22,1.76,1.76,0,0,1,.63.74,1.34,1.34,0,0,1,0,1.06l-.46,1.26c-.42,1.05-.94,2.21-1.57,3.48a19.28,19.28,0,0,1-2.41,3.69,7.39,7.39,0,0,1-1.82,1.52,8.58,8.58,0,0,1-1.82.8,7.46,7.46,0,0,1-1.59.32c-.48,0-.85,0-1.13,0a6.36,6.36,0,0,1-4.46-1.57,7.53,7.53,0,0,1-2.26-4.3,11.92,11.92,0,0,1,0-4.65,20.86,20.86,0,0,1,1.8-4.93,10.28,10.28,0,0,1,1.3-1.87,11.35,11.35,0,0,1,1.94-1.84,10.26,10.26,0,0,1,2.39-1.36,6.69,6.69,0,0,1,2.69-.49,3.72,3.72,0,0,1,2.5,1,4.11,4.11,0,0,1,1.28,2.5,5.19,5.19,0,0,1,0,1.42,5.41,5.41,0,0,1-.43,1.52Zm-2.73-2.86a4.39,4.39,0,0,0-2.1,1.11,9.73,9.73,0,0,0-1.66,2.07,12.4,12.4,0,0,0-1.17,2.53,17.7,17.7,0,0,0-.66,2.54,11.8,11.8,0,0,0,3.7-2.75,10.63,10.63,0,0,0,2.31-4.14v0a1.81,1.81,0,0,0,.12-.56,2.6,2.6,0,0,0,0-.49C438.05,661.3,437.87,661.18,437.59,661.28Z" transform="translate(-138.38 -295.86)"/><path class="cls-6" d="M456.36,671.8a25.52,25.52,0,0,1-1.38,2.43,12.35,12.35,0,0,1-1.8,2.25,8.78,8.78,0,0,1-2.22,1.65,5.22,5.22,0,0,1-2.64.56,3.62,3.62,0,0,1-1.5-.39,3.69,3.69,0,0,1-1.15-.93,5,5,0,0,1-.81-1.31,5.79,5.79,0,0,1-.42-1.53,8.74,8.74,0,0,1,0-2.17,11.57,11.57,0,0,1,.44-1.93,15.06,15.06,0,0,1,.72-1.78c.28-.58.58-1.17.91-1.78l.52-1v0l.63-1.18a2.17,2.17,0,0,1,.52-.7,3.68,3.68,0,0,1,1.26-.6l-.73.16a3.91,3.91,0,0,0-.49.12l-.84.21a3.37,3.37,0,0,1-1.05.07H446c-.4.79-.75,1.57-1,2.33l-.88,2.15,0,0c-.05.14-.2.18-.46.11a2.9,2.9,0,0,1-.78-.37,3,3,0,0,1-.68-.59c-.19-.23-.25-.42-.18-.58v0l1.68-4a2.75,2.75,0,0,1-.6-1.44,3.79,3.79,0,0,1,.14-1.92c.21-.56.47-1.21.77-2,.12-.3.24-.64.35-1a11.53,11.53,0,0,0,.32-1.36l1.15.57a6.86,6.86,0,0,1,1.1.7,4,4,0,0,1,.86.93,3,3,0,0,1,.45,1.19,2.46,2.46,0,0,1,.06.68,7,7,0,0,1-.13.86l-.94,1.57c-.07.14,0,.16.19.05a6.73,6.73,0,0,0,.84-.54c.36-.26.76-.56,1.21-.91s.86-.7,1.27-1,.78-.67,1.1-1a3.12,3.12,0,0,0,.63-.7,1.28,1.28,0,0,1,.58.21c.25.14.5.3.77.48a7.6,7.6,0,0,1,.7.49l.37.29a2.29,2.29,0,0,1,.45,1.42,5.65,5.65,0,0,1-.33,1.8,15,15,0,0,1-.91,2.08c-.39.73-.79,1.48-1.21,2.25-.25.42-.5.84-.73,1.26s-.47.85-.7,1.3-.38.7-.59,1.12-.41.84-.58,1.27a8.31,8.31,0,0,0-.42,1.28,2.51,2.51,0,0,0-.09,1.05q0,.21.42.21a1.63,1.63,0,0,0,.91-.27,4.81,4.81,0,0,0,1.08-.84,10.19,10.19,0,0,0,1.11-1.27,8.74,8.74,0,0,0,.92-1.61h0c.35-.75.67-1.48,1-2.2s.53-1.34.71-1.86c.07-.11.24-.13.51,0a3,3,0,0,1,.81.4,3.51,3.51,0,0,1,.68.65c.18.25.24.45.17.61v-.07l-.66,1.75-.91,2.34Z" transform="translate(-138.38 -295.86)"/><line class="cls-7" x1="358.62" y1="127.14" x2="340.76" y2="80.88"/><circle class="cls-6" cx="340.97" cy="81.9" r="10.75"/><path class="cls-8" d="M457.78,374.71q6.06-25.43,30.25-13.06" transform="translate(-138.38 -295.86)"/><path class="cls-8" d="M448.78,365.71q8.14-34.15,40.63-17.54" transform="translate(-138.38 -295.86)"/></svg>