<svg id="Livello_1" data-name="Livello 1" xmlns="http://www.w3.org/2000/svg" viewBox="0 0 81.65 81.48"><title>logo-insta.svg 1</title><path d="M95.82,55c-.12,5.68-.2,11.35-.37,17a26.41,26.41,0,0,1-3,12c-3.23,6-8.32,9.41-14.89,10.8a54.47,54.47,0,0,1-11.18.87q-12.95,0-25.87-.07a34.83,34.83,0,0,1-11.15-1.54c-7.66-2.62-12.33-8-14.25-15.76a37,37,0,0,1-.94-8.82q-.08-14.57,0-29.11a34.52,34.52,0,0,1,1.39-10.49c2.63-8.17,8.26-13.08,16.59-14.8a42.83,42.83,0,0,1,8.15-.82c9.68-.09,19.36-.07,29,0a34.5,34.5,0,0,1,10.82,1.48c8,2.69,12.77,8.32,14.56,16.52a57.25,57.25,0,0,1,.87,11.32c.06,3.8,0,7.59,0,11.39ZM88.42,55h-.09c0-2.62,0-5.25,0-7.87a93.93,93.93,0,0,0-.57-12.32c-1-6.75-5.25-11.35-12-12.48a60.37,60.37,0,0,0-8.92-.69q-10.14-.15-20.29,0a111.2,111.2,0,0,0-12,.62c-6.53.78-10.83,4.9-12.32,11.29a39.91,39.91,0,0,0-.76,8.85q-.09,12.59,0,25.18a40.52,40.52,0,0,0,.8,9.12c1.3,5.47,4.56,9.17,10,10.64a25.94,25.94,0,0,0,6.32.92c9.77.13,19.54.15,29.31.14a36.87,36.87,0,0,0,8.57-.78c5.32-1.28,8.93-4.44,10.57-9.71a24.93,24.93,0,0,0,1-6.87C88.25,65.64,88.33,60.3,88.42,55Z" transform="translate(-14.18 -14.26)" style="fill:#fbae17"/><path d="M75.86,55A21,21,0,1,1,54.92,34,21,21,0,0,1,75.86,55Zm-21-13.64A13.61,13.61,0,1,0,68.49,55,13.63,13.63,0,0,0,54.86,41.37Z" transform="translate(-14.18 -14.26)" style="fill:#fbae17"/><ellipse cx="63.41" cy="20.63" rx="3.66" ry="2.11" style="fill:#fbae17"/><circle cx="58.14" cy="20.63" r="1.32" style="fill:#fbae17"/><polygon points="68.82 20.63 68.21 20.98 67.6 21.34 67.6 20.63 67.6 19.93 68.21 20.28 68.82 20.63" style="fill:#fbae17"/><ellipse cx="77.91" cy="29.56" rx="2.28" ry="1.27" transform="translate(-8.7 56.5) rotate(-50.41)" style="fill:none;stroke:#fbae17;stroke-miterlimit:10;stroke-width:0.5px"/><path d="M79.6,28.92c.49-.13,1.12-.18,1.36.09.47.53.08,1.63-.86,2.47s-2,1.05-2.55.56c-.16-.15-.22-.3-.19-.71" transform="translate(-14.18 -14.26)" style="fill:none;stroke:#fbae17;stroke-miterlimit:10;stroke-width:0.5px"/></svg>