<svg id="Livello_1" data-name="Livello 1" xmlns="http://www.w3.org/2000/svg" viewBox="0 0 805.5 544.32"><title>logo-faq.svg 2.1</title><path d="M789.21,534.94H729.36V504H838.65L778.8,628.33h59.85v31H729.36Z" transform="translate(-132 -305.77)" style="fill:#fbae17"/><path d="M747.68,727.27" transform="translate(-132 -305.77)" style="fill:none;stroke:#fbae17;stroke-miterlimit:10;stroke-width:15px"/><path d="M747.68,727.27H404.61A50.61,50.61,0,0,1,354,676.66V651.2" transform="translate(-132 -305.77)" style="fill:none;stroke:#fbae17;stroke-miterlimit:10;stroke-width:15px"/><path d="M727.39,398.27h152A50.61,50.61,0,0,1,930,448.88V676.66a50.61,50.61,0,0,1-50.61,50.61l-21.89.5" transform="translate(-132 -305.77)" style="fill:none;stroke:#fbae17;stroke-miterlimit:10;stroke-width:15px"/><polyline points="608.1 419.1 659.5 467 732.5 528.45 733.5 475 732.9 422.1" style="fill:none;stroke:#fbae17;stroke-miterlimit:10;stroke-width:15px"/><path d="M291.28,476.09H266.71V512.9h24.67c10.12,0,20.91-6.94,20.91-18.89C312.29,485.05,306.13,476.09,291.28,476.09Z" transform="translate(-132 -305.77)" style="fill:#fbae17"/><path d="M294,433.3c0-8.77-6.84-14.94-14.07-14.94h-13.2v30.36h12.62C286.75,448.72,294,442.36,294,433.3Z" transform="translate(-132 -305.77)" style="fill:#fbae17"/><path d="M657.39,305.77H182.61A50.61,50.61,0,0,0,132,356.38V584.16a50.62,50.62,0,0,0,40,49.49V760.27l125.5-125.5H657.39A50.61,50.61,0,0,0,708,584.16V356.38A50.61,50.61,0,0,0,657.39,305.77ZM294.27,543.36H235.58V388H278c27.57,0,45.11,20.24,45.11,41.15,0,16.48-10.89,26.7-14.65,26.7,14.94,0,34.31,15.42,34.31,40.38C342.75,519.17,326.27,543.36,294.27,543.36Zm169.9-31v31H354.88l59.85-124.42H354.88V388H464.17L404.33,512.33Zm125.48,0v31H480.36l59.85-124.42H480.36V388H589.65L529.8,512.33Z" transform="translate(-132 -305.77)" style="fill:#fbae17"/><path d="M484.58,640v19.36h58.69c18.51,0,31.81-8.1,39.75-19.36Z" transform="translate(-132 -305.77)" style="fill:#fbae17"/><polygon points="581 334.23 566 334.23 481.2 334.23 471.88 353.58 581.17 353.58 581.17 334.23 581 334.23" style="fill:#fbae17"/></svg>