<svg id="Livello_1" data-name="Livello 1" xmlns="http://www.w3.org/2000/svg" xmlns:xlink="http://www.w3.org/1999/xlink" viewBox="0 0 877.86 773.5"><defs><clipPath id="clip-path" transform="translate(-101.07 -153.25)"><path d="M574.13,358.49c29,41.61,42,86.09,36.22,115.52C708.91,324.76,608.3,131.54,527,308.3,543.46,320.91,559.79,338,574.13,358.49Z" style="fill:none"/></clipPath><clipPath id="clip-path-2" transform="translate(-101.07 -153.25)"><path d="M588.65,481.39c7.53-29.32-5.24-75.67-35.44-118.93-40.59-58.12-97.27-88.64-126.6-68.16S406.4,378.5,447,436.63c17.15,24.57,37.18,44.18,56.81,57.11C528.54,484.63,557.64,480.15,588.65,481.39Z" style="fill:none"/></clipPath></defs><title>Logo Ape 1.1</title><g style="clip-path:url(#clip-path)"><path d="M683,237.14c0-5.21,2.86-8.63,7.35-8.63s7.28,3.42,7.28,8.62-2.83,8.62-7.28,8.62S683,242.33,683,237.14Zm10.23,0c0-2.68-1.12-4.47-2.92-4.47s-2.93,1.78-2.93,4.45,1.13,4.43,2.94,4.43S693.26,239.8,693.26,237.15Z" transform="translate(-101.07 -153.25)" style="fill:#29abe2"/><path d="M693,249.8v16.66H688.6V255l-1.62.39V251l4.73-1.24Z" transform="translate(-101.07 -153.25)" style="fill:#29abe2"/><path d="M683,279.22c0-5.21,2.86-8.63,7.35-8.63s7.28,3.42,7.28,8.62-2.83,8.62-7.28,8.62S683,284.42,683,279.22Zm10.23,0c0-2.68-1.12-4.47-2.92-4.47s-2.93,1.78-2.93,4.45,1.13,4.43,2.94,4.43S693.26,281.88,693.26,279.23Z" transform="translate(-101.07 -153.25)" style="fill:#29abe2"/><path d="M693,291.88v16.66H688.6V297.05l-1.62.39v-4.32l4.73-1.24Z" transform="translate(-101.07 -153.25)" style="fill:#29abe2"/><path d="M683,321.3c0-5.21,2.86-8.63,7.35-8.63s7.28,3.42,7.28,8.62-2.83,8.63-7.28,8.63S683,326.5,683,321.3Zm10.23,0c0-2.68-1.12-4.47-2.92-4.47s-2.93,1.78-2.93,4.45,1.13,4.44,2.94,4.44S693.26,324,693.26,321.31Z" transform="translate(-101.07 -153.25)" style="fill:#29abe2"/><path d="M683,342.34c0-5.21,2.86-8.63,7.35-8.63s7.28,3.42,7.28,8.62-2.83,8.63-7.28,8.63S683,347.54,683,342.34Zm10.23,0c0-2.68-1.12-4.47-2.92-4.47s-2.93,1.78-2.93,4.45,1.13,4.44,2.94,4.44S693.26,345,693.26,342.35Z" transform="translate(-101.07 -153.25)" style="fill:#29abe2"/><path d="M693,355v16.66H688.6V360.18l-1.62.39v-4.33l4.73-1.24Z" transform="translate(-101.07 -153.25)" style="fill:#29abe2"/><path d="M693,376V392.7H688.6V381.22l-1.62.39v-4.33l4.73-1.24Z" transform="translate(-101.07 -153.25)" style="fill:#29abe2"/><path d="M683,411.88c0-5.21,2.86-8.63,7.35-8.63s7.28,3.42,7.28,8.62-2.83,8.63-7.28,8.63S683,417.08,683,411.88Zm10.23,0c0-2.68-1.12-4.47-2.92-4.47s-2.93,1.78-2.93,4.45,1.13,4.44,2.94,4.44S693.26,414.54,693.26,411.89Z" transform="translate(-101.07 -153.25)" style="fill:#29abe2"/><path d="M693,424.54V441.2H688.6V429.72l-1.62.39v-4.33l4.73-1.24Z" transform="translate(-101.07 -153.25)" style="fill:#29abe2"/><path d="M693,445.58v16.66H688.6V450.76l-1.62.39v-4.33l4.73-1.24Z" transform="translate(-101.07 -153.25)" style="fill:#29abe2"/><path d="M683,475c0-5.2,2.86-8.63,7.35-8.63s7.28,3.43,7.28,8.62-2.83,8.63-7.28,8.63S683,480.2,683,475Zm10.23,0c0-2.68-1.12-4.47-2.92-4.47s-2.93,1.78-2.93,4.45,1.13,4.44,2.94,4.44S693.26,477.66,693.26,475Z" transform="translate(-101.07 -153.25)" style="fill:#29abe2"/><path d="M667.74,228.76v16.66h-4.39V233.93l-1.61.39V230l4.72-1.24Z" transform="translate(-101.07 -153.25)" style="fill:#29abe2"/><path d="M657.78,258.18c0-5.21,2.87-8.63,7.35-8.63s7.29,3.42,7.29,8.62-2.84,8.62-7.29,8.62S657.78,263.37,657.78,258.18Zm10.23,0c0-2.68-1.12-4.47-2.92-4.47s-2.92,1.78-2.92,4.45,1.13,4.43,2.93,4.43S668,260.84,668,258.19Z" transform="translate(-101.07 -153.25)" style="fill:#29abe2"/><path d="M657.78,279.22c0-5.21,2.87-8.63,7.35-8.63s7.29,3.42,7.29,8.62-2.84,8.62-7.29,8.62S657.78,284.42,657.78,279.22Zm10.23,0c0-2.68-1.12-4.47-2.92-4.47s-2.92,1.78-2.92,4.45,1.13,4.43,2.93,4.43S668,281.88,668,279.23Z" transform="translate(-101.07 -153.25)" style="fill:#29abe2"/><path d="M667.74,291.88v16.66h-4.39V297.05l-1.61.39v-4.32l4.72-1.24Z" transform="translate(-101.07 -153.25)" style="fill:#29abe2"/><path d="M657.78,327.72c0-5.21,2.87-8.63,7.35-8.63s7.29,3.42,7.29,8.62-2.84,8.63-7.29,8.63S657.78,332.92,657.78,327.72Zm10.23,0c0-2.68-1.12-4.47-2.92-4.47s-2.92,1.78-2.92,4.45,1.13,4.44,2.93,4.44S668,330.38,668,327.73Z" transform="translate(-101.07 -153.25)" style="fill:#29abe2"/><path d="M667.74,340.38V357h-4.39V345.56l-1.61.39v-4.33l4.72-1.24Z" transform="translate(-101.07 -153.25)" style="fill:#29abe2"/><path d="M667.74,361.42v16.66h-4.39V366.6l-1.61.39v-4.33l4.72-1.24Z" transform="translate(-101.07 -153.25)" style="fill:#29abe2"/><path d="M657.78,390.84c0-5.21,2.87-8.63,7.35-8.63s7.29,3.42,7.29,8.62-2.84,8.63-7.29,8.63S657.78,396,657.78,390.84Zm10.23,0c0-2.68-1.12-4.47-2.92-4.47s-2.92,1.78-2.92,4.45,1.13,4.44,2.93,4.44S668,393.5,668,390.85Z" transform="translate(-101.07 -153.25)" style="fill:#29abe2"/><path d="M657.78,411.88c0-5.21,2.87-8.63,7.35-8.63s7.29,3.42,7.29,8.62-2.84,8.63-7.29,8.63S657.78,417.08,657.78,411.88Zm10.23,0c0-2.68-1.12-4.47-2.92-4.47s-2.92,1.78-2.92,4.45,1.13,4.44,2.93,4.44S668,414.54,668,411.89Z" transform="translate(-101.07 -153.25)" style="fill:#29abe2"/><path d="M657.78,432.92c0-5.21,2.87-8.63,7.35-8.63s7.29,3.42,7.29,8.62-2.84,8.63-7.29,8.63S657.78,438.12,657.78,432.92Zm10.23,0c0-2.68-1.12-4.47-2.92-4.47s-2.92,1.78-2.92,4.45,1.13,4.44,2.93,4.44S668,435.58,668,432.93Z" transform="translate(-101.07 -153.25)" style="fill:#29abe2"/><path d="M657.78,454c0-5.21,2.87-8.63,7.35-8.63s7.29,3.42,7.29,8.62-2.84,8.63-7.29,8.63S657.78,459.16,657.78,454ZM668,454c0-2.68-1.12-4.47-2.92-4.47s-2.92,1.78-2.92,4.45,1.13,4.44,2.93,4.44S668,456.62,668,454Z" transform="translate(-101.07 -153.25)" style="fill:#29abe2"/><path d="M667.74,466.62v16.66h-4.39V471.8l-1.61.39v-4.33l4.72-1.24Z" transform="translate(-101.07 -153.25)" style="fill:#29abe2"/><path d="M632.53,243.56c0-5.21,2.87-8.63,7.36-8.63s7.28,3.42,7.28,8.62-2.84,8.63-7.28,8.63S632.53,248.76,632.53,243.56Zm10.23,0c0-2.68-1.12-4.47-2.92-4.47s-2.92,1.78-2.92,4.45,1.13,4.43,2.93,4.43S642.76,246.22,642.76,243.57Z" transform="translate(-101.07 -153.25)" style="fill:#29abe2"/><path d="M642.49,256.22v16.66H638.1V261.39l-1.61.39v-4.32l4.72-1.24Z" transform="translate(-101.07 -153.25)" style="fill:#29abe2"/><path d="M642.49,277.26v16.66H638.1V282.43l-1.61.39V278.5l4.72-1.24Z" transform="translate(-101.07 -153.25)" style="fill:#29abe2"/><path d="M632.53,306.68c0-5.21,2.87-8.63,7.36-8.63s7.28,3.42,7.28,8.62-2.84,8.63-7.28,8.63S632.53,311.88,632.53,306.68Zm10.23,0c0-2.68-1.12-4.47-2.92-4.47s-2.92,1.78-2.92,4.45,1.13,4.44,2.93,4.44S642.76,309.34,642.76,306.69Z" transform="translate(-101.07 -153.25)" style="fill:#29abe2"/><path d="M642.49,319.34V336H638.1V324.52l-1.61.39v-4.33l4.72-1.24Z" transform="translate(-101.07 -153.25)" style="fill:#29abe2"/><path d="M642.49,340.38V357H638.1V345.56l-1.61.39v-4.33l4.72-1.24Z" transform="translate(-101.07 -153.25)" style="fill:#29abe2"/><path d="M632.53,369.8c0-5.21,2.87-8.63,7.36-8.63s7.28,3.42,7.28,8.62-2.84,8.63-7.28,8.63S632.53,375,632.53,369.8Zm10.23,0c0-2.68-1.12-4.47-2.92-4.47s-2.92,1.78-2.92,4.45,1.13,4.44,2.93,4.44S642.76,372.46,642.76,369.81Z" transform="translate(-101.07 -153.25)" style="fill:#29abe2"/><path d="M642.49,382.46v16.66H638.1V387.64l-1.61.39V383.7l4.72-1.24Z" transform="translate(-101.07 -153.25)" style="fill:#29abe2"/><path d="M632.53,418.3c0-5.21,2.87-8.63,7.36-8.63s7.28,3.42,7.28,8.62-2.84,8.63-7.28,8.63S632.53,423.5,632.53,418.3Zm10.23,0c0-2.68-1.12-4.47-2.92-4.47s-2.92,1.78-2.92,4.45,1.13,4.44,2.93,4.44S642.76,421,642.76,418.31Z" transform="translate(-101.07 -153.25)" style="fill:#29abe2"/><path d="M642.49,431v16.66H638.1V436.14l-1.61.39V432.2l4.72-1.24Z" transform="translate(-101.07 -153.25)" style="fill:#29abe2"/><path d="M642.49,452v16.66H638.1V457.18l-1.61.39v-4.33l4.72-1.24Z" transform="translate(-101.07 -153.25)" style="fill:#29abe2"/><path d="M632.53,481.42c0-5.2,2.87-8.62,7.36-8.62s7.28,3.42,7.28,8.61-2.84,8.63-7.28,8.63S632.53,486.62,632.53,481.42Zm10.23,0c0-2.68-1.12-4.46-2.92-4.46s-2.92,1.77-2.92,4.44,1.13,4.44,2.93,4.44S642.76,484.08,642.76,481.43Z" transform="translate(-101.07 -153.25)" style="fill:#29abe2"/><path d="M617.25,228.76v16.66h-4.4V233.93l-1.61.39V230l4.72-1.24Z" transform="translate(-101.07 -153.25)" style="fill:#29abe2"/><path d="M617.25,249.8v16.66h-4.4V255l-1.61.39V251L616,249.8Z" transform="translate(-101.07 -153.25)" style="fill:#29abe2"/><path d="M617.25,270.84V287.5h-4.4V276l-1.61.39v-4.32l4.72-1.24Z" transform="translate(-101.07 -153.25)" style="fill:#29abe2"/><path d="M617.25,291.88v16.66h-4.4V297.05l-1.61.39v-4.32l4.72-1.24Z" transform="translate(-101.07 -153.25)" style="fill:#29abe2"/><path d="M607.28,327.72c0-5.21,2.87-8.63,7.36-8.63s7.28,3.42,7.28,8.62-2.84,8.63-7.28,8.63S607.28,332.92,607.28,327.72Zm10.23,0c0-2.68-1.12-4.47-2.91-4.47s-2.93,1.78-2.93,4.45,1.13,4.44,2.94,4.44S617.51,330.38,617.51,327.73Z" transform="translate(-101.07 -153.25)" style="fill:#29abe2"/><path d="M607.28,348.76c0-5.21,2.87-8.63,7.36-8.63s7.28,3.42,7.28,8.62-2.84,8.63-7.28,8.63S607.28,354,607.28,348.76Zm10.23,0c0-2.68-1.12-4.47-2.91-4.47s-2.93,1.78-2.93,4.45,1.13,4.44,2.94,4.44S617.51,351.42,617.51,348.77Z" transform="translate(-101.07 -153.25)" style="fill:#29abe2"/><path d="M617.25,361.42v16.66h-4.4V366.6l-1.61.39v-4.33l4.72-1.24Z" transform="translate(-101.07 -153.25)" style="fill:#29abe2"/><path d="M607.28,390.84c0-5.21,2.87-8.63,7.36-8.63s7.28,3.42,7.28,8.62-2.84,8.63-7.28,8.63S607.28,396,607.28,390.84Zm10.23,0c0-2.68-1.12-4.47-2.91-4.47s-2.93,1.78-2.93,4.45,1.13,4.44,2.94,4.44S617.51,393.5,617.51,390.85Z" transform="translate(-101.07 -153.25)" style="fill:#29abe2"/><path d="M607.28,411.88c0-5.21,2.87-8.63,7.36-8.63s7.28,3.42,7.28,8.62-2.84,8.63-7.28,8.63S607.28,417.08,607.28,411.88Zm10.23,0c0-2.68-1.12-4.47-2.91-4.47s-2.93,1.78-2.93,4.45,1.13,4.44,2.94,4.44S617.51,414.54,617.51,411.89Z" transform="translate(-101.07 -153.25)" style="fill:#29abe2"/><path d="M607.28,432.92c0-5.21,2.87-8.63,7.36-8.63s7.28,3.42,7.28,8.62-2.84,8.63-7.28,8.63S607.28,438.12,607.28,432.92Zm10.23,0c0-2.68-1.12-4.47-2.91-4.47s-2.93,1.78-2.93,4.45,1.13,4.44,2.94,4.44S617.51,435.58,617.51,432.93Z" transform="translate(-101.07 -153.25)" style="fill:#29abe2"/><path d="M607.28,454c0-5.21,2.87-8.63,7.36-8.63s7.28,3.42,7.28,8.62-2.84,8.63-7.28,8.63S607.28,459.16,607.28,454Zm10.23,0c0-2.68-1.12-4.47-2.91-4.47s-2.93,1.78-2.93,4.45,1.13,4.44,2.94,4.44S617.51,456.62,617.51,454Z" transform="translate(-101.07 -153.25)" style="fill:#29abe2"/><path d="M607.28,475c0-5.2,2.87-8.63,7.36-8.63s7.28,3.43,7.28,8.62-2.84,8.63-7.28,8.63S607.28,480.2,607.28,475Zm10.23,0c0-2.68-1.12-4.47-2.91-4.47s-2.93,1.78-2.93,4.45,1.13,4.44,2.94,4.44S617.51,477.66,617.51,475Z" transform="translate(-101.07 -153.25)" style="fill:#29abe2"/><path d="M582,243.56c0-5.21,2.86-8.63,7.35-8.63s7.28,3.42,7.28,8.62-2.83,8.63-7.28,8.63S582,248.76,582,243.56Zm10.23,0c0-2.68-1.12-4.47-2.92-4.47s-2.93,1.78-2.93,4.45,1.13,4.43,2.94,4.43S592.27,246.22,592.27,243.57Z" transform="translate(-101.07 -153.25)" style="fill:#29abe2"/><path d="M592,256.22v16.66h-4.4V261.39l-1.61.39v-4.32l4.72-1.24Z" transform="translate(-101.07 -153.25)" style="fill:#29abe2"/><path d="M592,277.26v16.66h-4.4V282.43l-1.61.39V278.5l4.72-1.24Z" transform="translate(-101.07 -153.25)" style="fill:#29abe2"/><path d="M582,306.68c0-5.21,2.86-8.63,7.35-8.63s7.28,3.42,7.28,8.62-2.83,8.63-7.28,8.63S582,311.88,582,306.68Zm10.23,0c0-2.68-1.12-4.47-2.92-4.47s-2.93,1.78-2.93,4.45,1.13,4.44,2.94,4.44S592.27,309.34,592.27,306.69Z" transform="translate(-101.07 -153.25)" style="fill:#29abe2"/><path d="M592,319.34V336h-4.4V324.52l-1.61.39v-4.33l4.72-1.24Z" transform="translate(-101.07 -153.25)" style="fill:#29abe2"/><path d="M582,348.76c0-5.21,2.86-8.63,7.35-8.63s7.28,3.42,7.28,8.62-2.83,8.63-7.28,8.63S582,354,582,348.76Zm10.23,0c0-2.68-1.12-4.47-2.92-4.47s-2.93,1.78-2.93,4.45,1.13,4.44,2.94,4.44S592.27,351.42,592.27,348.77Z" transform="translate(-101.07 -153.25)" style="fill:#29abe2"/><path d="M582,369.8c0-5.21,2.86-8.63,7.35-8.63s7.28,3.42,7.28,8.62-2.83,8.63-7.28,8.63S582,375,582,369.8Zm10.23,0c0-2.68-1.12-4.47-2.92-4.47s-2.93,1.78-2.93,4.45,1.13,4.44,2.94,4.44S592.27,372.46,592.27,369.81Z" transform="translate(-101.07 -153.25)" style="fill:#29abe2"/><path d="M592,382.46v16.66h-4.4V387.64L586,388V383.7l4.72-1.24Z" transform="translate(-101.07 -153.25)" style="fill:#29abe2"/><path d="M582,418.3c0-5.21,2.86-8.63,7.35-8.63s7.28,3.42,7.28,8.62-2.83,8.63-7.28,8.63S582,423.5,582,418.3Zm10.23,0c0-2.68-1.12-4.47-2.92-4.47s-2.93,1.78-2.93,4.45,1.13,4.44,2.94,4.44S592.27,421,592.27,418.31Z" transform="translate(-101.07 -153.25)" style="fill:#29abe2"/><path d="M582,439.34c0-5.2,2.86-8.62,7.35-8.62s7.28,3.42,7.28,8.61-2.83,8.63-7.28,8.63S582,444.54,582,439.34Zm10.23,0c0-2.68-1.12-4.46-2.92-4.46s-2.93,1.77-2.93,4.44,1.13,4.44,2.94,4.44S592.27,442,592.27,439.35Z" transform="translate(-101.07 -153.25)" style="fill:#29abe2"/><path d="M592,452v16.66h-4.4V457.18l-1.61.39v-4.33l4.72-1.24Z" transform="translate(-101.07 -153.25)" style="fill:#29abe2"/><path d="M582,481.42c0-5.2,2.86-8.62,7.35-8.62s7.28,3.42,7.28,8.61-2.83,8.63-7.28,8.63S582,486.62,582,481.42Zm10.23,0c0-2.68-1.12-4.46-2.92-4.46s-2.93,1.77-2.93,4.44,1.13,4.44,2.94,4.44S592.27,484.08,592.27,481.43Z" transform="translate(-101.07 -153.25)" style="fill:#29abe2"/><path d="M556.79,237.14c0-5.21,2.86-8.63,7.35-8.63s7.28,3.42,7.28,8.62-2.83,8.62-7.28,8.62S556.79,242.33,556.79,237.14Zm10.23,0c0-2.68-1.12-4.47-2.92-4.47s-2.93,1.78-2.93,4.45,1.13,4.43,2.94,4.43S567,239.8,567,237.15Z" transform="translate(-101.07 -153.25)" style="fill:#29abe2"/><path d="M556.79,258.18c0-5.21,2.86-8.63,7.35-8.63s7.28,3.42,7.28,8.62-2.83,8.62-7.28,8.62S556.79,263.37,556.79,258.18Zm10.23,0c0-2.68-1.12-4.47-2.92-4.47s-2.93,1.78-2.93,4.45,1.13,4.43,2.94,4.43S567,260.84,567,258.19Z" transform="translate(-101.07 -153.25)" style="fill:#29abe2"/><path d="M556.79,279.22c0-5.21,2.86-8.63,7.35-8.63s7.28,3.42,7.28,8.62-2.83,8.62-7.28,8.62S556.79,284.42,556.79,279.22Zm10.23,0c0-2.68-1.12-4.47-2.92-4.47s-2.93,1.78-2.93,4.45,1.13,4.43,2.94,4.43S567,281.88,567,279.23Z" transform="translate(-101.07 -153.25)" style="fill:#29abe2"/><path d="M556.79,300.26c0-5.21,2.86-8.63,7.35-8.63s7.28,3.42,7.28,8.62-2.83,8.63-7.28,8.63S556.79,305.46,556.79,300.26Zm10.23,0c0-2.68-1.12-4.47-2.92-4.47s-2.93,1.78-2.93,4.45,1.13,4.43,2.94,4.43S567,302.92,567,300.27Z" transform="translate(-101.07 -153.25)" style="fill:#29abe2"/><path d="M556.79,327.72c0-5.21,2.86-8.63,7.35-8.63s7.28,3.42,7.28,8.62-2.83,8.63-7.28,8.63S556.79,332.92,556.79,327.72Zm10.23,0c0-2.68-1.12-4.47-2.92-4.47s-2.93,1.78-2.93,4.45,1.13,4.44,2.94,4.44S567,330.38,567,327.73Z" transform="translate(-101.07 -153.25)" style="fill:#29abe2"/><path d="M566.75,340.38V357h-4.39V345.56l-1.62.39v-4.33l4.73-1.24Z" transform="translate(-101.07 -153.25)" style="fill:#29abe2"/><path d="M566.75,361.42v16.66h-4.39V366.6l-1.62.39v-4.33l4.73-1.24Z" transform="translate(-101.07 -153.25)" style="fill:#29abe2"/><path d="M566.75,382.46v16.66h-4.39V387.64l-1.62.39V383.7l4.73-1.24Z" transform="translate(-101.07 -153.25)" style="fill:#29abe2"/><path d="M556.79,411.88c0-5.21,2.86-8.63,7.35-8.63s7.28,3.42,7.28,8.62-2.83,8.63-7.28,8.63S556.79,417.08,556.79,411.88Zm10.23,0c0-2.68-1.12-4.47-2.92-4.47s-2.93,1.78-2.93,4.45,1.13,4.44,2.94,4.44S567,414.54,567,411.89Z" transform="translate(-101.07 -153.25)" style="fill:#29abe2"/><path d="M556.79,432.92c0-5.21,2.86-8.63,7.35-8.63s7.28,3.42,7.28,8.62-2.83,8.63-7.28,8.63S556.79,438.12,556.79,432.92Zm10.23,0c0-2.68-1.12-4.47-2.92-4.47s-2.93,1.78-2.93,4.45,1.13,4.44,2.94,4.44S567,435.58,567,432.93Z" transform="translate(-101.07 -153.25)" style="fill:#29abe2"/><path d="M556.79,454c0-5.21,2.86-8.63,7.35-8.63s7.28,3.42,7.28,8.62-2.83,8.63-7.28,8.63S556.79,459.16,556.79,454ZM567,454c0-2.68-1.12-4.47-2.92-4.47s-2.93,1.78-2.93,4.45,1.13,4.44,2.94,4.44S567,456.62,567,454Z" transform="translate(-101.07 -153.25)" style="fill:#29abe2"/><path d="M556.79,475c0-5.2,2.86-8.63,7.35-8.63s7.28,3.43,7.28,8.62-2.83,8.63-7.28,8.63S556.79,480.2,556.79,475ZM567,475c0-2.68-1.12-4.47-2.92-4.47s-2.93,1.78-2.93,4.45,1.13,4.44,2.94,4.44S567,477.66,567,475Z" transform="translate(-101.07 -153.25)" style="fill:#29abe2"/><path d="M531.54,243.56c0-5.21,2.86-8.63,7.35-8.63s7.28,3.42,7.28,8.62-2.83,8.63-7.28,8.63S531.54,248.76,531.54,243.56Zm10.23,0c0-2.68-1.12-4.47-2.92-4.47s-2.93,1.78-2.93,4.45,1.13,4.43,2.94,4.43S541.77,246.22,541.77,243.57Z" transform="translate(-101.07 -153.25)" style="fill:#29abe2"/><path d="M541.5,256.22v16.66h-4.39V261.39l-1.62.39v-4.32l4.73-1.24Z" transform="translate(-101.07 -153.25)" style="fill:#29abe2"/><path d="M541.5,277.26v16.66h-4.39V282.43l-1.62.39V278.5l4.73-1.24Z" transform="translate(-101.07 -153.25)" style="fill:#29abe2"/><path d="M531.54,306.68c0-5.21,2.86-8.63,7.35-8.63s7.28,3.42,7.28,8.62-2.83,8.63-7.28,8.63S531.54,311.88,531.54,306.68Zm10.23,0c0-2.68-1.12-4.47-2.92-4.47s-2.93,1.78-2.93,4.45,1.13,4.44,2.94,4.44S541.77,309.34,541.77,306.69Z" transform="translate(-101.07 -153.25)" style="fill:#29abe2"/><path d="M541.5,319.34V336h-4.39V324.52l-1.62.39v-4.33l4.73-1.24Z" transform="translate(-101.07 -153.25)" style="fill:#29abe2"/><path d="M531.54,348.76c0-5.21,2.86-8.63,7.35-8.63s7.28,3.42,7.28,8.62-2.83,8.63-7.28,8.63S531.54,354,531.54,348.76Zm10.23,0c0-2.68-1.12-4.47-2.92-4.47s-2.93,1.78-2.93,4.45,1.13,4.44,2.94,4.44S541.77,351.42,541.77,348.77Z" transform="translate(-101.07 -153.25)" style="fill:#29abe2"/><path d="M531.54,369.8c0-5.21,2.86-8.63,7.35-8.63s7.28,3.42,7.28,8.62-2.83,8.63-7.28,8.63S531.54,375,531.54,369.8Zm10.23,0c0-2.68-1.12-4.47-2.92-4.47s-2.93,1.78-2.93,4.45,1.13,4.44,2.94,4.44S541.77,372.46,541.77,369.81Z" transform="translate(-101.07 -153.25)" style="fill:#29abe2"/><path d="M541.5,382.46v16.66h-4.39V387.64l-1.62.39V383.7l4.73-1.24Z" transform="translate(-101.07 -153.25)" style="fill:#29abe2"/><path d="M541.5,409.92v16.66h-4.39V415.1l-1.62.39v-4.33l4.73-1.24Z" transform="translate(-101.07 -153.25)" style="fill:#29abe2"/><path d="M541.5,431v16.66h-4.39V436.14l-1.62.39V432.2l4.73-1.24Z" transform="translate(-101.07 -153.25)" style="fill:#29abe2"/><path d="M531.54,460.38c0-5.2,2.86-8.62,7.35-8.62s7.28,3.42,7.28,8.61-2.83,8.63-7.28,8.63S531.54,465.58,531.54,460.38Zm10.23,0c0-2.68-1.12-4.46-2.92-4.46s-2.93,1.77-2.93,4.44,1.13,4.44,2.94,4.44S541.77,463,541.77,460.39Z" transform="translate(-101.07 -153.25)" style="fill:#29abe2"/><path d="M531.54,481.42c0-5.2,2.86-8.62,7.35-8.62s7.28,3.42,7.28,8.61-2.83,8.63-7.28,8.63S531.54,486.62,531.54,481.42Zm10.23,0c0-2.68-1.12-4.46-2.92-4.46s-2.93,1.77-2.93,4.44,1.13,4.44,2.94,4.44S541.77,484.08,541.77,481.43Z" transform="translate(-101.07 -153.25)" style="fill:#29abe2"/><path d="M506.29,237.14c0-5.21,2.87-8.63,7.35-8.63s7.29,3.42,7.29,8.62-2.84,8.62-7.29,8.62S506.29,242.33,506.29,237.14Zm10.23,0c0-2.68-1.12-4.47-2.92-4.47s-2.92,1.78-2.92,4.45,1.13,4.43,2.93,4.43S516.52,239.8,516.52,237.15Z" transform="translate(-101.07 -153.25)" style="fill:#29abe2"/><path d="M506.29,258.18c0-5.21,2.87-8.63,7.35-8.63s7.29,3.42,7.29,8.62-2.84,8.62-7.29,8.62S506.29,263.37,506.29,258.18Zm10.23,0c0-2.68-1.12-4.47-2.92-4.47s-2.92,1.78-2.92,4.45,1.13,4.43,2.93,4.43S516.52,260.84,516.52,258.19Z" transform="translate(-101.07 -153.25)" style="fill:#29abe2"/><path d="M516.25,270.84V287.5h-4.39V276l-1.61.39v-4.32l4.72-1.24Z" transform="translate(-101.07 -153.25)" style="fill:#29abe2"/><path d="M516.25,291.88v16.66h-4.39V297.05l-1.61.39v-4.32l4.72-1.24Z" transform="translate(-101.07 -153.25)" style="fill:#29abe2"/><path d="M516.25,319.34V336h-4.39V324.52l-1.61.39v-4.33l4.72-1.24Z" transform="translate(-101.07 -153.25)" style="fill:#29abe2"/><path d="M506.29,348.76c0-5.21,2.87-8.63,7.35-8.63s7.29,3.42,7.29,8.62-2.84,8.63-7.29,8.63S506.29,354,506.29,348.76Zm10.23,0c0-2.68-1.12-4.47-2.92-4.47s-2.92,1.78-2.92,4.45,1.13,4.44,2.93,4.44S516.52,351.42,516.52,348.77Z" transform="translate(-101.07 -153.25)" style="fill:#29abe2"/><path d="M516.25,361.42v16.66h-4.39V366.6l-1.61.39v-4.33l4.72-1.24Z" transform="translate(-101.07 -153.25)" style="fill:#29abe2"/><path d="M516.25,382.46v16.66h-4.39V387.64l-1.61.39V383.7l4.72-1.24Z" transform="translate(-101.07 -153.25)" style="fill:#29abe2"/><path d="M516.25,403.5v16.66h-4.39V408.68l-1.61.39v-4.33L515,403.5Z" transform="translate(-101.07 -153.25)" style="fill:#29abe2"/><path d="M506.29,432.92c0-5.21,2.87-8.63,7.35-8.63s7.29,3.42,7.29,8.62-2.84,8.63-7.29,8.63S506.29,438.12,506.29,432.92Zm10.23,0c0-2.68-1.12-4.47-2.92-4.47s-2.92,1.78-2.92,4.45,1.13,4.44,2.93,4.44S516.52,435.58,516.52,432.93Z" transform="translate(-101.07 -153.25)" style="fill:#29abe2"/><path d="M506.29,454c0-5.21,2.87-8.63,7.35-8.63s7.29,3.42,7.29,8.62-2.84,8.63-7.29,8.63S506.29,459.16,506.29,454Zm10.23,0c0-2.68-1.12-4.47-2.92-4.47s-2.92,1.78-2.92,4.45,1.13,4.44,2.93,4.44S516.52,456.62,516.52,454Z" transform="translate(-101.07 -153.25)" style="fill:#29abe2"/><path d="M516.25,466.62v16.66h-4.39V471.8l-1.61.39v-4.33l4.72-1.24Z" transform="translate(-101.07 -153.25)" style="fill:#29abe2"/><path d="M481,243.56c0-5.21,2.87-8.63,7.36-8.63s7.28,3.42,7.28,8.62-2.84,8.63-7.28,8.63S481,248.76,481,243.56Zm10.23,0c0-2.68-1.12-4.47-2.92-4.47s-2.92,1.78-2.92,4.45,1.13,4.43,2.93,4.43S491.27,246.22,491.27,243.57Z" transform="translate(-101.07 -153.25)" style="fill:#29abe2"/><path d="M481,264.6c0-5.21,2.87-8.63,7.36-8.63s7.28,3.42,7.28,8.62-2.84,8.63-7.28,8.63S481,269.8,481,264.6Zm10.23,0c0-2.68-1.12-4.47-2.92-4.47s-2.92,1.78-2.92,4.45,1.13,4.44,2.93,4.44S491.27,267.26,491.27,264.61Z" transform="translate(-101.07 -153.25)" style="fill:#29abe2"/><path d="M491,277.26v16.66h-4.4V282.43l-1.61.39V278.5l4.72-1.24Z" transform="translate(-101.07 -153.25)" style="fill:#29abe2"/><path d="M481,306.68c0-5.21,2.87-8.63,7.36-8.63s7.28,3.42,7.28,8.62-2.84,8.63-7.28,8.63S481,311.88,481,306.68Zm10.23,0c0-2.68-1.12-4.47-2.92-4.47s-2.92,1.78-2.92,4.45,1.13,4.44,2.93,4.44S491.27,309.34,491.27,306.69Z" transform="translate(-101.07 -153.25)" style="fill:#29abe2"/><path d="M481,327.72c0-5.21,2.87-8.63,7.36-8.63s7.28,3.42,7.28,8.62-2.84,8.63-7.28,8.63S481,332.92,481,327.72Zm10.23,0c0-2.68-1.12-4.47-2.92-4.47s-2.92,1.78-2.92,4.45,1.13,4.44,2.93,4.44S491.27,330.38,491.27,327.73Z" transform="translate(-101.07 -153.25)" style="fill:#29abe2"/><path d="M481,348.76c0-5.21,2.87-8.63,7.36-8.63s7.28,3.42,7.28,8.62-2.84,8.63-7.28,8.63S481,354,481,348.76Zm10.23,0c0-2.68-1.12-4.47-2.92-4.47s-2.92,1.78-2.92,4.45,1.13,4.44,2.93,4.44S491.27,351.42,491.27,348.77Z" transform="translate(-101.07 -153.25)" style="fill:#29abe2"/><path d="M481,369.8c0-5.21,2.87-8.63,7.36-8.63s7.28,3.42,7.28,8.62-2.84,8.63-7.28,8.63S481,375,481,369.8Zm10.23,0c0-2.68-1.12-4.47-2.92-4.47s-2.92,1.78-2.92,4.45,1.13,4.44,2.93,4.44S491.27,372.46,491.27,369.81Z" transform="translate(-101.07 -153.25)" style="fill:#29abe2"/><path d="M481,390.84c0-5.21,2.87-8.63,7.36-8.63s7.28,3.42,7.28,8.62-2.84,8.63-7.28,8.63S481,396,481,390.84Zm10.23,0c0-2.68-1.12-4.47-2.92-4.47s-2.92,1.78-2.92,4.45,1.13,4.44,2.93,4.44S491.27,393.5,491.27,390.85Z" transform="translate(-101.07 -153.25)" style="fill:#29abe2"/><path d="M481,418.3c0-5.21,2.87-8.63,7.36-8.63s7.28,3.42,7.28,8.62-2.84,8.63-7.28,8.63S481,423.5,481,418.3Zm10.23,0c0-2.68-1.12-4.47-2.92-4.47s-2.92,1.78-2.92,4.45,1.13,4.44,2.93,4.44S491.27,421,491.27,418.31Z" transform="translate(-101.07 -153.25)" style="fill:#29abe2"/><path d="M491,431v16.66h-4.4V436.14l-1.61.39V432.2l4.72-1.24Z" transform="translate(-101.07 -153.25)" style="fill:#29abe2"/><path d="M491,452v16.66h-4.4V457.18l-1.61.39v-4.33l4.72-1.24Z" transform="translate(-101.07 -153.25)" style="fill:#29abe2"/><path d="M481,481.42c0-5.2,2.87-8.62,7.36-8.62s7.28,3.42,7.28,8.61S492.84,490,488.4,490,481,486.62,481,481.42Zm10.23,0c0-2.68-1.12-4.46-2.92-4.46s-2.92,1.77-2.92,4.44,1.13,4.44,2.93,4.44S491.27,484.08,491.27,481.43Z" transform="translate(-101.07 -153.25)" style="fill:#29abe2"/><path d="M455.79,237.14c0-5.21,2.87-8.63,7.36-8.63s7.28,3.42,7.28,8.62-2.84,8.62-7.28,8.62S455.79,242.33,455.79,237.14Zm10.23,0c0-2.68-1.12-4.47-2.91-4.47s-2.93,1.78-2.93,4.45,1.13,4.43,2.94,4.43S466,239.8,466,237.15Z" transform="translate(-101.07 -153.25)" style="fill:#29abe2"/><path d="M465.76,249.8v16.66h-4.4V255l-1.61.39V251l4.72-1.24Z" transform="translate(-101.07 -153.25)" style="fill:#29abe2"/><path d="M465.76,270.84V287.5h-4.4V276l-1.61.39v-4.32l4.72-1.24Z" transform="translate(-101.07 -153.25)" style="fill:#29abe2"/><path d="M455.79,300.26c0-5.21,2.87-8.63,7.36-8.63s7.28,3.42,7.28,8.62-2.84,8.63-7.28,8.63S455.79,305.46,455.79,300.26Zm10.23,0c0-2.68-1.12-4.47-2.91-4.47s-2.93,1.78-2.93,4.45,1.13,4.43,2.94,4.43S466,302.92,466,300.27Z" transform="translate(-101.07 -153.25)" style="fill:#29abe2"/><path d="M455.79,327.72c0-5.21,2.87-8.63,7.36-8.63s7.28,3.42,7.28,8.62-2.84,8.63-7.28,8.63S455.79,332.92,455.79,327.72Zm10.23,0c0-2.68-1.12-4.47-2.91-4.47s-2.93,1.78-2.93,4.45,1.13,4.44,2.94,4.44S466,330.38,466,327.73Z" transform="translate(-101.07 -153.25)" style="fill:#29abe2"/><path d="M465.76,340.38V357h-4.4V345.56l-1.61.39v-4.33l4.72-1.24Z" transform="translate(-101.07 -153.25)" style="fill:#29abe2"/><path d="M465.76,361.42v16.66h-4.4V366.6l-1.61.39v-4.33l4.72-1.24Z" transform="translate(-101.07 -153.25)" style="fill:#29abe2"/><path d="M465.76,382.46v16.66h-4.4V387.64l-1.61.39V383.7l4.72-1.24Z" transform="translate(-101.07 -153.25)" style="fill:#29abe2"/><path d="M455.79,411.88c0-5.21,2.87-8.63,7.36-8.63s7.28,3.42,7.28,8.62-2.84,8.63-7.28,8.63S455.79,417.08,455.79,411.88Zm10.23,0c0-2.68-1.12-4.47-2.91-4.47s-2.93,1.78-2.93,4.45,1.13,4.44,2.94,4.44S466,414.54,466,411.89Z" transform="translate(-101.07 -153.25)" style="fill:#29abe2"/><path d="M465.76,424.54V441.2h-4.4V429.72l-1.61.39v-4.33l4.72-1.24Z" transform="translate(-101.07 -153.25)" style="fill:#29abe2"/><path d="M455.79,454c0-5.21,2.87-8.63,7.36-8.63s7.28,3.42,7.28,8.62-2.84,8.63-7.28,8.63S455.79,459.16,455.79,454ZM466,454c0-2.68-1.12-4.47-2.91-4.47s-2.93,1.78-2.93,4.45,1.13,4.44,2.94,4.44S466,456.62,466,454Z" transform="translate(-101.07 -153.25)" style="fill:#29abe2"/><path d="M465.76,466.62v16.66h-4.4V471.8l-1.61.39v-4.33l4.72-1.24Z" transform="translate(-101.07 -153.25)" style="fill:#29abe2"/><path d="M430.54,243.56c0-5.21,2.87-8.63,7.36-8.63s7.28,3.42,7.28,8.62-2.83,8.63-7.28,8.63S430.54,248.76,430.54,243.56Zm10.23,0c0-2.68-1.12-4.47-2.91-4.47s-2.93,1.78-2.93,4.45,1.13,4.43,2.94,4.43S440.77,246.22,440.77,243.57Z" transform="translate(-101.07 -153.25)" style="fill:#29abe2"/><path d="M440.51,256.22v16.66h-4.4V261.39l-1.61.39v-4.32l4.72-1.24Z" transform="translate(-101.07 -153.25)" style="fill:#29abe2"/><path d="M440.51,277.26v16.66h-4.4V282.43l-1.61.39V278.5l4.72-1.24Z" transform="translate(-101.07 -153.25)" style="fill:#29abe2"/><path d="M430.54,306.68c0-5.21,2.87-8.63,7.36-8.63s7.28,3.42,7.28,8.62-2.83,8.63-7.28,8.63S430.54,311.88,430.54,306.68Zm10.23,0c0-2.68-1.12-4.47-2.91-4.47s-2.93,1.78-2.93,4.45,1.13,4.44,2.94,4.44S440.77,309.34,440.77,306.69Z" transform="translate(-101.07 -153.25)" style="fill:#29abe2"/><path d="M430.54,327.72c0-5.21,2.87-8.63,7.36-8.63s7.28,3.42,7.28,8.62-2.83,8.63-7.28,8.63S430.54,332.92,430.54,327.72Zm10.23,0c0-2.68-1.12-4.47-2.91-4.47s-2.93,1.78-2.93,4.45,1.13,4.44,2.94,4.44S440.77,330.38,440.77,327.73Z" transform="translate(-101.07 -153.25)" style="fill:#29abe2"/><path d="M430.54,348.76c0-5.21,2.87-8.63,7.36-8.63s7.28,3.42,7.28,8.62-2.83,8.63-7.28,8.63S430.54,354,430.54,348.76Zm10.23,0c0-2.68-1.12-4.47-2.91-4.47s-2.93,1.78-2.93,4.45,1.13,4.44,2.94,4.44S440.77,351.42,440.77,348.77Z" transform="translate(-101.07 -153.25)" style="fill:#29abe2"/><path d="M440.51,361.42v16.66h-4.4V366.6l-1.61.39v-4.33l4.72-1.24Z" transform="translate(-101.07 -153.25)" style="fill:#29abe2"/><path d="M440.51,382.46v16.66h-4.4V387.64l-1.61.39V383.7l4.72-1.24Z" transform="translate(-101.07 -153.25)" style="fill:#29abe2"/><path d="M430.54,418.3c0-5.21,2.87-8.63,7.36-8.63s7.28,3.42,7.28,8.62-2.83,8.63-7.28,8.63S430.54,423.5,430.54,418.3Zm10.23,0c0-2.68-1.12-4.47-2.91-4.47s-2.93,1.78-2.93,4.45,1.13,4.44,2.94,4.44S440.77,421,440.77,418.31Z" transform="translate(-101.07 -153.25)" style="fill:#29abe2"/><path d="M440.51,431v16.66h-4.4V436.14l-1.61.39V432.2l4.72-1.24Z" transform="translate(-101.07 -153.25)" style="fill:#29abe2"/><path d="M440.51,452v16.66h-4.4V457.18l-1.61.39v-4.33l4.72-1.24Z" transform="translate(-101.07 -153.25)" style="fill:#29abe2"/><path d="M430.54,481.42c0-5.2,2.87-8.62,7.36-8.62s7.28,3.42,7.28,8.61S442.35,490,437.9,490,430.54,486.62,430.54,481.42Zm10.23,0c0-2.68-1.12-4.46-2.91-4.46s-2.93,1.77-2.93,4.44,1.13,4.44,2.94,4.44S440.77,484.08,440.77,481.43Z" transform="translate(-101.07 -153.25)" style="fill:#29abe2"/><path d="M415.26,228.76v16.66h-4.4V233.93l-1.61.39V230l4.73-1.24Z" transform="translate(-101.07 -153.25)" style="fill:#29abe2"/><path d="M405.3,258.18c0-5.21,2.86-8.63,7.35-8.63s7.28,3.42,7.28,8.62-2.83,8.62-7.28,8.62S405.3,263.37,405.3,258.18Zm10.23,0c0-2.68-1.12-4.47-2.92-4.47s-2.93,1.78-2.93,4.45,1.13,4.43,2.94,4.43S415.53,260.84,415.53,258.19Z" transform="translate(-101.07 -153.25)" style="fill:#29abe2"/><path d="M405.3,279.22c0-5.21,2.86-8.63,7.35-8.63s7.28,3.42,7.28,8.62-2.83,8.62-7.28,8.62S405.3,284.42,405.3,279.22Zm10.23,0c0-2.68-1.12-4.47-2.92-4.47s-2.93,1.78-2.93,4.45,1.13,4.43,2.94,4.43S415.53,281.88,415.53,279.23Z" transform="translate(-101.07 -153.25)" style="fill:#29abe2"/><path d="M405.3,300.26c0-5.21,2.86-8.63,7.35-8.63s7.28,3.42,7.28,8.62-2.83,8.63-7.28,8.63S405.3,305.46,405.3,300.26Zm10.23,0c0-2.68-1.12-4.47-2.92-4.47s-2.93,1.78-2.93,4.45,1.13,4.43,2.94,4.43S415.53,302.92,415.53,300.27Z" transform="translate(-101.07 -153.25)" style="fill:#29abe2"/><path d="M405.3,327.72c0-5.21,2.86-8.63,7.35-8.63s7.28,3.42,7.28,8.62-2.83,8.63-7.28,8.63S405.3,332.92,405.3,327.72Zm10.23,0c0-2.68-1.12-4.47-2.92-4.47s-2.93,1.78-2.93,4.45,1.13,4.44,2.94,4.44S415.53,330.38,415.53,327.73Z" transform="translate(-101.07 -153.25)" style="fill:#29abe2"/><path d="M415.26,340.38V357h-4.4V345.56l-1.61.39v-4.33l4.73-1.24Z" transform="translate(-101.07 -153.25)" style="fill:#29abe2"/><path d="M415.26,361.42v16.66h-4.4V366.6l-1.61.39v-4.33l4.73-1.24Z" transform="translate(-101.07 -153.25)" style="fill:#29abe2"/><path d="M405.3,390.84c0-5.21,2.86-8.63,7.35-8.63s7.28,3.42,7.28,8.62-2.83,8.63-7.28,8.63S405.3,396,405.3,390.84Zm10.23,0c0-2.68-1.12-4.47-2.92-4.47s-2.93,1.78-2.93,4.45,1.13,4.44,2.94,4.44S415.53,393.5,415.53,390.85Z" transform="translate(-101.07 -153.25)" style="fill:#29abe2"/><path d="M415.26,403.5v16.66h-4.4V408.68l-1.61.39v-4.33L414,403.5Z" transform="translate(-101.07 -153.25)" style="fill:#29abe2"/><path d="M405.3,432.92c0-5.21,2.86-8.63,7.35-8.63s7.28,3.42,7.28,8.62-2.83,8.63-7.28,8.63S405.3,438.12,405.3,432.92Zm10.23,0c0-2.68-1.12-4.47-2.92-4.47s-2.93,1.78-2.93,4.45,1.13,4.44,2.94,4.44S415.53,435.58,415.53,432.93Z" transform="translate(-101.07 -153.25)" style="fill:#29abe2"/><path d="M405.3,454c0-5.21,2.86-8.63,7.35-8.63s7.28,3.42,7.28,8.62-2.83,8.63-7.28,8.63S405.3,459.16,405.3,454Zm10.23,0c0-2.68-1.12-4.47-2.92-4.47s-2.93,1.78-2.93,4.45,1.13,4.44,2.94,4.44S415.53,456.62,415.53,454Z" transform="translate(-101.07 -153.25)" style="fill:#29abe2"/><path d="M415.26,466.62v16.66h-4.4V471.8l-1.61.39v-4.33l4.73-1.24Z" transform="translate(-101.07 -153.25)" style="fill:#29abe2"/><path d="M380.05,243.56c0-5.21,2.86-8.63,7.35-8.63s7.28,3.42,7.28,8.62-2.83,8.63-7.28,8.63S380.05,248.76,380.05,243.56Zm10.23,0c0-2.68-1.12-4.47-2.92-4.47s-2.93,1.78-2.93,4.45,1.13,4.43,2.94,4.43S390.28,246.22,390.28,243.57Z" transform="translate(-101.07 -153.25)" style="fill:#29abe2"/><path d="M380.05,264.6c0-5.21,2.86-8.63,7.35-8.63s7.28,3.42,7.28,8.62-2.83,8.63-7.28,8.63S380.05,269.8,380.05,264.6Zm10.23,0c0-2.68-1.12-4.47-2.92-4.47s-2.93,1.78-2.93,4.45,1.13,4.44,2.94,4.44S390.28,267.26,390.28,264.61Z" transform="translate(-101.07 -153.25)" style="fill:#29abe2"/><path d="M390,277.26v16.66h-4.39V282.43l-1.62.39V278.5l4.73-1.24Z" transform="translate(-101.07 -153.25)" style="fill:#29abe2"/><path d="M380.05,306.68c0-5.21,2.86-8.63,7.35-8.63s7.28,3.42,7.28,8.62-2.83,8.63-7.28,8.63S380.05,311.88,380.05,306.68Zm10.23,0c0-2.68-1.12-4.47-2.92-4.47s-2.93,1.78-2.93,4.45,1.13,4.44,2.94,4.44S390.28,309.34,390.28,306.69Z" transform="translate(-101.07 -153.25)" style="fill:#29abe2"/><path d="M390,319.34V336h-4.39V324.52l-1.62.39v-4.33l4.73-1.24Z" transform="translate(-101.07 -153.25)" style="fill:#29abe2"/><path d="M390,340.38V357h-4.39V345.56L384,346v-4.33l4.73-1.24Z" transform="translate(-101.07 -153.25)" style="fill:#29abe2"/><path d="M390,361.42v16.66h-4.39V366.6L384,367v-4.33l4.73-1.24Z" transform="translate(-101.07 -153.25)" style="fill:#29abe2"/><path d="M380.05,390.84c0-5.21,2.86-8.63,7.35-8.63s7.28,3.42,7.28,8.62-2.83,8.63-7.28,8.63S380.05,396,380.05,390.84Zm10.23,0c0-2.68-1.12-4.47-2.92-4.47s-2.93,1.78-2.93,4.45,1.13,4.44,2.94,4.44S390.28,393.5,390.28,390.85Z" transform="translate(-101.07 -153.25)" style="fill:#29abe2"/></g><path d="M738.67,163.25H345.27A39.47,39.47,0,0,0,311.09,183L116.36,520.27a39.45,39.45,0,0,0,0,39.46L311.09,897a39.47,39.47,0,0,0,34.18,19.73H734.73A39.47,39.47,0,0,0,768.91,897L963.64,559.73a39.45,39.45,0,0,0,0-39.46l-196.7-340.7A32.64,32.64,0,0,0,738.67,163.25Z" transform="translate(-101.07 -153.25)" style="fill:none;stroke:#fb9300;stroke-miterlimit:10;stroke-width:20px"/><path d="M804.29,588.85l-39.7-23.51,0,2.7c8.52,13.64,13.22,28.52,13.22,44.09,0,16.08-5,31.41-14.07,45.41L803.79,635,844,612.36Z" transform="translate(-101.07 -153.25)"/><path d="M414.37,611.53a89.61,89.61,0,0,1,7.25-35.1,80.17,80.17,0,1,0,1.43,73.42A90.29,90.29,0,0,1,414.37,611.53Zm-94.61-6a22.3,22.3,0,1,1,22.29-22.3A22.29,22.29,0,0,1,319.76,605.5Z" transform="translate(-101.07 -153.25)"/><rect x="439.26" y="343.17" width="15.67" height="15.67" style="fill:#fff"/><path d="M285.61,546.72c-14.83-19.68-37.38-28.33-55.54-22.17-10.68,3.63-17.26,11.5-20.59,16.38" transform="translate(-101.07 -153.25)" style="fill:none;stroke:#000;stroke-miterlimit:10;stroke-width:5px"/><path d="M284.55,542.69c3.42-24.41-6.4-46.47-23.6-55-10.12-5-20.34-4.07-26.14-3" transform="translate(-101.07 -153.25)" style="fill:none;stroke:#000;stroke-miterlimit:10;stroke-width:5px"/><path d="M427.28,610.68c0-36.82,28.66-84.46,63.09-98.55,53.73-22,68.16,66.41,68.16,98.74s-14.66,119.81-68.23,97.88C456,694.72,427.28,647.39,427.28,610.68Zm97.49-.22c0-17.26-7.24-57.15-34.4-51.13-21.46,4.75-33.07,30.91-33.07,51.13s11.66,46.17,33.07,50.9C517.48,667.34,524.76,627.74,524.77,610.46Z" transform="translate(-101.07 -153.25)" style="fill:#fbae17"/><path d="M671,650.18c.14,25.5-12.16,65.38-41.68,70.34a369.8,369.8,0,0,1-54.28,1.64V499a397.42,397.42,0,0,1,41.85.37c26.67,3.09,40.64,37.86,39.56,60.65-.5,10.63-1.51,31.4-13.67,36.88C664.73,600.1,670.93,632.61,671,650.18Zm-55.13-99.5c-3.31-.14-5-.2-8.28-.28v35.09l8,.11c7.33.13,12.83-6,12.83-17.33C628.49,557.62,623.15,551,615.9,550.68ZM639.3,646c0-8.81-4-20.31-14.82-20-6.73,0-10.11,0-16.86,0v42.45c6.66-.17,10-.3,16.62-.67C634.9,666.86,639.25,655.06,639.3,646Z" transform="translate(-101.07 -153.25)"/><path d="M756.91,579.55c-10.37-3.61-15.73-5.26-26.68-8.23V688.44c-10.33,5.29-20.48,10-31.2,14.46V564.07c-9.66-1.93-19.46-3.55-29.23-4.86V508.6A319.18,319.18,0,0,1,756.91,549Z" transform="translate(-101.07 -153.25)" style="fill:#fbae17"/><path d="M571.28,359.44c29.05,41.61,42,86.09,36.22,115.52,16.33-21.91,29.66-53.71,36.16-90.29,13.06-73.47-6.42-138.38-43.49-145-27.66-4.92-57.3,24-76,69.53C540.61,321.86,557,338.92,571.28,359.44Z" transform="translate(-101.07 -153.25)" style="fill:none;stroke:#000;stroke-miterlimit:10;stroke-width:5px"/><g style="clip-path:url(#clip-path-2)"><path d="M683.34,238.76c0-5.21,2.86-8.63,7.35-8.63s7.28,3.42,7.28,8.62-2.83,8.62-7.28,8.62S683.34,244,683.34,238.76Zm10.23,0c0-2.68-1.12-4.47-2.92-4.47s-2.93,1.78-2.93,4.45,1.13,4.43,2.94,4.43S693.57,241.42,693.57,238.77Z" transform="translate(-101.07 -153.25)" style="fill:#29abe2"/><path d="M693.3,251.42v16.66h-4.39V256.59l-1.62.39v-4.32l4.73-1.24Z" transform="translate(-101.07 -153.25)" style="fill:#29abe2"/><path d="M683.34,280.84c0-5.21,2.86-8.63,7.35-8.63s7.28,3.42,7.28,8.62-2.83,8.63-7.28,8.63S683.34,286,683.34,280.84Zm10.23,0c0-2.68-1.12-4.47-2.92-4.47s-2.93,1.78-2.93,4.45,1.13,4.44,2.94,4.44S693.57,283.5,693.57,280.85Z" transform="translate(-101.07 -153.25)" style="fill:#29abe2"/><path d="M693.3,293.5v16.66h-4.39V298.67l-1.62.39v-4.32L692,293.5Z" transform="translate(-101.07 -153.25)" style="fill:#29abe2"/><path d="M683.34,322.92c0-5.21,2.86-8.63,7.35-8.63s7.28,3.42,7.28,8.62-2.83,8.63-7.28,8.63S683.34,328.12,683.34,322.92Zm10.23,0c0-2.68-1.12-4.47-2.92-4.47s-2.93,1.78-2.93,4.45,1.13,4.44,2.94,4.44S693.57,325.58,693.57,322.93Z" transform="translate(-101.07 -153.25)" style="fill:#29abe2"/><path d="M683.34,344c0-5.21,2.86-8.63,7.35-8.63S698,338.75,698,344s-2.83,8.63-7.28,8.63S683.34,349.16,683.34,344Zm10.23,0c0-2.68-1.12-4.47-2.92-4.47s-2.93,1.78-2.93,4.45,1.13,4.44,2.94,4.44S693.57,346.62,693.57,344Z" transform="translate(-101.07 -153.25)" style="fill:#29abe2"/><path d="M693.3,356.62v16.66h-4.39V361.8l-1.62.39v-4.33l4.73-1.24Z" transform="translate(-101.07 -153.25)" style="fill:#29abe2"/><path d="M693.3,377.66v16.66h-4.39V382.84l-1.62.39V378.9l4.73-1.24Z" transform="translate(-101.07 -153.25)" style="fill:#29abe2"/><path d="M683.34,413.5c0-5.21,2.86-8.63,7.35-8.63s7.28,3.42,7.28,8.62-2.83,8.63-7.28,8.63S683.34,418.7,683.34,413.5Zm10.23,0c0-2.68-1.12-4.47-2.92-4.47s-2.93,1.78-2.93,4.45,1.13,4.44,2.94,4.44S693.57,416.16,693.57,413.51Z" transform="translate(-101.07 -153.25)" style="fill:#29abe2"/><path d="M693.3,426.16v16.66h-4.39V431.34l-1.62.39V427.4l4.73-1.24Z" transform="translate(-101.07 -153.25)" style="fill:#29abe2"/><path d="M693.3,447.2v16.66h-4.39V452.38l-1.62.39v-4.33L692,447.2Z" transform="translate(-101.07 -153.25)" style="fill:#29abe2"/><path d="M683.34,476.62c0-5.2,2.86-8.62,7.35-8.62s7.28,3.42,7.28,8.61-2.83,8.63-7.28,8.63S683.34,481.82,683.34,476.62Zm10.23,0c0-2.68-1.12-4.46-2.92-4.46s-2.93,1.77-2.93,4.44,1.13,4.44,2.94,4.44S693.57,479.28,693.57,476.63Z" transform="translate(-101.07 -153.25)" style="fill:#29abe2"/><path d="M668.05,230.38V247h-4.39V235.55l-1.62.39v-4.32l4.73-1.24Z" transform="translate(-101.07 -153.25)" style="fill:#29abe2"/><path d="M658.09,259.8c0-5.21,2.86-8.63,7.35-8.63s7.28,3.42,7.28,8.62-2.83,8.63-7.28,8.63S658.09,265,658.09,259.8Zm10.23,0c0-2.68-1.12-4.47-2.92-4.47s-2.92,1.78-2.92,4.45,1.13,4.43,2.93,4.43S668.32,262.46,668.32,259.81Z" transform="translate(-101.07 -153.25)" style="fill:#29abe2"/><path d="M658.09,280.84c0-5.21,2.86-8.63,7.35-8.63s7.28,3.42,7.28,8.62-2.83,8.63-7.28,8.63S658.09,286,658.09,280.84Zm10.23,0c0-2.68-1.12-4.47-2.92-4.47s-2.92,1.78-2.92,4.45,1.13,4.44,2.93,4.44S668.32,283.5,668.32,280.85Z" transform="translate(-101.07 -153.25)" style="fill:#29abe2"/><path d="M668.05,293.5v16.66h-4.39V298.67l-1.62.39v-4.32l4.73-1.24Z" transform="translate(-101.07 -153.25)" style="fill:#29abe2"/><path d="M658.09,329.34c0-5.21,2.86-8.63,7.35-8.63s7.28,3.42,7.28,8.62-2.83,8.63-7.28,8.63S658.09,334.54,658.09,329.34Zm10.23,0c0-2.68-1.12-4.47-2.92-4.47s-2.92,1.78-2.92,4.45,1.13,4.44,2.93,4.44S668.32,332,668.32,329.35Z" transform="translate(-101.07 -153.25)" style="fill:#29abe2"/><path d="M668.05,342v16.66h-4.39V347.18l-1.62.39v-4.33l4.73-1.24Z" transform="translate(-101.07 -153.25)" style="fill:#29abe2"/><path d="M668.05,363V379.7h-4.39V368.22l-1.62.39v-4.33l4.73-1.24Z" transform="translate(-101.07 -153.25)" style="fill:#29abe2"/><path d="M658.09,392.46c0-5.21,2.86-8.63,7.35-8.63s7.28,3.42,7.28,8.62-2.83,8.63-7.28,8.63S658.09,397.66,658.09,392.46Zm10.23,0c0-2.68-1.12-4.47-2.92-4.47s-2.92,1.78-2.92,4.45,1.13,4.44,2.93,4.44S668.32,395.12,668.32,392.47Z" transform="translate(-101.07 -153.25)" style="fill:#29abe2"/><path d="M658.09,413.5c0-5.21,2.86-8.63,7.35-8.63s7.28,3.42,7.28,8.62-2.83,8.63-7.28,8.63S658.09,418.7,658.09,413.5Zm10.23,0c0-2.68-1.12-4.47-2.92-4.47s-2.92,1.78-2.92,4.45,1.13,4.44,2.93,4.44S668.32,416.16,668.32,413.51Z" transform="translate(-101.07 -153.25)" style="fill:#29abe2"/><path d="M658.09,434.54c0-5.21,2.86-8.63,7.35-8.63s7.28,3.42,7.28,8.62-2.83,8.63-7.28,8.63S658.09,439.74,658.09,434.54Zm10.23,0c0-2.68-1.12-4.47-2.92-4.47s-2.92,1.78-2.92,4.45,1.13,4.44,2.93,4.44S668.32,437.2,668.32,434.55Z" transform="translate(-101.07 -153.25)" style="fill:#29abe2"/><path d="M658.09,455.58c0-5.21,2.86-8.63,7.35-8.63s7.28,3.42,7.28,8.62-2.83,8.63-7.28,8.63S658.09,460.78,658.09,455.58Zm10.23,0c0-2.68-1.12-4.47-2.92-4.47s-2.92,1.78-2.92,4.45,1.13,4.44,2.93,4.44S668.32,458.24,668.32,455.59Z" transform="translate(-101.07 -153.25)" style="fill:#29abe2"/><path d="M668.05,468.24V484.9h-4.39V473.42l-1.62.39v-4.33l4.73-1.24Z" transform="translate(-101.07 -153.25)" style="fill:#29abe2"/><path d="M632.84,245.18c0-5.21,2.87-8.63,7.35-8.63s7.29,3.42,7.29,8.62-2.84,8.63-7.29,8.63S632.84,250.38,632.84,245.18Zm10.23,0c0-2.68-1.12-4.47-2.92-4.47s-2.92,1.78-2.92,4.45,1.13,4.44,2.93,4.44S643.07,247.84,643.07,245.19Z" transform="translate(-101.07 -153.25)" style="fill:#29abe2"/><path d="M642.8,257.84V274.5h-4.39V263l-1.62.39v-4.32l4.73-1.24Z" transform="translate(-101.07 -153.25)" style="fill:#29abe2"/><path d="M642.8,278.88v16.66h-4.39V284.05l-1.62.4v-4.33l4.73-1.24Z" transform="translate(-101.07 -153.25)" style="fill:#29abe2"/><path d="M632.84,308.3c0-5.21,2.87-8.63,7.35-8.63s7.29,3.42,7.29,8.62-2.84,8.63-7.29,8.63S632.84,313.5,632.84,308.3Zm10.23,0c0-2.68-1.12-4.47-2.92-4.47s-2.92,1.78-2.92,4.45,1.13,4.44,2.93,4.44S643.07,311,643.07,308.31Z" transform="translate(-101.07 -153.25)" style="fill:#29abe2"/><path d="M642.8,321v16.66h-4.39V326.14l-1.62.39V322.2l4.73-1.24Z" transform="translate(-101.07 -153.25)" style="fill:#29abe2"/><path d="M642.8,342v16.66h-4.39V347.18l-1.62.39v-4.33l4.73-1.24Z" transform="translate(-101.07 -153.25)" style="fill:#29abe2"/><path d="M632.84,371.42c0-5.21,2.87-8.63,7.35-8.63s7.29,3.42,7.29,8.62-2.84,8.63-7.29,8.63S632.84,376.62,632.84,371.42Zm10.23,0c0-2.68-1.12-4.47-2.92-4.47s-2.92,1.78-2.92,4.45,1.13,4.44,2.93,4.44S643.07,374.08,643.07,371.43Z" transform="translate(-101.07 -153.25)" style="fill:#29abe2"/><path d="M642.8,384.08v16.66h-4.39V389.26l-1.62.39v-4.33l4.73-1.24Z" transform="translate(-101.07 -153.25)" style="fill:#29abe2"/><path d="M632.84,419.92c0-5.2,2.87-8.63,7.35-8.63s7.29,3.43,7.29,8.62-2.84,8.63-7.29,8.63S632.84,425.12,632.84,419.92Zm10.23,0c0-2.68-1.12-4.47-2.92-4.47s-2.92,1.78-2.92,4.45,1.13,4.44,2.93,4.44S643.07,422.58,643.07,419.93Z" transform="translate(-101.07 -153.25)" style="fill:#29abe2"/><path d="M642.8,432.58v16.66h-4.39V437.76l-1.62.39v-4.33l4.73-1.24Z" transform="translate(-101.07 -153.25)" style="fill:#29abe2"/><path d="M642.8,453.62v16.66h-4.39V458.8l-1.62.39v-4.32l4.73-1.25Z" transform="translate(-101.07 -153.25)" style="fill:#29abe2"/><path d="M632.84,483c0-5.2,2.87-8.62,7.35-8.62s7.29,3.42,7.29,8.61-2.84,8.63-7.29,8.63S632.84,488.24,632.84,483Zm10.23,0c0-2.68-1.12-4.46-2.92-4.46s-2.92,1.77-2.92,4.44,1.13,4.44,2.93,4.44S643.07,485.7,643.07,483.05Z" transform="translate(-101.07 -153.25)" style="fill:#29abe2"/><path d="M617.56,230.38V247h-4.4V235.55l-1.61.39v-4.32l4.72-1.24Z" transform="translate(-101.07 -153.25)" style="fill:#29abe2"/><path d="M617.56,251.42v16.66h-4.4V256.59l-1.61.39v-4.32l4.72-1.24Z" transform="translate(-101.07 -153.25)" style="fill:#29abe2"/><path d="M617.56,272.46v16.66h-4.4V277.63l-1.61.39V273.7l4.72-1.24Z" transform="translate(-101.07 -153.25)" style="fill:#29abe2"/><path d="M617.56,293.5v16.66h-4.4V298.67l-1.61.39v-4.32l4.72-1.24Z" transform="translate(-101.07 -153.25)" style="fill:#29abe2"/><path d="M607.59,329.34c0-5.21,2.87-8.63,7.36-8.63s7.28,3.42,7.28,8.62S619.39,338,615,338,607.59,334.54,607.59,329.34Zm10.23,0c0-2.68-1.12-4.47-2.92-4.47s-2.92,1.78-2.92,4.45,1.13,4.44,2.94,4.44S617.82,332,617.82,329.35Z" transform="translate(-101.07 -153.25)" style="fill:#29abe2"/><path d="M607.59,350.38c0-5.21,2.87-8.63,7.36-8.63s7.28,3.42,7.28,8.62S619.39,359,615,359,607.59,355.58,607.59,350.38Zm10.23,0c0-2.68-1.12-4.47-2.92-4.47S612,347.7,612,350.37s1.13,4.44,2.94,4.44S617.82,353,617.82,350.39Z" transform="translate(-101.07 -153.25)" style="fill:#29abe2"/><path d="M617.56,363V379.7h-4.4V368.22l-1.61.39v-4.33l4.72-1.24Z" transform="translate(-101.07 -153.25)" style="fill:#29abe2"/><path d="M607.59,392.46c0-5.21,2.87-8.63,7.36-8.63s7.28,3.42,7.28,8.62-2.84,8.63-7.28,8.63S607.59,397.66,607.59,392.46Zm10.23,0c0-2.68-1.12-4.47-2.92-4.47s-2.92,1.78-2.92,4.45,1.13,4.44,2.94,4.44S617.82,395.12,617.82,392.47Z" transform="translate(-101.07 -153.25)" style="fill:#29abe2"/><path d="M607.59,413.5c0-5.21,2.87-8.63,7.36-8.63s7.28,3.42,7.28,8.62-2.84,8.63-7.28,8.63S607.59,418.7,607.59,413.5Zm10.23,0c0-2.68-1.12-4.47-2.92-4.47s-2.92,1.78-2.92,4.45,1.13,4.44,2.94,4.44S617.82,416.16,617.82,413.51Z" transform="translate(-101.07 -153.25)" style="fill:#29abe2"/><path d="M607.59,434.54c0-5.21,2.87-8.63,7.36-8.63s7.28,3.42,7.28,8.62-2.84,8.63-7.28,8.63S607.59,439.74,607.59,434.54Zm10.23,0c0-2.68-1.12-4.47-2.92-4.47s-2.92,1.78-2.92,4.45,1.13,4.44,2.94,4.44S617.82,437.2,617.82,434.55Z" transform="translate(-101.07 -153.25)" style="fill:#29abe2"/><path d="M607.59,455.58c0-5.21,2.87-8.63,7.36-8.63s7.28,3.42,7.28,8.62-2.84,8.63-7.28,8.63S607.59,460.78,607.59,455.58Zm10.23,0c0-2.68-1.12-4.47-2.92-4.47S612,452.9,612,455.57s1.13,4.44,2.94,4.44S617.82,458.24,617.82,455.59Z" transform="translate(-101.07 -153.25)" style="fill:#29abe2"/><path d="M607.59,476.62c0-5.2,2.87-8.62,7.36-8.62s7.28,3.42,7.28,8.61-2.84,8.63-7.28,8.63S607.59,481.82,607.59,476.62Zm10.23,0c0-2.68-1.12-4.46-2.92-4.46s-2.92,1.77-2.92,4.44,1.13,4.44,2.94,4.44S617.82,479.28,617.82,476.63Z" transform="translate(-101.07 -153.25)" style="fill:#29abe2"/><path d="M582.34,245.18c0-5.21,2.87-8.63,7.36-8.63S597,240,597,245.17s-2.83,8.63-7.28,8.63S582.34,250.38,582.34,245.18Zm10.23,0c0-2.68-1.12-4.47-2.91-4.47s-2.93,1.78-2.93,4.45,1.13,4.44,2.94,4.44S592.57,247.84,592.57,245.19Z" transform="translate(-101.07 -153.25)" style="fill:#29abe2"/><path d="M592.31,257.84V274.5h-4.4V263l-1.61.39v-4.32l4.72-1.24Z" transform="translate(-101.07 -153.25)" style="fill:#29abe2"/><path d="M592.31,278.88v16.66h-4.4V284.05l-1.61.4v-4.33l4.72-1.24Z" transform="translate(-101.07 -153.25)" style="fill:#29abe2"/><path d="M582.34,308.3c0-5.21,2.87-8.63,7.36-8.63s7.28,3.42,7.28,8.62-2.83,8.63-7.28,8.63S582.34,313.5,582.34,308.3Zm10.23,0c0-2.68-1.12-4.47-2.91-4.47s-2.93,1.78-2.93,4.45,1.13,4.44,2.94,4.44S592.57,311,592.57,308.31Z" transform="translate(-101.07 -153.25)" style="fill:#29abe2"/><path d="M592.31,321v16.66h-4.4V326.14l-1.61.39V322.2L591,321Z" transform="translate(-101.07 -153.25)" style="fill:#29abe2"/><path d="M582.34,350.38c0-5.21,2.87-8.63,7.36-8.63s7.28,3.42,7.28,8.62S594.15,359,589.7,359,582.34,355.58,582.34,350.38Zm10.23,0c0-2.68-1.12-4.47-2.91-4.47s-2.93,1.78-2.93,4.45,1.13,4.44,2.94,4.44S592.57,353,592.57,350.39Z" transform="translate(-101.07 -153.25)" style="fill:#29abe2"/><path d="M582.34,371.42c0-5.21,2.87-8.63,7.36-8.63s7.28,3.42,7.28,8.62S594.15,380,589.7,380,582.34,376.62,582.34,371.42Zm10.23,0c0-2.68-1.12-4.47-2.91-4.47s-2.93,1.78-2.93,4.45,1.13,4.44,2.94,4.44S592.57,374.08,592.57,371.43Z" transform="translate(-101.07 -153.25)" style="fill:#29abe2"/><path d="M592.31,384.08v16.66h-4.4V389.26l-1.61.39v-4.33l4.72-1.24Z" transform="translate(-101.07 -153.25)" style="fill:#29abe2"/><path d="M582.34,419.92c0-5.2,2.87-8.63,7.36-8.63s7.28,3.43,7.28,8.62-2.83,8.63-7.28,8.63S582.34,425.12,582.34,419.92Zm10.23,0c0-2.68-1.12-4.47-2.91-4.47s-2.93,1.78-2.93,4.45,1.13,4.44,2.94,4.44S592.57,422.58,592.57,419.93Z" transform="translate(-101.07 -153.25)" style="fill:#29abe2"/><path d="M582.34,441c0-5.2,2.87-8.62,7.36-8.62S597,435.76,597,441s-2.83,8.63-7.28,8.63S582.34,446.16,582.34,441Zm10.23,0c0-2.68-1.12-4.46-2.91-4.46s-2.93,1.77-2.93,4.44,1.13,4.44,2.94,4.44S592.57,443.62,592.57,441Z" transform="translate(-101.07 -153.25)" style="fill:#29abe2"/><path d="M592.31,453.62v16.66h-4.4V458.8l-1.61.39v-4.32l4.72-1.25Z" transform="translate(-101.07 -153.25)" style="fill:#29abe2"/><path d="M582.34,483c0-5.2,2.87-8.62,7.36-8.62S597,477.84,597,483s-2.83,8.63-7.28,8.63S582.34,488.24,582.34,483Zm10.23,0c0-2.68-1.12-4.46-2.91-4.46s-2.93,1.77-2.93,4.44,1.13,4.44,2.94,4.44S592.57,485.7,592.57,483.05Z" transform="translate(-101.07 -153.25)" style="fill:#29abe2"/><path d="M557.1,238.76c0-5.21,2.86-8.63,7.35-8.63s7.28,3.42,7.28,8.62-2.83,8.62-7.28,8.62S557.1,244,557.1,238.76Zm10.23,0c0-2.68-1.12-4.47-2.92-4.47s-2.93,1.78-2.93,4.45,1.13,4.43,2.94,4.43S567.33,241.42,567.33,238.77Z" transform="translate(-101.07 -153.25)" style="fill:#29abe2"/><path d="M557.1,259.8c0-5.21,2.86-8.63,7.35-8.63s7.28,3.42,7.28,8.62-2.83,8.63-7.28,8.63S557.1,265,557.1,259.8Zm10.23,0c0-2.68-1.12-4.47-2.92-4.47s-2.93,1.78-2.93,4.45,1.13,4.43,2.94,4.43S567.33,262.46,567.33,259.81Z" transform="translate(-101.07 -153.25)" style="fill:#29abe2"/><path d="M557.1,280.84c0-5.21,2.86-8.63,7.35-8.63s7.28,3.42,7.28,8.62-2.83,8.63-7.28,8.63S557.1,286,557.1,280.84Zm10.23,0c0-2.68-1.12-4.47-2.92-4.47s-2.93,1.78-2.93,4.45,1.13,4.44,2.94,4.44S567.33,283.5,567.33,280.85Z" transform="translate(-101.07 -153.25)" style="fill:#29abe2"/><path d="M557.1,301.88c0-5.21,2.86-8.63,7.35-8.63s7.28,3.42,7.28,8.62-2.83,8.63-7.28,8.63S557.1,307.08,557.1,301.88Zm10.23,0c0-2.68-1.12-4.47-2.92-4.47s-2.93,1.78-2.93,4.45,1.13,4.44,2.94,4.44S567.33,304.54,567.33,301.89Z" transform="translate(-101.07 -153.25)" style="fill:#29abe2"/><path d="M557.1,329.34c0-5.21,2.86-8.63,7.35-8.63s7.28,3.42,7.28,8.62S568.9,338,564.45,338,557.1,334.54,557.1,329.34Zm10.23,0c0-2.68-1.12-4.47-2.92-4.47s-2.93,1.78-2.93,4.45,1.13,4.44,2.94,4.44S567.33,332,567.33,329.35Z" transform="translate(-101.07 -153.25)" style="fill:#29abe2"/><path d="M567.06,342v16.66h-4.4V347.18l-1.61.39v-4.33l4.73-1.24Z" transform="translate(-101.07 -153.25)" style="fill:#29abe2"/><path d="M567.06,363V379.7h-4.4V368.22l-1.61.39v-4.33l4.73-1.24Z" transform="translate(-101.07 -153.25)" style="fill:#29abe2"/><path d="M567.06,384.08v16.66h-4.4V389.26l-1.61.39v-4.33l4.73-1.24Z" transform="translate(-101.07 -153.25)" style="fill:#29abe2"/><path d="M557.1,413.5c0-5.21,2.86-8.63,7.35-8.63s7.28,3.42,7.28,8.62-2.83,8.63-7.28,8.63S557.1,418.7,557.1,413.5Zm10.23,0c0-2.68-1.12-4.47-2.92-4.47s-2.93,1.78-2.93,4.45,1.13,4.44,2.94,4.44S567.33,416.16,567.33,413.51Z" transform="translate(-101.07 -153.25)" style="fill:#29abe2"/><path d="M557.1,434.54c0-5.21,2.86-8.63,7.35-8.63s7.28,3.42,7.28,8.62-2.83,8.63-7.28,8.63S557.1,439.74,557.1,434.54Zm10.23,0c0-2.68-1.12-4.47-2.92-4.47s-2.93,1.78-2.93,4.45,1.13,4.44,2.94,4.44S567.33,437.2,567.33,434.55Z" transform="translate(-101.07 -153.25)" style="fill:#29abe2"/><path d="M557.1,455.58c0-5.21,2.86-8.63,7.35-8.63s7.28,3.42,7.28,8.62-2.83,8.63-7.28,8.63S557.1,460.78,557.1,455.58Zm10.23,0c0-2.68-1.12-4.47-2.92-4.47s-2.93,1.78-2.93,4.45,1.13,4.44,2.94,4.44S567.33,458.24,567.33,455.59Z" transform="translate(-101.07 -153.25)" style="fill:#29abe2"/><path d="M557.1,476.62c0-5.2,2.86-8.62,7.35-8.62s7.28,3.42,7.28,8.61-2.83,8.63-7.28,8.63S557.1,481.82,557.1,476.62Zm10.23,0c0-2.68-1.12-4.46-2.92-4.46s-2.93,1.77-2.93,4.44,1.13,4.44,2.94,4.44S567.33,479.28,567.33,476.63Z" transform="translate(-101.07 -153.25)" style="fill:#29abe2"/><path d="M531.85,245.18c0-5.21,2.86-8.63,7.35-8.63s7.28,3.42,7.28,8.62-2.83,8.63-7.28,8.63S531.85,250.38,531.85,245.18Zm10.23,0c0-2.68-1.12-4.47-2.92-4.47s-2.93,1.78-2.93,4.45,1.13,4.44,2.94,4.44S542.08,247.84,542.08,245.19Z" transform="translate(-101.07 -153.25)" style="fill:#29abe2"/><path d="M541.81,257.84V274.5h-4.4V263l-1.61.39v-4.32l4.73-1.24Z" transform="translate(-101.07 -153.25)" style="fill:#29abe2"/><path d="M541.81,278.88v16.66h-4.4V284.05l-1.61.4v-4.33l4.73-1.24Z" transform="translate(-101.07 -153.25)" style="fill:#29abe2"/><path d="M531.85,308.3c0-5.21,2.86-8.63,7.35-8.63s7.28,3.42,7.28,8.62-2.83,8.63-7.28,8.63S531.85,313.5,531.85,308.3Zm10.23,0c0-2.68-1.12-4.47-2.92-4.47s-2.93,1.78-2.93,4.45,1.13,4.44,2.94,4.44S542.08,311,542.08,308.31Z" transform="translate(-101.07 -153.25)" style="fill:#29abe2"/><path d="M541.81,321v16.66h-4.4V326.14l-1.61.39V322.2l4.73-1.24Z" transform="translate(-101.07 -153.25)" style="fill:#29abe2"/><path d="M531.85,350.38c0-5.21,2.86-8.63,7.35-8.63s7.28,3.42,7.28,8.62S543.65,359,539.2,359,531.85,355.58,531.85,350.38Zm10.23,0c0-2.68-1.12-4.47-2.92-4.47s-2.93,1.78-2.93,4.45,1.13,4.44,2.94,4.44S542.08,353,542.08,350.39Z" transform="translate(-101.07 -153.25)" style="fill:#29abe2"/><path d="M531.85,371.42c0-5.21,2.86-8.63,7.35-8.63s7.28,3.42,7.28,8.62S543.65,380,539.2,380,531.85,376.62,531.85,371.42Zm10.23,0c0-2.68-1.12-4.47-2.92-4.47s-2.93,1.78-2.93,4.45,1.13,4.44,2.94,4.44S542.08,374.08,542.08,371.43Z" transform="translate(-101.07 -153.25)" style="fill:#29abe2"/><path d="M541.81,384.08v16.66h-4.4V389.26l-1.61.39v-4.33l4.73-1.24Z" transform="translate(-101.07 -153.25)" style="fill:#29abe2"/><path d="M541.81,411.54V428.2h-4.4V416.72l-1.61.39v-4.33l4.73-1.24Z" transform="translate(-101.07 -153.25)" style="fill:#29abe2"/><path d="M541.81,432.58v16.66h-4.4V437.76l-1.61.39v-4.33l4.73-1.24Z" transform="translate(-101.07 -153.25)" style="fill:#29abe2"/><path d="M531.85,462c0-5.2,2.86-8.62,7.35-8.62s7.28,3.42,7.28,8.61-2.83,8.63-7.28,8.63S531.85,467.2,531.85,462Zm10.23,0c0-2.68-1.12-4.46-2.92-4.46s-2.93,1.77-2.93,4.44,1.13,4.44,2.94,4.44S542.08,464.66,542.08,462Z" transform="translate(-101.07 -153.25)" style="fill:#29abe2"/><path d="M531.85,483c0-5.2,2.86-8.62,7.35-8.62s7.28,3.42,7.28,8.61-2.83,8.63-7.28,8.63S531.85,488.24,531.85,483Zm10.23,0c0-2.68-1.12-4.46-2.92-4.46s-2.93,1.77-2.93,4.44,1.13,4.44,2.94,4.44S542.08,485.7,542.08,483.05Z" transform="translate(-101.07 -153.25)" style="fill:#29abe2"/><path d="M506.6,238.76c0-5.21,2.86-8.63,7.35-8.63s7.28,3.42,7.28,8.62-2.83,8.62-7.28,8.62S506.6,244,506.6,238.76Zm10.23,0c0-2.68-1.12-4.47-2.92-4.47s-2.93,1.78-2.93,4.45,1.13,4.43,2.94,4.43S516.83,241.42,516.83,238.77Z" transform="translate(-101.07 -153.25)" style="fill:#29abe2"/><path d="M506.6,259.8c0-5.21,2.86-8.63,7.35-8.63s7.28,3.42,7.28,8.62-2.83,8.63-7.28,8.63S506.6,265,506.6,259.8Zm10.23,0c0-2.68-1.12-4.47-2.92-4.47s-2.93,1.78-2.93,4.45,1.13,4.43,2.94,4.43S516.83,262.46,516.83,259.81Z" transform="translate(-101.07 -153.25)" style="fill:#29abe2"/><path d="M516.56,272.46v16.66h-4.39V277.63l-1.62.39V273.7l4.73-1.24Z" transform="translate(-101.07 -153.25)" style="fill:#29abe2"/><path d="M516.56,293.5v16.66h-4.39V298.67l-1.62.39v-4.32l4.73-1.24Z" transform="translate(-101.07 -153.25)" style="fill:#29abe2"/><path d="M516.56,321v16.66h-4.39V326.14l-1.62.39V322.2l4.73-1.24Z" transform="translate(-101.07 -153.25)" style="fill:#29abe2"/><path d="M506.6,350.38c0-5.21,2.86-8.63,7.35-8.63s7.28,3.42,7.28,8.62S518.4,359,514,359,506.6,355.58,506.6,350.38Zm10.23,0c0-2.68-1.12-4.47-2.92-4.47S511,347.7,511,350.37s1.13,4.44,2.94,4.44S516.83,353,516.83,350.39Z" transform="translate(-101.07 -153.25)" style="fill:#29abe2"/><path d="M516.56,363V379.7h-4.39V368.22l-1.62.39v-4.33l4.73-1.24Z" transform="translate(-101.07 -153.25)" style="fill:#29abe2"/><path d="M516.56,384.08v16.66h-4.39V389.26l-1.62.39v-4.33l4.73-1.24Z" transform="translate(-101.07 -153.25)" style="fill:#29abe2"/><path d="M516.56,405.12v16.66h-4.39V410.3l-1.62.39v-4.33l4.73-1.24Z" transform="translate(-101.07 -153.25)" style="fill:#29abe2"/><path d="M506.6,434.54c0-5.21,2.86-8.63,7.35-8.63s7.28,3.42,7.28,8.62-2.83,8.63-7.28,8.63S506.6,439.74,506.6,434.54Zm10.23,0c0-2.68-1.12-4.47-2.92-4.47s-2.93,1.78-2.93,4.45,1.13,4.44,2.94,4.44S516.83,437.2,516.83,434.55Z" transform="translate(-101.07 -153.25)" style="fill:#29abe2"/><path d="M506.6,455.58c0-5.21,2.86-8.63,7.35-8.63s7.28,3.42,7.28,8.62-2.83,8.63-7.28,8.63S506.6,460.78,506.6,455.58Zm10.23,0c0-2.68-1.12-4.47-2.92-4.47S511,452.9,511,455.57s1.13,4.44,2.94,4.44S516.83,458.24,516.83,455.59Z" transform="translate(-101.07 -153.25)" style="fill:#29abe2"/><path d="M516.56,468.24V484.9h-4.39V473.42l-1.62.39v-4.33l4.73-1.24Z" transform="translate(-101.07 -153.25)" style="fill:#29abe2"/><path d="M481.35,245.18c0-5.21,2.87-8.63,7.35-8.63S496,240,496,245.17s-2.84,8.63-7.29,8.63S481.35,250.38,481.35,245.18Zm10.23,0c0-2.68-1.12-4.47-2.92-4.47s-2.92,1.78-2.92,4.45,1.13,4.44,2.93,4.44S491.58,247.84,491.58,245.19Z" transform="translate(-101.07 -153.25)" style="fill:#29abe2"/><path d="M481.35,266.22c0-5.21,2.87-8.63,7.35-8.63S496,261,496,266.21s-2.84,8.63-7.29,8.63S481.35,271.42,481.35,266.22Zm10.23,0c0-2.68-1.12-4.47-2.92-4.47s-2.92,1.78-2.92,4.45,1.13,4.44,2.93,4.44S491.58,268.88,491.58,266.23Z" transform="translate(-101.07 -153.25)" style="fill:#29abe2"/><path d="M491.31,278.88v16.66h-4.39V284.05l-1.61.4v-4.33l4.72-1.24Z" transform="translate(-101.07 -153.25)" style="fill:#29abe2"/><path d="M481.35,308.3c0-5.21,2.87-8.63,7.35-8.63s7.29,3.42,7.29,8.62-2.84,8.63-7.29,8.63S481.35,313.5,481.35,308.3Zm10.23,0c0-2.68-1.12-4.47-2.92-4.47s-2.92,1.78-2.92,4.45,1.13,4.44,2.93,4.44S491.58,311,491.58,308.31Z" transform="translate(-101.07 -153.25)" style="fill:#29abe2"/><path d="M481.35,329.34c0-5.21,2.87-8.63,7.35-8.63s7.29,3.42,7.29,8.62S493.15,338,488.7,338,481.35,334.54,481.35,329.34Zm10.23,0c0-2.68-1.12-4.47-2.92-4.47s-2.92,1.78-2.92,4.45,1.13,4.44,2.93,4.44S491.58,332,491.58,329.35Z" transform="translate(-101.07 -153.25)" style="fill:#29abe2"/><path d="M481.35,350.38c0-5.21,2.87-8.63,7.35-8.63s7.29,3.42,7.29,8.62S493.15,359,488.7,359,481.35,355.58,481.35,350.38Zm10.23,0c0-2.68-1.12-4.47-2.92-4.47s-2.92,1.78-2.92,4.45,1.13,4.44,2.93,4.44S491.58,353,491.58,350.39Z" transform="translate(-101.07 -153.25)" style="fill:#29abe2"/><path d="M481.35,371.42c0-5.21,2.87-8.63,7.35-8.63s7.29,3.42,7.29,8.62S493.15,380,488.7,380,481.35,376.62,481.35,371.42Zm10.23,0c0-2.68-1.12-4.47-2.92-4.47s-2.92,1.78-2.92,4.45,1.13,4.44,2.93,4.44S491.58,374.08,491.58,371.43Z" transform="translate(-101.07 -153.25)" style="fill:#29abe2"/><path d="M481.35,392.46c0-5.21,2.87-8.63,7.35-8.63s7.29,3.42,7.29,8.62-2.84,8.63-7.29,8.63S481.35,397.66,481.35,392.46Zm10.23,0c0-2.68-1.12-4.47-2.92-4.47s-2.92,1.78-2.92,4.45,1.13,4.44,2.93,4.44S491.58,395.12,491.58,392.47Z" transform="translate(-101.07 -153.25)" style="fill:#29abe2"/><path d="M481.35,419.92c0-5.2,2.87-8.63,7.35-8.63s7.29,3.43,7.29,8.62-2.84,8.63-7.29,8.63S481.35,425.12,481.35,419.92Zm10.23,0c0-2.68-1.12-4.47-2.92-4.47s-2.92,1.78-2.92,4.45,1.13,4.44,2.93,4.44S491.58,422.58,491.58,419.93Z" transform="translate(-101.07 -153.25)" style="fill:#29abe2"/><path d="M491.31,432.58v16.66h-4.39V437.76l-1.61.39v-4.33l4.72-1.24Z" transform="translate(-101.07 -153.25)" style="fill:#29abe2"/><path d="M491.31,453.62v16.66h-4.39V458.8l-1.61.39v-4.32l4.72-1.25Z" transform="translate(-101.07 -153.25)" style="fill:#29abe2"/><path d="M481.35,483c0-5.2,2.87-8.62,7.35-8.62S496,477.84,496,483s-2.84,8.63-7.29,8.63S481.35,488.24,481.35,483Zm10.23,0c0-2.68-1.12-4.46-2.92-4.46s-2.92,1.77-2.92,4.44,1.13,4.44,2.93,4.44S491.58,485.7,491.58,483.05Z" transform="translate(-101.07 -153.25)" style="fill:#29abe2"/><path d="M456.1,238.76c0-5.21,2.87-8.63,7.36-8.63s7.28,3.42,7.28,8.62-2.84,8.62-7.28,8.62S456.1,244,456.1,238.76Zm10.23,0c0-2.68-1.12-4.47-2.92-4.47s-2.92,1.78-2.92,4.45,1.13,4.43,2.93,4.43S466.33,241.42,466.33,238.77Z" transform="translate(-101.07 -153.25)" style="fill:#29abe2"/><path d="M466.07,251.42v16.66h-4.4V256.59l-1.61.39v-4.32l4.72-1.24Z" transform="translate(-101.07 -153.25)" style="fill:#29abe2"/><path d="M466.07,272.46v16.66h-4.4V277.63l-1.61.39V273.7l4.72-1.24Z" transform="translate(-101.07 -153.25)" style="fill:#29abe2"/><path d="M456.1,301.88c0-5.21,2.87-8.63,7.36-8.63s7.28,3.42,7.28,8.62-2.84,8.63-7.28,8.63S456.1,307.08,456.1,301.88Zm10.23,0c0-2.68-1.12-4.47-2.92-4.47s-2.92,1.78-2.92,4.45,1.13,4.44,2.93,4.44S466.33,304.54,466.33,301.89Z" transform="translate(-101.07 -153.25)" style="fill:#29abe2"/><path d="M456.1,329.34c0-5.21,2.87-8.63,7.36-8.63s7.28,3.42,7.28,8.62S467.9,338,463.46,338,456.1,334.54,456.1,329.34Zm10.23,0c0-2.68-1.12-4.47-2.92-4.47s-2.92,1.78-2.92,4.45,1.13,4.44,2.93,4.44S466.33,332,466.33,329.35Z" transform="translate(-101.07 -153.25)" style="fill:#29abe2"/><path d="M466.07,342v16.66h-4.4V347.18l-1.61.39v-4.33l4.72-1.24Z" transform="translate(-101.07 -153.25)" style="fill:#29abe2"/><path d="M466.07,363V379.7h-4.4V368.22l-1.61.39v-4.33l4.72-1.24Z" transform="translate(-101.07 -153.25)" style="fill:#29abe2"/><path d="M466.07,384.08v16.66h-4.4V389.26l-1.61.39v-4.33l4.72-1.24Z" transform="translate(-101.07 -153.25)" style="fill:#29abe2"/><path d="M456.1,413.5c0-5.21,2.87-8.63,7.36-8.63s7.28,3.42,7.28,8.62-2.84,8.63-7.28,8.63S456.1,418.7,456.1,413.5Zm10.23,0c0-2.68-1.12-4.47-2.92-4.47s-2.92,1.78-2.92,4.45,1.13,4.44,2.93,4.44S466.33,416.16,466.33,413.51Z" transform="translate(-101.07 -153.25)" style="fill:#29abe2"/><path d="M466.07,426.16v16.66h-4.4V431.34l-1.61.39V427.4l4.72-1.24Z" transform="translate(-101.07 -153.25)" style="fill:#29abe2"/><path d="M456.1,455.58c0-5.21,2.87-8.63,7.36-8.63s7.28,3.42,7.28,8.62-2.84,8.63-7.28,8.63S456.1,460.78,456.1,455.58Zm10.23,0c0-2.68-1.12-4.47-2.92-4.47s-2.92,1.78-2.92,4.45,1.13,4.44,2.93,4.44S466.33,458.24,466.33,455.59Z" transform="translate(-101.07 -153.25)" style="fill:#29abe2"/><path d="M466.07,468.24V484.9h-4.4V473.42l-1.61.39v-4.33l4.72-1.24Z" transform="translate(-101.07 -153.25)" style="fill:#29abe2"/><path d="M430.85,245.18c0-5.21,2.87-8.63,7.36-8.63s7.28,3.42,7.28,8.62-2.84,8.63-7.28,8.63S430.85,250.38,430.85,245.18Zm10.23,0c0-2.68-1.12-4.47-2.91-4.47s-2.93,1.78-2.93,4.45,1.13,4.44,2.94,4.44S441.08,247.84,441.08,245.19Z" transform="translate(-101.07 -153.25)" style="fill:#29abe2"/><path d="M440.82,257.84V274.5h-4.4V263l-1.61.39v-4.32l4.72-1.24Z" transform="translate(-101.07 -153.25)" style="fill:#29abe2"/><path d="M440.82,278.88v16.66h-4.4V284.05l-1.61.4v-4.33l4.72-1.24Z" transform="translate(-101.07 -153.25)" style="fill:#29abe2"/><path d="M430.85,308.3c0-5.21,2.87-8.63,7.36-8.63s7.28,3.42,7.28,8.62-2.84,8.63-7.28,8.63S430.85,313.5,430.85,308.3Zm10.23,0c0-2.68-1.12-4.47-2.91-4.47s-2.93,1.78-2.93,4.45,1.13,4.44,2.94,4.44S441.08,311,441.08,308.31Z" transform="translate(-101.07 -153.25)" style="fill:#29abe2"/><path d="M430.85,329.34c0-5.21,2.87-8.63,7.36-8.63s7.28,3.42,7.28,8.62-2.84,8.63-7.28,8.63S430.85,334.54,430.85,329.34Zm10.23,0c0-2.68-1.12-4.47-2.91-4.47s-2.93,1.78-2.93,4.45,1.13,4.44,2.94,4.44S441.08,332,441.08,329.35Z" transform="translate(-101.07 -153.25)" style="fill:#29abe2"/><path d="M430.85,350.38c0-5.21,2.87-8.63,7.36-8.63s7.28,3.42,7.28,8.62-2.84,8.63-7.28,8.63S430.85,355.58,430.85,350.38Zm10.23,0c0-2.68-1.12-4.47-2.91-4.47s-2.93,1.78-2.93,4.45,1.13,4.44,2.94,4.44S441.08,353,441.08,350.39Z" transform="translate(-101.07 -153.25)" style="fill:#29abe2"/><path d="M440.82,363V379.7h-4.4V368.22l-1.61.39v-4.33l4.72-1.24Z" transform="translate(-101.07 -153.25)" style="fill:#29abe2"/><path d="M440.82,384.08v16.66h-4.4V389.26l-1.61.39v-4.33l4.72-1.24Z" transform="translate(-101.07 -153.25)" style="fill:#29abe2"/><path d="M430.85,419.92c0-5.2,2.87-8.63,7.36-8.63s7.28,3.43,7.28,8.62-2.84,8.63-7.28,8.63S430.85,425.12,430.85,419.92Zm10.23,0c0-2.68-1.12-4.47-2.91-4.47s-2.93,1.78-2.93,4.45,1.13,4.44,2.94,4.44S441.08,422.58,441.08,419.93Z" transform="translate(-101.07 -153.25)" style="fill:#29abe2"/><path d="M440.82,432.58v16.66h-4.4V437.76l-1.61.39v-4.33l4.72-1.24Z" transform="translate(-101.07 -153.25)" style="fill:#29abe2"/><path d="M440.82,453.62v16.66h-4.4V458.8l-1.61.39v-4.32l4.72-1.25Z" transform="translate(-101.07 -153.25)" style="fill:#29abe2"/><path d="M430.85,483c0-5.2,2.87-8.62,7.36-8.62s7.28,3.42,7.28,8.61-2.84,8.63-7.28,8.63S430.85,488.24,430.85,483Zm10.23,0c0-2.68-1.12-4.46-2.91-4.46s-2.93,1.77-2.93,4.44,1.13,4.44,2.94,4.44S441.08,485.7,441.08,483.05Z" transform="translate(-101.07 -153.25)" style="fill:#29abe2"/><path d="M415.57,230.38V247h-4.4V235.55l-1.61.39v-4.32l4.72-1.24Z" transform="translate(-101.07 -153.25)" style="fill:#29abe2"/><path d="M405.6,259.8c0-5.21,2.87-8.63,7.36-8.63s7.28,3.42,7.28,8.62-2.83,8.63-7.28,8.63S405.6,265,405.6,259.8Zm10.23,0c0-2.68-1.12-4.47-2.91-4.47s-2.93,1.78-2.93,4.45,1.13,4.43,2.94,4.43S415.83,262.46,415.83,259.81Z" transform="translate(-101.07 -153.25)" style="fill:#29abe2"/><path d="M405.6,280.84c0-5.21,2.87-8.63,7.36-8.63s7.28,3.42,7.28,8.62-2.83,8.63-7.28,8.63S405.6,286,405.6,280.84Zm10.23,0c0-2.68-1.12-4.47-2.91-4.47s-2.93,1.78-2.93,4.45,1.13,4.44,2.94,4.44S415.83,283.5,415.83,280.85Z" transform="translate(-101.07 -153.25)" style="fill:#29abe2"/><path d="M405.6,301.88c0-5.21,2.87-8.63,7.36-8.63s7.28,3.42,7.28,8.62-2.83,8.63-7.28,8.63S405.6,307.08,405.6,301.88Zm10.23,0c0-2.68-1.12-4.47-2.91-4.47S410,299.2,410,301.87s1.13,4.44,2.94,4.44S415.83,304.54,415.83,301.89Z" transform="translate(-101.07 -153.25)" style="fill:#29abe2"/><path d="M405.6,329.34c0-5.21,2.87-8.63,7.36-8.63s7.28,3.42,7.28,8.62S417.41,338,413,338,405.6,334.54,405.6,329.34Zm10.23,0c0-2.68-1.12-4.47-2.91-4.47s-2.93,1.78-2.93,4.45,1.13,4.44,2.94,4.44S415.83,332,415.83,329.35Z" transform="translate(-101.07 -153.25)" style="fill:#29abe2"/><path d="M415.57,342v16.66h-4.4V347.18l-1.61.39v-4.33l4.72-1.24Z" transform="translate(-101.07 -153.25)" style="fill:#29abe2"/><path d="M415.57,363V379.7h-4.4V368.22l-1.61.39v-4.33l4.72-1.24Z" transform="translate(-101.07 -153.25)" style="fill:#29abe2"/><path d="M405.6,392.46c0-5.21,2.87-8.63,7.36-8.63s7.28,3.42,7.28,8.62-2.83,8.63-7.28,8.63S405.6,397.66,405.6,392.46Zm10.23,0c0-2.68-1.12-4.47-2.91-4.47s-2.93,1.78-2.93,4.45,1.13,4.44,2.94,4.44S415.83,395.12,415.83,392.47Z" transform="translate(-101.07 -153.25)" style="fill:#29abe2"/><path d="M415.57,405.12v16.66h-4.4V410.3l-1.61.39v-4.33l4.72-1.24Z" transform="translate(-101.07 -153.25)" style="fill:#29abe2"/><path d="M405.6,434.54c0-5.21,2.87-8.63,7.36-8.63s7.28,3.42,7.28,8.62-2.83,8.63-7.28,8.63S405.6,439.74,405.6,434.54Zm10.23,0c0-2.68-1.12-4.47-2.91-4.47s-2.93,1.78-2.93,4.45,1.13,4.44,2.94,4.44S415.83,437.2,415.83,434.55Z" transform="translate(-101.07 -153.25)" style="fill:#29abe2"/><path d="M405.6,455.58c0-5.21,2.87-8.63,7.36-8.63s7.28,3.42,7.28,8.62-2.83,8.63-7.28,8.63S405.6,460.78,405.6,455.58Zm10.23,0c0-2.68-1.12-4.47-2.91-4.47S410,452.9,410,455.57s1.13,4.44,2.94,4.44S415.83,458.24,415.83,455.59Z" transform="translate(-101.07 -153.25)" style="fill:#29abe2"/><path d="M415.57,468.24V484.9h-4.4V473.42l-1.61.39v-4.33l4.72-1.24Z" transform="translate(-101.07 -153.25)" style="fill:#29abe2"/><path d="M380.36,245.18c0-5.21,2.86-8.63,7.35-8.63S395,240,395,245.17s-2.83,8.63-7.28,8.63S380.36,250.38,380.36,245.18Zm10.23,0c0-2.68-1.12-4.47-2.92-4.47s-2.93,1.78-2.93,4.45,1.13,4.44,2.94,4.44S390.59,247.84,390.59,245.19Z" transform="translate(-101.07 -153.25)" style="fill:#29abe2"/><path d="M380.36,266.22c0-5.21,2.86-8.63,7.35-8.63S395,261,395,266.21s-2.83,8.63-7.28,8.63S380.36,271.42,380.36,266.22Zm10.23,0c0-2.68-1.12-4.47-2.92-4.47s-2.93,1.78-2.93,4.45,1.13,4.44,2.94,4.44S390.59,268.88,390.59,266.23Z" transform="translate(-101.07 -153.25)" style="fill:#29abe2"/><path d="M390.32,278.88v16.66h-4.4V284.05l-1.61.4v-4.33l4.73-1.24Z" transform="translate(-101.07 -153.25)" style="fill:#29abe2"/><path d="M380.36,308.3c0-5.21,2.86-8.63,7.35-8.63s7.28,3.42,7.28,8.62-2.83,8.63-7.28,8.63S380.36,313.5,380.36,308.3Zm10.23,0c0-2.68-1.12-4.47-2.92-4.47s-2.93,1.78-2.93,4.45,1.13,4.44,2.94,4.44S390.59,311,390.59,308.31Z" transform="translate(-101.07 -153.25)" style="fill:#29abe2"/><path d="M390.32,321v16.66h-4.4V326.14l-1.61.39V322.2L389,321Z" transform="translate(-101.07 -153.25)" style="fill:#29abe2"/><path d="M390.32,342v16.66h-4.4V347.18l-1.61.39v-4.33L389,342Z" transform="translate(-101.07 -153.25)" style="fill:#29abe2"/><path d="M390.32,363V379.7h-4.4V368.22l-1.61.39v-4.33L389,363Z" transform="translate(-101.07 -153.25)" style="fill:#29abe2"/><path d="M380.36,392.46c0-5.21,2.86-8.63,7.35-8.63s7.28,3.42,7.28,8.62-2.83,8.63-7.28,8.63S380.36,397.66,380.36,392.46Zm10.23,0c0-2.68-1.12-4.47-2.92-4.47s-2.93,1.78-2.93,4.45,1.13,4.44,2.94,4.44S390.59,395.12,390.59,392.47Z" transform="translate(-101.07 -153.25)" style="fill:#29abe2"/></g><path d="M585.49,480.72c7.53-29.33-5.24-75.67-35.44-118.93-40.59-58.13-97.27-88.65-126.6-68.16S403.24,377.83,443.83,436C461,460.52,481,480.13,500.64,493.07,525.39,484,554.48,479.48,585.49,480.72Z" transform="translate(-101.07 -153.25)" style="fill:none;stroke:#000;stroke-miterlimit:10;stroke-width:5px"/></svg>